<svg id="Layer_1" data-name="Layer 1" xmlns="http://www.w3.org/2000/svg" viewBox="0 0 152.38 144.17"><defs><style>.cls-1{fill:#2e282a;}.cls-2{fill:#3f3a3c;}.cls-3{fill:#494446;}.cls-4{fill:#525a5b;}.cls-5{fill:#454849;}.cls-6{fill:#cdcccc;}.cls-7{fill:#5b5758;}.cls-8{fill:#4b4647;}.cls-9{fill:#534f50;}.cls-10{fill:#dad8d9;}.cls-11{fill:#474243;}.cls-12{fill:#4d4749;}.cls-13{fill:#4f4a4b;}.cls-14{fill:#555051;}.cls-15{fill:#d1d0d0;}.cls-16{fill:#524d4f;}.cls-17{fill:#686465;}.cls-18{fill:#585455;}.cls-19{fill:#bdbbbc;}.cls-20{fill:#645f61;}.cls-21{fill:#bab8b9;}.cls-22{fill:#504b4d;}.cls-23{fill:#bcbbbb;}.cls-24{fill:#605b5d;}.cls-25{fill:#565153;}.cls-26{fill:#c6c4c5;}.cls-27{fill:#716d6e;}.cls-28{fill:#b7b5b5;}.cls-29{fill:#c4c2c3;}.cls-30{fill:#bcbabb;}.cls-31{fill:#797576;}.cls-32{fill:#a8a5a6;}.cls-33{fill:#595456;}.cls-34{fill:#a3a0a1;}.cls-35{fill:#777374;}.cls-36{fill:#6d696b;}.cls-37{fill:#7b7779;}.cls-38{fill:#787475;}.cls-39{fill:#7d7a7b;}.cls-40{fill:#d6d5d5;}.cls-41{fill:#b7b5b6;}.cls-42{fill:#b5b3b4;}.cls-43{fill:#6b6768;}.cls-44{fill:#bebcbc;}.cls-45{fill:#6c6769;}.cls-46{fill:#7f7c7d;}.cls-47{fill:#cac9c9;}.cls-48{fill:#bfbdbe;}.cls-49{fill:#6d696a;}.cls-50{fill:#aeacac;}.cls-51{fill:#b8b6b6;}.cls-52{fill:#afadae;}.cls-53{fill:#d4d2d3;}.cls-54{fill:#595455;}.cls-55{fill:#b4b2b3;}.cls-56{fill:#a6a3a4;}.cls-57{fill:#7f7b7c;}.cls-58{fill:#7b7778;}.cls-59{fill:#706c6d;}.cls-60{fill:#726e6f;}.cls-61{fill:#9e9b9c;}.cls-62{fill:#716d6f;}.cls-63{fill:#b2b0b0;}.cls-64{fill:#c4c2c2;}.cls-65{fill:#7367ef;}.cls-66{fill:#e3572e;}.cls-67{fill:#17bdba;}.cls-68{fill:#75b941;}.cls-69{fill:#38323d;}.cls-70{fill:#413332;}.cls-71{fill:#343839;}.cls-72{fill:#3a3344;}.cls-73{fill:#3c354a;}.cls-74{fill:#3c364c;}.cls-75{fill:#3c354c;}.cls-76{fill:#3d364f;}.cls-77{fill:#3c364d;}.cls-78{fill:#5f54b6;}.cls-79{fill:#b14a2d;}.cls-80{fill:#3f3856;}.cls-81{fill:#b0492c;}.cls-82{fill:#403959;}.cls-83{fill:#5b51ab;}.cls-84{fill:#a7472c;}.cls-85{fill:#51488e;}.cls-86{fill:#534b96;}.cls-87{fill:#554c9b;}.cls-88{fill:#2a5656;}.cls-89{fill:#2b4647;}.cls-90{fill:#2d4849;}.cls-91{fill:#1b9f9d;}.cls-92{fill:#295657;}.cls-93{fill:#1e8d8b;}.cls-94{fill:#fec814;}.cls-95{fill:#625128;}.cls-96{fill:#4d412a;}.cls-97{fill:#b6901b;}.cls-98{fill:#c59c1a;}.cls-99{fill:#4d412c;}.cls-100{fill:#c49c1a;}.cls-101{fill:#5f4e28;}.cls-102{fill:#5f5f5d;}.cls-103{fill:#383335;}.cls-104{fill:#3e3a3b;}.cls-105{fill:#4f4780;}.cls-106{fill:#383244;}.cls-107{fill:#463e70;}.cls-108{fill:#3f3857;}.cls-109{fill:#5c5859;}.cls-110{fill:#4a4546;}.cls-111{fill:#615c5e;}.cls-112{fill:#6f6b6c;}.cls-113{fill:#7e7a7c;}</style></defs><path class="cls-1" d="M120.49,85.66l3-1.64c.48-.35,1-.51,1.54-.84,3.15-1.63,6.27-3.3,9.52-4.73.24-.1.41-.23.31-.53a.61.61,0,0,1,.21-.63.54.54,0,0,1,.46-.19c.27-.1.56-.09.83-.18a4,4,0,0,1,1.29.06c.92.23,1.15.57.94,1.48a3.8,3.8,0,0,0-.07,1.11c.41,6.93.69,13.87.74,20.81a17.59,17.59,0,0,1-.27,3c-.09.53.06.63.55.59,2.16-.2,4.32-.37,6.47-.55.35,0,.71,0,1.06-.06s1,0,1.52-.1c.32,0,.49-.14.46-.51a48.93,48.93,0,0,1,.25-5.93c.11-2.47.37-4.93.6-7.38.17-1.9.3-3.79.54-5.68.17-1.28.17-2.58.25-3.87.13-2,.37-4,.51-6,.06-.88.18-1.76.21-2.64a19.12,19.12,0,0,0,.34-3c.17-1.74.42-3.48.47-5.24,0-.42-.13-.58-.53-.56a7,7,0,0,1-2.1-1l-.35-.24q-.44-.27-.84-.57a47.6,47.6,0,0,1-8.39-7.9c-.13-.15-.24-.32-.36-.47a38.17,38.17,0,0,1-3.11-4.38,13.66,13.66,0,0,1-1.71-4,2.69,2.69,0,0,1,.1-1.49,2,2,0,0,1,1.78-1,13,13,0,0,1,1.53,0c.3.07.61.11.92.18a5.21,5.21,0,0,1,1.26.54,3,3,0,0,0,.92.55,16.07,16.07,0,0,1,3,2.12,49.79,49.79,0,0,1,10.51,11.55.63.63,0,0,0,.58.32l11.08.46a.71.71,0,0,0,.67-.27,41.82,41.82,0,0,1,8.45-8.25c.27-.21.56-.39.84-.59a21.53,21.53,0,0,1,5.13-2.71,6.5,6.5,0,0,1,2.9-.27,1.82,1.82,0,0,1,1.79,2.26,7.91,7.91,0,0,1-1.09,3,7.64,7.64,0,0,0-.47.83l-1.2,1.87a4.21,4.21,0,0,1-.35.48h0a28.15,28.15,0,0,1-2,2.48l-1.88,2a5.76,5.76,0,0,1-.59.62c-.43.43-.84.88-1.3,1.28a30.16,30.16,0,0,1-7.92,5.86.61.61,0,0,0-.4.63q-.12,7-.26,14c0,.3,0,.58.29.77s.16.3.17.48c0,5.17.08,10.34,0,15.51,0,1.2-.05,2.4-.11,3.6,0,.49.14.61.6.56,1.19-.12,2.39-.21,3.58-.31a1.16,1.16,0,0,1,1.12,1.33.66.66,0,0,0,0,.34,31.77,31.77,0,0,1,2.21,6c.09.26.19.51.3.76s.13.52.25.76a10.2,10.2,0,0,0,.59,1.85,12.91,12.91,0,0,1,.41,1.34q1.77,5.74,3.52,11.5a.85.85,0,0,1,0,.17,9.42,9.42,0,0,0,.47,1.54h0c.13.46.23.93.4,1.38.32,1.14.64,2.28,1,3.41,0,.13,0,.36.22.38s.25-.16.33-.29c.28-.49.6-1,.85-1.47h0a4,4,0,0,0,.48-.82q1.49-2.47,3-4.95c.32-.52.64-1,.93-1.55q4.26-7.09,8.5-14.19l.72-1.15c.4-.53.71-1.12,1.06-1.68a2.87,2.87,0,0,1,2.9-.35,1,1,0,0,1,.67,1c.09,1.15.44,2.27.55,3.43.3,3.38.9,6.72,1.31,10.08.28,2.28.6,4.55.86,6.82.22,1.89.49,3.77.76,5.64.32,2.17.57,4.35.87,6.53.23,1.72.46,3.45.68,5.18.24,1.93.61,3.84.8,5.76.22,2.17.51,4.32.79,6.48.23,1.86.49,3.72.74,5.58.19,1.46.39,2.91.54,4.38.11,1.11.24,2.22.41,3.32.08.57,0,.72-.57.9a2.88,2.88,0,0,1-.87.1c-2.93,0-5.86-.09-8.79-.12-3.28,0-6.56-.18-9.84-.17a.48.48,0,0,1-.23,0c-.84,0-1.69,0-2.53,0q-12.3-.3-24.6-.62-16.14-.42-32.27-.87l-31.62-.89-2.18-.09a3.2,3.2,0,0,1-.69-.11c-.66-.2-.74-.35-.55-1,0-.21.11-.42.16-.63s.13-.63.31-.91c.77-1.95,1.38-3.95,2-5.95.33-1.11.71-2.19,1-3.31h0a7.92,7.92,0,0,0,.45-1.43c.47-1.27.82-2.57,1.24-3.86.29-.91.58-1.83.86-2.75.42-1.46.94-2.89,1.34-4.37l2.4-7.58c.31-.95.62-1.9.9-2.86a1,1,0,0,1,.7-.72,2.37,2.37,0,0,1,2.95.88c.18.24.34.48.51.72s.24.31.33.49l3.2,4c.09.17.25.28.3.47.56.76,1.14,1.5,1.74,2.23.23.3.4.31.58-.06a13.23,13.23,0,0,0,.56-1.35h0a22.46,22.46,0,0,0,1-2.26l.48-1.15a3.83,3.83,0,0,0,.46-1.08h0c.58-1.2,1-2.45,1.54-3.68l1.14-2.87c.12-.3.25-.6.38-.9.14-.13.14-.33.25-.47l0-.33c.12-.14.14-.33.24-.48q2-4.65,3.91-9.29c.1-.22.21-.43.31-.64a16.48,16.48,0,0,0,.95-2.25l2.18-5.16c.51-1.21,1-2.41,1.54-3.63a1.33,1.33,0,0,1,1.19-.91l2.35-.19c.26,0,.47,0,.36-.41a24.85,24.85,0,0,1-.76-5.42c-.13-1.86-.21-3.73-.32-5.59,0-.22,0-.42-.31-.44a26.91,26.91,0,0,1-4.91-1.22l-.23-.05c-.37-.06-.72-.22-1.09-.31a11.38,11.38,0,0,0-1.87-.62c-2.35-.7-4.7-1.39-7-2.11-1-.31-1.12-.7-.51-1.55A2.43,2.43,0,0,1,120.49,85.66Z" transform="translate(-73.35 -26.38)"/><path class="cls-1" d="M224.37,72.91l.12.12a5.82,5.82,0,0,1,.94,1.9c.75,3.08,0,6-1,8.86a1.31,1.31,0,0,1-.73.8c-.47,0-.73.49-1.18.61a1.57,1.57,0,0,1-1.9-.62,1.36,1.36,0,0,1-.12-1.45,30.33,30.33,0,0,0,1-3.89,7.91,7.91,0,0,0-.62-5c-.83-1.57-1.79-1.85-3.34-1a8.08,8.08,0,0,0-1.81,1.59,3.53,3.53,0,0,1-4,.81,1.58,1.58,0,0,1-1-1.21,28.82,28.82,0,0,1-.52-3.2,33.64,33.64,0,0,0-1.31-6.52,11.25,11.25,0,0,0-.89-1.93,2.63,2.63,0,0,0-3.3-1.31,1.05,1.05,0,0,0-.86.44,23.15,23.15,0,0,0-5.25,6.36c-.25.42-.38.91-.66,1.31a2.73,2.73,0,0,0-.41,1.44c-.47,1.9-.52,3.86-.8,5.78-.22,1.46-.44,1.69-1.88,1.88a2.69,2.69,0,0,1-2.9-1.24,13.86,13.86,0,0,0-2.57-3.14,7.1,7.1,0,0,0-1.16-.81c-.64-.36-.74-.32-1,.38a9.39,9.39,0,0,0-.71,3.39,32.94,32.94,0,0,0,.36,6.11,12.41,12.41,0,0,0,.35,1.49.8.8,0,0,0,.75.64,4,4,0,0,0,1.24,0,5.51,5.51,0,0,1,1,0c3.34.07,6.68-.08,10-.26,3.1-.16,6.19-.39,9.3-.46.7,0,1.41-.13,2.12-.1,1.59,0,3.18.07,4.77,0a19.61,19.61,0,0,1,3.16,0,2.33,2.33,0,0,1,.91.21c.12.07.24.16.23.32s-.16.2-.3.24a12.9,12.9,0,0,1-2.32.28c-1.62.1-3.24.11-4.86.3-3.44.27-6.9.52-10.34.81-4.83.4-9.66.6-14.5.63a9.75,9.75,0,0,1-3.81-.66,2.65,2.65,0,0,1-1.45-1.32,17.14,17.14,0,0,1-1.5-10.23c.63-3.65,3.08-4.9,6.78-4.25a9.17,9.17,0,0,1,4,1.83c.35.26.47.17.49-.22.2-3.83,2.18-6.77,4.67-9.47a11.9,11.9,0,0,1,4.77-3.46,10.6,10.6,0,0,1,4.54-.47,13.45,13.45,0,0,1,2.49.59,6.07,6.07,0,0,1,3.63,3.81c.19.28.2.64.38.92a28.26,28.26,0,0,1,1.23,5.67c.07.48.13,1,.2,1.46a10.24,10.24,0,0,1,7.42-.4,7.61,7.61,0,0,1,1,.47l.35.23A5,5,0,0,1,224.37,72.91Z" transform="translate(-73.35 -26.38)"/><path class="cls-1" d="M108.09,65.12c-2.78.27-5.56.5-8.33.83-5.27.61-10.58.76-15.88,1a26.3,26.3,0,0,1-6.45-.34A4.21,4.21,0,0,1,74,63.46a12.28,12.28,0,0,1,.08-8,10.71,10.71,0,0,1,1.78-3.31,5.72,5.72,0,0,1,3.84-1.41,7,7,0,0,1,4.51,1c.47.3.57.19.66-.34a10,10,0,0,1,2.39-5,14,14,0,0,1,9.28-5.17,7.25,7.25,0,0,1,5.18,1.14,6.93,6.93,0,0,1,1.18,1.18c1.55,2.12,1.82,4.65,2.26,7.19a12,12,0,0,1,3.72-1.37,8.12,8.12,0,0,1,4.48.17,5.58,5.58,0,0,1,3.6,4.34,19.56,19.56,0,0,1,.08,8.31c-.1.54-.23,1.07-.31,1.62a.93.93,0,0,1-.67.81,3.34,3.34,0,0,1-2.41.07c-1-.44-1.14-.72-1-1.81a4.35,4.35,0,0,0,.07-.88,29.65,29.65,0,0,0,.12-4.52,14.24,14.24,0,0,0-.92-4.65c-.06-.13-.11-.26-.17-.38-.59-1.15-1.15-1.34-2.33-.84a11.82,11.82,0,0,0-3.22,2.34,3.84,3.84,0,0,1-4.43.51,5.78,5.78,0,0,1-.65-1,1.21,1.21,0,0,1,0-.18,25,25,0,0,0-.46-2.56c-.32-1.11-.4-2.26-.73-3.37-.17-.54-.34-1.07-.55-1.6a3,3,0,0,0-.61-1.14.35.35,0,0,1-.07-.09c-1.19-1.51-1.31-1.38-2.85-.58a11.65,11.65,0,0,0-6.12,7.77c-.32,1.28-.57,2.57-.87,3.85a2,2,0,0,1-2.12,1.8,3.13,3.13,0,0,1-3.14-1.43c-.2-.31-.46-.58-.69-.88a5.48,5.48,0,0,0-2.25-1.88c-.37-.11-.48.18-.61.41a9.86,9.86,0,0,0-1,2.5,4.05,4.05,0,0,1-.4,1.17A4.6,4.6,0,0,0,78.31,59a16.66,16.66,0,0,0,.21,4.78c.1.4.12.88.58,1.1a4.94,4.94,0,0,0,1.74.3A37.31,37.31,0,0,0,86,65c1.17-.1,2.35-.11,3.53-.16,3.25-.16,6.5-.44,9.75-.7,1.62-.13,3.25-.26,4.88-.28,1.21,0,2.43-.18,3.65-.11s2.31,0,3.47,0a2.9,2.9,0,0,1,.93.12c.19.06.39.15.38.38s-.21.31-.4.36a14.75,14.75,0,0,1-2.38.3C109.24,65,108.66,65,108.09,65.12Z" transform="translate(-73.35 -26.38)"/><path class="cls-1" d="M84.37,94.25a11.62,11.62,0,0,1,0-5.53c.13-.51.31-1,.47-1.52a11.08,11.08,0,0,1,1.88-3.08,14.48,14.48,0,0,1,2.84-2.46,8.8,8.8,0,0,1,2-1h0a10.89,10.89,0,0,1,6.22-.59,11.38,11.38,0,0,1,5,2.13l.12.11c.31.18.52.5.82.71a10.07,10.07,0,0,1,2.14,11c-.18.35-.32.71-.47,1.07A11.2,11.2,0,0,1,98.15,101a14.89,14.89,0,0,1-4.2.47,11,11,0,0,1-3.16-.56,9.61,9.61,0,0,1-5-3.69h0A7.85,7.85,0,0,1,84.37,94.25Z" transform="translate(-73.35 -26.38)"/><path class="cls-1" d="M191.9,40.33a10.76,10.76,0,0,1-.1-6.38,8.8,8.8,0,0,0,.45-1.21c0-.09,0-.18.1-.23a25,25,0,0,1,1.45-2.23,10.17,10.17,0,0,1,3.44-2.81,9.76,9.76,0,0,1,2.36-.84,10.78,10.78,0,0,1,3.4-.18,11,11,0,0,1,8.53,5.21,2.92,2.92,0,0,0,.21.28,3.72,3.72,0,0,1,.47,1,11.37,11.37,0,0,1,.55,7.54,10.24,10.24,0,0,1-5.27,6.48,6.35,6.35,0,0,1-1.18.48h0a8.79,8.79,0,0,1-2,.48,12.34,12.34,0,0,1-6.3-.79,10.52,10.52,0,0,1-5.26-4.76C192.42,41.67,192.16,41,191.9,40.33Z" transform="translate(-73.35 -26.38)"/><path class="cls-1" d="M166.66,52.74a6.77,6.77,0,0,1-3.45,1.51,9.45,9.45,0,0,1-5.67-.68c-.22-.16-.48-.22-.71-.37a8.48,8.48,0,0,1-3-3,8.88,8.88,0,0,1-.84-1.76,10.62,10.62,0,0,1,2.54-11.17,8.2,8.2,0,0,1,4.43-2.16,7.87,7.87,0,0,1,4.71.59c1.27.58,2,1.75,3,2.68a7.61,7.61,0,0,1,1.88,3.21,6.2,6.2,0,0,1,.41,1.75C170.37,47,169.51,50.23,166.66,52.74Z" transform="translate(-73.35 -26.38)"/><path class="cls-2" d="M191.28,170.08c2,0,4,0,5.95.07,1.82.11,3.66,0,5.48.06,2.52.13,5,.06,7.54.1a2.54,2.54,0,0,0,.82-.11.55.55,0,0,0,.43-.66c-.26-2-.53-4-.78-6-.22-1.73-.41-3.45-.63-5.18-.17-1.31-.35-2.63-.52-3.94s-.36-2.87-.54-4.3-.41-2.94-.6-4.41-.39-2.91-.58-4.36c-.23-1.66-.5-3.32-.67-5s-.5-3.44-.65-5.18c-.08-.87-.28-1.73-.38-2.6-.17-1.49-.36-3-.55-4.48-.11-.93-.25-1.85-.37-2.78l-.57-4.24-.75-5.51c-.23-1.62-.44-3.25-.67-4.87-.08-.54,0-1.16-.71-1.4a.2.2,0,0,1,.27,0,.72.72,0,0,1,.53.69c.08.56.18,1.13.26,1.69.18.82.22,1.66.35,2.49.33,2.47.67,4.94,1,7.41.19,1.42.37,2.84.56,4.26.21,1.14.26,2.3.45,3.44.29,2.22.57,4.44.86,6.66l1.65,12.55c.14,1.11.3,2.22.46,3.32.15.87.23,1.74.34,2.61h0c.16.22,0,.49.11.72q.44,3.39.86,6.78.74,5.83,1.48,11.68a.71.71,0,0,1-.54.85,3.06,3.06,0,0,1-1,.16l-18.33-.4A5,5,0,0,1,191.28,170.08Z" transform="translate(-73.35 -26.38)"/><path class="cls-3" d="M151.44,71.15c-.12,1.8-.26,3.59-.47,5.37-.14,1.23-.17,2.46-.26,3.69-.13,1.87-.25,3.75-.45,5.61-.15,1.46-.25,2.92-.38,4.38-.19,2.24-.44,4.48-.55,6.72a50.29,50.29,0,0,0-.26,5.75c0,.52-.21.67-.64.69s-.94,0-1.41,0c.5-.07,1-.15,1.51-.19.27,0,.38-.09.37-.39a68.8,68.8,0,0,1,.43-8.12c.31-4,.78-8,1-11.93.17-2.47.33-4.94.55-7.41a41.7,41.7,0,0,1,.47-4.45A.24.24,0,0,1,151.44,71.15Z" transform="translate(-73.35 -26.38)"/><path class="cls-4" d="M213.16,86a3.32,3.32,0,0,1,1.49-.21c1.57-.08,3.13-.16,4.7-.28a3.31,3.31,0,0,0,1.23-.3,1.07,1.07,0,0,0-.89-.38c-1,0-2.06-.12-3.1,0-1.69.11-3.38,0-5.07,0,.07-.32.35-.29.56-.28,2.67,0,5.32-.22,8-.13.22,0,.42.08.64.08a1.48,1.48,0,0,0,2.25.3,1,1,0,0,1,.71-.2c-.63,1-1.66.76-2.57.88C218.47,85.83,215.82,85.91,213.16,86Z" transform="translate(-73.35 -26.38)"/><path class="cls-5" d="M108.09,65.12a4.22,4.22,0,0,1,1.41-.24c.79-.08,1.59-.15,2.37-.28.23,0,.63,0,.62-.32s-.44-.3-.66-.31c-.78-.06-1.56,0-2.34,0l-1.65,0c.15-.37.49-.27.76-.28,1.1,0,2.2,0,3.3-.09.43-.06.61-.22.65-.66s0-.76.37-1a2.87,2.87,0,0,1-.1,1.09,1.35,1.35,0,0,0,.82,1.64,13.11,13.11,0,0,0-2.73.28C110,65,109,65.17,108.09,65.12Z" transform="translate(-73.35 -26.38)"/><path class="cls-6" d="M102.77,82.25a17.25,17.25,0,0,0-4.49-2A7.79,7.79,0,0,0,95.6,80a11.91,11.91,0,0,0-3.69.63,1.32,1.32,0,0,1-.34,0,5.06,5.06,0,0,1,2.32-.7,9.59,9.59,0,0,1,3.92,0A16.29,16.29,0,0,1,101,81.11,4.13,4.13,0,0,1,102.77,82.25Z" transform="translate(-73.35 -26.38)"/><path class="cls-7" d="M134.88,42.43c-.32,2.34,1,4.15,2.06,6A25.68,25.68,0,0,0,139.55,52c0,.05,0,.14,0,.22a7.12,7.12,0,0,1-1.28-1.51,20.25,20.25,0,0,1-3.53-6.46A2.17,2.17,0,0,1,134.88,42.43Z" transform="translate(-73.35 -26.38)"/><path class="cls-8" d="M166.66,52.74c.32-.59.9-.94,1.29-1.48a10.27,10.27,0,0,0,1.91-4.85,20.42,20.42,0,0,0,0-3c0-.05.08,0,.11,0a.18.18,0,0,1,0,.1c.11.19,0,.42.1.61A10,10,0,0,1,167.59,52,2.44,2.44,0,0,1,166.66,52.74Z" transform="translate(-73.35 -26.38)"/><path class="cls-9" d="M100.29,155.66a8.43,8.43,0,0,1-.65,2.47c-.64,2.13-1.35,4.24-2,6.35a1,1,0,0,1-.26.52.3.3,0,0,1,0-.36c1-2.86,1.9-5.77,2.79-8.67A1.82,1.82,0,0,1,100.29,155.66Z" transform="translate(-73.35 -26.38)"/><path class="cls-10" d="M85.78,97.21a14.18,14.18,0,0,0,2.4,2.31,11.18,11.18,0,0,0,5.08,1.83l.69.11a9,9,0,0,1-4.73-1.11,9.91,9.91,0,0,1-3.06-2.44A1,1,0,0,1,85.78,97.21Z" transform="translate(-73.35 -26.38)"/><path class="cls-11" d="M151.44,71.15l0-.29c.13-1.5.27-3,.41-4.51l.21-2.52a3.45,3.45,0,0,0,0-1.32h0c-.13-.16-.43.1-.49-.22.78,0,.8.08.76.82-.07,1.39-.26,2.77-.4,4.15A26.78,26.78,0,0,1,151.44,71.15Z" transform="translate(-73.35 -26.38)"/><path class="cls-12" d="M176.91,109.39a8.15,8.15,0,0,1-.76-2.21,36.83,36.83,0,0,0-1.64-4.27,1.27,1.27,0,0,1-.06-.28,5.32,5.32,0,0,1,1,1.91c.53,1.48,1,3,1.5,4.49A.27.27,0,0,1,176.91,109.39Z" transform="translate(-73.35 -26.38)"/><path class="cls-13" d="M102.89,147.64c-.62,2.05-1.25,4.11-1.88,6.16a3,3,0,0,1-.22.48.11.11,0,0,1,0-.18c.61-2.17,1.28-4.33,2-6.46Q102.83,147.55,102.89,147.64Z" transform="translate(-73.35 -26.38)"/><path class="cls-14" d="M185.05,129.91a5.46,5.46,0,0,1-1,1.83c-.24.35-.33.06-.39-.15-.36-1.23-.71-2.45-1.07-3.67q.06-.08.12,0l1.15,3.72C184.38,131.08,184.56,130.39,185.05,129.91Z" transform="translate(-73.35 -26.38)"/><path class="cls-15" d="M164.63,35.73a10.76,10.76,0,0,0-4.71-.59,5.65,5.65,0,0,1,2.74-.1,10.42,10.42,0,0,1,1.47.33C164.33,35.43,164.56,35.49,164.63,35.73Z" transform="translate(-73.35 -26.38)"/><path class="cls-16" d="M102.89,147.64h-.12a45.74,45.74,0,0,1,1.41-4.39,4.71,4.71,0,0,1-.45,1.73C103.44,145.86,103.17,146.75,102.89,147.64Z" transform="translate(-73.35 -26.38)"/><path class="cls-17" d="M202.8,105.24l-.27,0a4,4,0,0,0-2.24,0,.92.92,0,0,0-.59.45s-.09,0-.13,0a1,1,0,0,1,.78-.64A3.12,3.12,0,0,1,202.8,105.24Z" transform="translate(-73.35 -26.38)"/><path class="cls-18" d="M121.77,131.32a12,12,0,0,1-.94,2.5,2.56,2.56,0,0,1-.6,1.18A27,27,0,0,1,121.77,131.32Z" transform="translate(-73.35 -26.38)"/><path class="cls-19" d="M86.72,84.12a27,27,0,0,0-1.88,3.08A6.41,6.41,0,0,1,86.72,84.12Z" transform="translate(-73.35 -26.38)"/><path class="cls-20" d="M75.85,52.12c-.36.73-.9,1.35-1.23,2.1-.18.4-.19.89-.55,1.21A6.44,6.44,0,0,1,75.85,52.12Z" transform="translate(-73.35 -26.38)"/><path class="cls-10" d="M84.37,94.25a19.26,19.26,0,0,0,1.42,3A5,5,0,0,1,84.37,94.25Z" transform="translate(-73.35 -26.38)"/><path class="cls-21" d="M181.17,55.9a26.44,26.44,0,0,1,2-2.48A8.74,8.74,0,0,1,181.17,55.9Z" transform="translate(-73.35 -26.38)"/><path class="cls-22" d="M117.17,140.93a16.82,16.82,0,0,1-1.75-2.28q.06-.08.12,0l1.65,2.12A.1.1,0,0,1,117.17,140.93Z" transform="translate(-73.35 -26.38)"/><path class="cls-23" d="M206,125.22a21,21,0,0,1-.45-3.44,4.22,4.22,0,0,1,.3,1.64A6.42,6.42,0,0,1,206,125.22Z" transform="translate(-73.35 -26.38)"/><path class="cls-24" d="M193.8,30.28a13.12,13.12,0,0,1-1.45,2.23A6.46,6.46,0,0,1,193.8,30.28Z" transform="translate(-73.35 -26.38)"/><path class="cls-25" d="M117.17,140.93l0-.16c.29.36.46.26.61-.14a3.81,3.81,0,0,1,.55-1.15,3.19,3.19,0,0,1-.66,1.66C117.37,141.64,117.32,141.05,117.17,140.93Z" transform="translate(-73.35 -26.38)"/><path class="cls-25" d="M119.29,137.22a5.66,5.66,0,0,1-1,2.26A10.41,10.41,0,0,1,119.29,137.22Z" transform="translate(-73.35 -26.38)"/><path class="cls-26" d="M151.52,62.29l.49.22a4,4,0,0,1-2.47-1.07A12.83,12.83,0,0,0,151.52,62.29Z" transform="translate(-73.35 -26.38)"/><path class="cls-16" d="M129,114.09a5.17,5.17,0,0,1-.95,2.25A10.34,10.34,0,0,1,129,114.09Z" transform="translate(-73.35 -26.38)"/><path class="cls-27" d="M209.28,59.79l-2.49-.59A5.28,5.28,0,0,1,209.28,59.79Z" transform="translate(-73.35 -26.38)"/><path class="cls-28" d="M199.6,26.63l-2.36.84A4.36,4.36,0,0,1,199.6,26.63Z" transform="translate(-73.35 -26.38)"/><path class="cls-29" d="M209.26,150.36a12.79,12.79,0,0,1-.34-2.61A7.45,7.45,0,0,1,209.26,150.36Z" transform="translate(-73.35 -26.38)"/><path class="cls-30" d="M203.94,110.11a12.35,12.35,0,0,1-.35-2.49A6.57,6.57,0,0,1,203.94,110.11Z" transform="translate(-73.35 -26.38)"/><path class="cls-6" d="M91.57,80.71l-2,1A3.63,3.63,0,0,1,91.57,80.71Z" transform="translate(-73.35 -26.38)"/><path class="cls-31" d="M191.9,40.33a8.49,8.49,0,0,1,.84,2A4.52,4.52,0,0,1,191.9,40.33Z" transform="translate(-73.35 -26.38)"/><path class="cls-32" d="M225.43,74.93l-.94-1.9A2.89,2.89,0,0,1,225.43,74.93Z" transform="translate(-73.35 -26.38)"/><path class="cls-19" d="M204.3,47.87a15.08,15.08,0,0,1,2-.48A3.16,3.16,0,0,1,204.3,47.87Z" transform="translate(-73.35 -26.38)"/><path class="cls-33" d="M199.57,105.72h.13a5.74,5.74,0,0,1-1.06,1.53A6.39,6.39,0,0,1,199.57,105.72Z" transform="translate(-73.35 -26.38)"/><path class="cls-34" d="M153,48.47a12.9,12.9,0,0,1,.84,1.76A3.09,3.09,0,0,1,153,48.47Z" transform="translate(-73.35 -26.38)"/><path class="cls-35" d="M177.4,59.82a7.79,7.79,0,0,1,1.28-1.35s0,.06,0,.09,0,0,0,0A5.26,5.26,0,0,1,177.4,59.82Z" transform="translate(-73.35 -26.38)"/><path class="cls-36" d="M177.74,112a7.1,7.1,0,0,1-.59-1.9s.08,0,.12,0l.5,1.64A.21.21,0,0,1,177.74,112Z" transform="translate(-73.35 -26.38)"/><path class="cls-37" d="M189.42,122.6a3.86,3.86,0,0,1-.93,1.55A4.46,4.46,0,0,1,189.42,122.6Z" transform="translate(-73.35 -26.38)"/><path class="cls-38" d="M127.1,90.14a5.33,5.33,0,0,1,1.91.56c0,.08-.08.1-.15,0A11.8,11.8,0,0,1,127.1,90.14Z" transform="translate(-73.35 -26.38)"/><path class="cls-39" d="M170,43.39h-.11l-.36-1.76A3.24,3.24,0,0,1,170,43.39Z" transform="translate(-73.35 -26.38)"/><path class="cls-40" d="M140.33,42.19l-1.2-.55c-.06,0-.06-.1,0-.14a3.47,3.47,0,0,1,1.52.73C140.54,42.28,140.43,42.31,140.33,42.19Z" transform="translate(-73.35 -26.38)"/><path class="cls-41" d="M125,83.18a5.24,5.24,0,0,1-1.54.84A3.43,3.43,0,0,1,125,83.18Z" transform="translate(-73.35 -26.38)"/><path class="cls-42" d="M102.89,43.51l-1.18-1.18A2.2,2.2,0,0,1,102.89,43.51Z" transform="translate(-73.35 -26.38)"/><path class="cls-9" d="M100.76,154.1l0,.18a2.72,2.72,0,0,1-.5,1.38A5.4,5.4,0,0,1,100.76,154.1Z" transform="translate(-73.35 -26.38)"/><path class="cls-43" d="M182.24,126.5a2.55,2.55,0,0,1-.47-1.54A4.37,4.37,0,0,1,182.24,126.5Z" transform="translate(-73.35 -26.38)"/><path class="cls-44" d="M177.74,112l0-.25a3.1,3.1,0,0,1,.44,1.55A6.73,6.73,0,0,1,177.74,112Z" transform="translate(-73.35 -26.38)"/><path class="cls-45" d="M182.7,127.92h-.12a3.65,3.65,0,0,1-.34-1.42A4.73,4.73,0,0,1,182.7,127.92Z" transform="translate(-73.35 -26.38)"/><path class="cls-46" d="M224.37,72.91a5.29,5.29,0,0,1-.93-1A1.6,1.6,0,0,1,224.37,72.91Z" transform="translate(-73.35 -26.38)"/><path class="cls-47" d="M206.31,47.4a3.38,3.38,0,0,1,1.18-.48A1.46,1.46,0,0,1,206.31,47.4Z" transform="translate(-73.35 -26.38)"/><path class="cls-48" d="M120.49,85.66l-.95.82A1.16,1.16,0,0,1,120.49,85.66Z" transform="translate(-73.35 -26.38)"/><path class="cls-24" d="M192.25,32.74A1.85,1.85,0,0,1,191.8,34,2.66,2.66,0,0,1,192.25,32.74Z" transform="translate(-73.35 -26.38)"/><path class="cls-49" d="M105.38,95.11a1.67,1.67,0,0,1,.47-1.07A1.8,1.8,0,0,1,105.38,95.11Z" transform="translate(-73.35 -26.38)"/><path class="cls-18" d="M120.23,135a1.25,1.25,0,0,1-.46,1.08A2.48,2.48,0,0,1,120.23,135Z" transform="translate(-73.35 -26.38)"/><path class="cls-50" d="M97.34,164.64V165c-.16.26-.1.61-.35.83A2.38,2.38,0,0,1,97.34,164.64Z" transform="translate(-73.35 -26.38)"/><path class="cls-51" d="M128.86,90.75l.15,0a3.29,3.29,0,0,1,1.05.37A2.21,2.21,0,0,1,128.86,90.75Z" transform="translate(-73.35 -26.38)"/><path class="cls-52" d="M103.71,83.07a2,2,0,0,1-.82-.71A1.29,1.29,0,0,1,103.71,83.07Z" transform="translate(-73.35 -26.38)"/><path class="cls-42" d="M148.35,60.63a1.63,1.63,0,0,1,.84.57A1.19,1.19,0,0,1,148.35,60.63Z" transform="translate(-73.35 -26.38)"/><path class="cls-53" d="M212.21,32.9a2.33,2.33,0,0,1-.47-1A1.1,1.1,0,0,1,212.21,32.9Z" transform="translate(-73.35 -26.38)"/><path class="cls-54" d="M140.33,42.19l.33,0c.19.18.49.19.63.43A1.52,1.52,0,0,1,140.33,42.19Z" transform="translate(-73.35 -26.38)"/><path class="cls-26" d="M152,62.51c.3.44.09.88,0,1.32Z" transform="translate(-73.35 -26.38)"/><path class="cls-39" d="M223.09,71.72a1.86,1.86,0,0,1-1-.47A1.36,1.36,0,0,1,223.09,71.72Z" transform="translate(-73.35 -26.38)"/><path class="cls-14" d="M185.53,129.1a.91.91,0,0,1-.48.82A1.53,1.53,0,0,1,185.53,129.1Z" transform="translate(-73.35 -26.38)"/><path class="cls-55" d="M176.46,48a1.73,1.73,0,0,1-.84.59A1.23,1.23,0,0,1,176.46,48Z" transform="translate(-73.35 -26.38)"/><path class="cls-56" d="M177.27,110.1h-.12l-.24-.7V109A2.7,2.7,0,0,1,177.27,110.1Z" transform="translate(-73.35 -26.38)"/><path class="cls-57" d="M178.68,58.61v-.14c.19-.2.32-.47.61-.55A1.46,1.46,0,0,1,178.68,58.61Z" transform="translate(-73.35 -26.38)"/><path class="cls-30" d="M139.14,41.5v.14a2.35,2.35,0,0,1-.94-.25A1.92,1.92,0,0,1,139.14,41.5Z" transform="translate(-73.35 -26.38)"/><path class="cls-58" d="M213.29,64.52a1.43,1.43,0,0,1-.38-.92A1.22,1.22,0,0,1,213.29,64.52Z" transform="translate(-73.35 -26.38)"/><path class="cls-27" d="M184.72,51.07a1.08,1.08,0,0,1,.47-.83A1.42,1.42,0,0,1,184.72,51.07Z" transform="translate(-73.35 -26.38)"/><path class="cls-59" d="M136.31,76.92a1.66,1.66,0,0,1-.84.23s0-.06,0-.08,0,0,0,0A1.42,1.42,0,0,1,136.31,76.92Z" transform="translate(-73.35 -26.38)"/><path class="cls-59" d="M156.83,53.2a.85.85,0,0,1,.71.37A1,1,0,0,1,156.83,53.2Z" transform="translate(-73.35 -26.38)"/><path class="cls-60" d="M112,134.18a.5.5,0,0,1-.33-.49C111.82,133.81,112,133.94,112,134.18Z" transform="translate(-73.35 -26.38)"/><path class="cls-61" d="M115.54,138.65h-.12c-.07-.16-.28-.25-.25-.46A.58.58,0,0,1,115.54,138.65Z" transform="translate(-73.35 -26.38)"/><path class="cls-21" d="M183.17,53.42a.6.6,0,0,1,.35-.48A.46.46,0,0,1,183.17,53.42Z" transform="translate(-73.35 -26.38)"/><path class="cls-29" d="M209.37,151.08a1,1,0,0,1-.11-.72C209.47,150.57,209.4,150.83,209.37,151.08Z" transform="translate(-73.35 -26.38)"/><path class="cls-62" d="M123.54,127.08c0,.2,0,.39-.25.47C123.31,127.36,123.33,127.17,123.54,127.08Z" transform="translate(-73.35 -26.38)"/><path class="cls-63" d="M135.47,77v.12l-.45.14C135.08,77.05,135.27,77,135.47,77Z" transform="translate(-73.35 -26.38)"/><path class="cls-39" d="M170.07,44.1c-.18-.18-.13-.4-.1-.61A.77.77,0,0,1,170.07,44.1Z" transform="translate(-73.35 -26.38)"/><path class="cls-64" d="M123.8,126.27a.46.46,0,0,1-.24.48A.51.51,0,0,1,123.8,126.27Z" transform="translate(-73.35 -26.38)"/><path class="cls-65" d="M130.06,119.66c1.42-3.09,2.68-6.24,4-9.37.6-1.41,1.21-2.82,1.78-4.24.16-.39.47-.38.77-.41,1.64-.18,3.28-.35,4.92-.5,3.74-.35,7.47-.72,11.21-1,2-.16,3.95-.33,5.93-.43,1.55-.08,3.11-.37,4.67-.51,2.61-.23,5.21-.44,7.81-.68a.63.63,0,0,1,.76.51c1.08,2.83,1.65,5.81,2.52,8.7,1.8,6,3.5,12,5.25,18.05.43,1.49.9,3,1.36,4.45.07.24.11.56.28.7.49.4.24.72,0,1.11L171.82,152l-.56,1a.5.5,0,0,0,.25.81,4.68,4.68,0,0,0,3.67-.14c.58-.24.62-.66.17-1.07-.23-.21,0-.29,0-.43s.21-.41.36-.59c1.37-2.26,2.75-4.52,4.12-6.79.18-.28.33-.58.49-.87.76-1.32,1.53-2.63,2.37-3.9l1.41-2.25c.14-.18.2-.41.35-.59,1-1.61,2-3.23,3-4.84a9.32,9.32,0,0,0,.57-1l.11-.22a21.08,21.08,0,0,1,1.46-2.47l4.53-7.45,1.23-2a5.8,5.8,0,0,0,.36-.59l4-6.61c.16-.17.22-.41.36-.59h0c.13-.15.25-.22.29.06.11.75.27,1.49.41,2.23.33,2.29.6,4.58,1,6.86s.69,4.6,1,6.9.66,4.8,1,7.2c.29,2,.6,4.07.88,6.1.22,1.57.45,3.14.67,4.7s.47,3.37.71,5.06.46,3.21.7,4.82.48,3.44.74,5.16c.23,1.52.49,3.05.67,4.58.13,1.14.36,2.27.52,3.42.09.65,0,.71-.58.71-1.77,0-3.53-.08-5.3-.14-1.33,0-2.66,0-4-.17-2.26-.13-4.52-.18-6.78-.23-4.68-.11-9.36-.25-14-.38l-9.38-.23-13.15-.35c-3.28-.09-6.56-.15-9.84-.26q-6.87-.23-13.74-.35c-4.25-.08-8.49-.22-12.74-.32l-12-.27c-2.18-.06-4.36-.13-6.54-.17-.43,0-.5-.12-.37-.52,1.7-5.6,3.61-11.14,5.4-16.71.59-1.81,1.23-3.61,1.71-5.45.39-1.53,1-3,1.39-4.52.25-.9.59-1.78.85-2.67a4.32,4.32,0,0,1,.16-.51c.13-.28.29-.44.53-.08a2.3,2.3,0,0,1,.35.47c1.22,1.6,2.47,3.17,3.78,4.7.79.9,1.52,1.84,2.24,2.8s2.71.92,3.2-.35c.57-1.5,1.29-2.94,1.91-4.42.37-.88.75-1.76,1.13-2.65.61-1.3,1.13-2.65,1.72-4a17.23,17.23,0,0,1,.81-1.81q1-2.14,1.89-4.35c.4-1.14.92-2.22,1.41-3.32h0a3.39,3.39,0,0,1,.2-.53,13,13,0,0,0,.58-1.38C129.7,120.63,129.81,120.11,130.06,119.66Z" transform="translate(-73.35 -26.38)"/><path class="cls-66" d="M149.52,58.86a56.51,56.51,0,0,1-9.33-10.62,3.83,3.83,0,0,0-.46-.72,11,11,0,0,1-1.91-4.11c0-.15-.15-.32,0-.44s.33,0,.48.11a14.31,14.31,0,0,1,2.38,1.48,15.47,15.47,0,0,0,1.3.95h0a5.53,5.53,0,0,0,.59.47A49.58,49.58,0,0,1,150,53.54c.73.9,1.42,1.83,2.13,2.75a6.62,6.62,0,0,0,1.16.89A3.74,3.74,0,0,0,156,58c3.36,0,6.71.31,10.07.41A4.6,4.6,0,0,0,169.68,57a81.83,81.83,0,0,1,8.78-7.86,21.67,21.67,0,0,1,4.42-2.69c.58-.25.71-.16.63.47a6.84,6.84,0,0,1-1.1,2.71,34.91,34.91,0,0,1-4.23,5.66,64.89,64.89,0,0,1-8.73,8.17,22.09,22.09,0,0,1-2.69,1.9.65.65,0,0,0-.38.65q0,3.6-.11,7.2c0,2.34-.06,4.68-.07,7,0,.47-.17.6-.61.63-2,.15-4,.36-5.91.68a17.15,17.15,0,0,1-2.67.37c-1.18.15-2.35.4-3.55.5l-.41,0c-.3,0-.42,0-.38-.39.13-1.15.3-2.29.43-3.44s.28-2.41.44-3.61c.24-1.76.37-3.54.56-5.3.14-1.32.26-2.65.4-4,.06-.58.11-1.16.12-1.75a2.14,2.14,0,0,0-.12-.75,2.56,2.56,0,0,0-1.5-1.55,10.15,10.15,0,0,1-1.82-1.36Z" transform="translate(-73.35 -26.38)"/><path class="cls-67" d="M154.51,83.66c2-.09,4-.33,6-.54l5.26-.58c.25,0,.33,0,.32.27,0,.08,0,.16,0,.23-.1,4.09.12,8.18.14,12.27,0,1.88.11,3.77.2,5.65,0,.49-.13.62-.61.66-2,.15-4.07.36-6.1.55a.35.35,0,0,1-.14-.28,28.44,28.44,0,0,1,0-4.23c.07-.82.09-1.65.12-2.46,0-1.1.12-2.19.17-3.29a1.3,1.3,0,0,0,0-.87,3.88,3.88,0,0,1,0-.76c0-.32,0-.62-.42-.65s-.49.3-.55.62c-.11.64-.15,1.28-.21,1.92-.12,1.3-.16,2.61-.25,3.92s-.14,2.61-.25,3.91a9.76,9.76,0,0,0-.16,1.31c0,.21-.12.4-.13.61a.51.51,0,0,1-.48.49c-1.73.1-3.46.22-5.17.47-.17.14-.38.07-.57.1-.35.06-.52-.09-.45-.47.49-2.49.66-5,1-7.53.23-1.7.38-3.41.52-5.12.16-1.92.36-3.84.57-5.76,0-.3.16-.4.45-.4A1.78,1.78,0,0,0,154.51,83.66Z" transform="translate(-73.35 -26.38)"/><path class="cls-68" d="M124.37,86.9c3.65-2.09,7.15-4.22,10.62-6.51,0,.5.1,1,.12,1.39q.13,3.91.25,7.83c0,.73,0,.74-.66.52-3.07-1-6.18-1.93-9.28-2.86C125.1,87.18,124.79,87.05,124.37,86.9Z" transform="translate(-73.35 -26.38)"/><path class="cls-69" d="M198.76,168.88c2.55,0,5.1.12,7.66.21.57,0,1.14,0,1.71,0,.38,0,.48-.13.42-.48-.28-1.85-.57-3.69-.84-5.53q-.83-5.69-1.63-11.37c-.5-3.44-1-6.87-1.49-10.31-.45-3.13-.88-6.26-1.33-9.39l-1.17-8.16-1.32-9.45c0-.27-.09-.54-.13-.81,0-.52-.29-1-.11-1.54.39.33.26.82.32,1.22.29,1.93.43,3.88.77,5.8.28,1.62.46,3.25.7,4.86s.5,3.32.72,5c.19,1.41.38,2.83.6,4.23.24,1.58.45,3.17.67,4.76.17,1.21.35,2.43.52,3.65l.66,4.57c.21,1.47.43,2.94.64,4.4l.66,4.64c.17,1.18.32,2.36.5,3.53.26,1.78.53,3.55.8,5.33.23,1.54.46,3.08.7,4.63.1.66,0,.73-.61.6a1.4,1.4,0,0,0-.41-.05c-2.33.08-4.67-.16-7-.15A5.73,5.73,0,0,1,198.76,168.88Z" transform="translate(-73.35 -26.38)"/><path class="cls-70" d="M154.5,63.19a2.51,2.51,0,0,1,.2,1.72c-.38,3.73-.76,7.45-1.17,11.17-.21,1.87-.47,3.73-.7,5.6-.1.74-.1.71.61.61,1.94-.27,3.89-.51,5.83-.77.14,0,.28,0,.41,0a2.06,2.06,0,0,1-1.39.34c-1.82.1-3.58.55-5.39.7-.32,0-.43-.08-.38-.4.37-2.49.65-5,.91-7.49.21-2,.43-4,.6-5.94.14-1.63.43-3.25.47-4.89Z" transform="translate(-73.35 -26.38)"/><path class="cls-71" d="M154.51,83.66l0,0c-.31.15-.79-.09-.94.18a3.12,3.12,0,0,0-.21,1.2c-.41,4-.72,8.05-1.25,12.06-.25,1.81-.38,3.63-.72,5.43,0,.23,0,.33.26.32h.65c-.15.2-.4.17-.59.22-.47.12-.67-.1-.57-.58.43-2,.57-4.1.8-6.15s.48-3.79.69-5.69c.11-1.05.16-2.1.26-3.15.1-1.21.24-2.41.35-3.61,0-.25.19-.27.37-.27Z" transform="translate(-73.35 -26.38)"/><path class="cls-72" d="M122.86,136.45c-1,2.5-2,5-3.19,7.39a1.13,1.13,0,0,1-.76.6,2.27,2.27,0,0,1-2.63-.84,28.46,28.46,0,0,1-2-2.57.86.86,0,0,1,.48.4c.59.73,1.14,1.49,1.77,2.18a1.79,1.79,0,0,0,2.54.5c.51-.23.58-.82.79-1.25.68-1.43,1.33-2.88,1.91-4.34.26-.64.58-1.25.78-1.9a.53.53,0,0,1,.24-.33A.11.11,0,0,1,122.86,136.45Z" transform="translate(-73.35 -26.38)"/><path class="cls-73" d="M110.55,136.33c-.7-.64-.69-.63-1,.28q-1,3.28-2.09,6.55a.87.87,0,0,1-.21.48,11,11,0,0,1,.8-3c.21-.74.45-1.48.7-2.21.32-.93.59-1.89.93-2.82.13-.36.29-.28.42,0S110.57,136,110.55,136.33Z" transform="translate(-73.35 -26.38)"/><path class="cls-2" d="M159.64,101.92l.07.25c-.1,0-.23,0-.23-.12,0-.51-.44-.51-.76-.52s-.7.07-.75.54-.26.4-.55.34c.53-.18.25-.74.49-1.06.37-.69.81-.81,1.55-.43C159.63,101.23,159.55,101.6,159.64,101.92Z" transform="translate(-73.35 -26.38)"/><path class="cls-74" d="M122.86,136.45l0-.16a7.23,7.23,0,0,1,.71-1.84c.41-1.09.9-2.14,1.36-3.21.1-.22.15-.5.43-.6-.4,1.32-1.06,2.52-1.57,3.79A14,14,0,0,1,122.86,136.45Z" transform="translate(-73.35 -26.38)"/><path class="cls-75" d="M182.72,140a36.83,36.83,0,0,1-2.37,3.9.76.76,0,0,1,.05-.34c.7-1.16,1.4-2.32,2.11-3.48C182.54,140,182.65,140,182.72,140Z" transform="translate(-73.35 -26.38)"/><path class="cls-76" d="M128.64,123a21.08,21.08,0,0,1-1.41,3.32,5.34,5.34,0,0,1,.78-2.11C128.17,123.77,128.17,123.23,128.64,123Z" transform="translate(-73.35 -26.38)"/><path class="cls-77" d="M189.57,128.64a17.6,17.6,0,0,1-1.46,2.47c-.09-.49.3-.8.52-1.13S189,128.93,189.57,128.64Z" transform="translate(-73.35 -26.38)"/><path class="cls-78" d="M200.53,112.1c-.07.52.21,1,.11,1.54a9.12,9.12,0,0,1-.35-2c0-.15,0-.34-.23-.25,0-.17.09-.27.19-.42C200.48,111.34,200.38,111.75,200.53,112.1Z" transform="translate(-73.35 -26.38)"/><path class="cls-79" d="M149.52,58.86a5.53,5.53,0,0,1,1.66,1.42A6.11,6.11,0,0,1,149.52,58.86Z" transform="translate(-73.35 -26.38)"/><path class="cls-80" d="M129.47,121.1a5.11,5.11,0,0,1-.6,1.4.18.18,0,0,1,0-.25,8.39,8.39,0,0,1,.6-1.42A.23.23,0,0,1,129.47,121.1Z" transform="translate(-73.35 -26.38)"/><path class="cls-81" d="M142,45.51a2.94,2.94,0,0,1-1.3-.95A3.8,3.8,0,0,1,142,45.51Z" transform="translate(-73.35 -26.38)"/><path class="cls-82" d="M129.47,121.1v-.27c.24-.36.23-.86.6-1.17A4.14,4.14,0,0,1,129.47,121.1Z" transform="translate(-73.35 -26.38)"/><path class="cls-83" d="M188,131.33a1.48,1.48,0,0,1-.57,1A1.93,1.93,0,0,1,188,131.33Z" transform="translate(-73.35 -26.38)"/><path class="cls-84" d="M139.73,47.52a.88.88,0,0,1,.46.72A1.24,1.24,0,0,1,139.73,47.52Z" transform="translate(-73.35 -26.38)"/><path class="cls-81" d="M142.57,46a.74.74,0,0,1-.59-.47A.93.93,0,0,1,142.57,46Z" transform="translate(-73.35 -26.38)"/><path class="cls-76" d="M128.86,122.25v.25a.66.66,0,0,1-.23.47A.78.78,0,0,1,128.86,122.25Z" transform="translate(-73.35 -26.38)"/><path class="cls-85" d="M184.48,137.13a.74.74,0,0,1-.35.59A.67.67,0,0,1,184.48,137.13Z" transform="translate(-73.35 -26.38)"/><path class="cls-86" d="M175.74,151.53a.69.69,0,0,1-.36.59A.74.74,0,0,1,175.74,151.53Z" transform="translate(-73.35 -26.38)"/><path class="cls-78" d="M200.06,111.39a.67.67,0,0,1-.36.59A.77.77,0,0,1,200.06,111.39Z" transform="translate(-73.35 -26.38)"/><path class="cls-87" d="M195.69,118.59a.67.67,0,0,1-.36.59A.75.75,0,0,1,195.69,118.59Z" transform="translate(-73.35 -26.38)"/><path class="cls-67" d="M220.71,84.49c-.19.17-.41.11-.62.11l-8.07.13c-.17,0-.35,0-.5.09-3.71.18-7.42.31-11.12.55s-7.11.33-10.67.31c-.61,0-1.21.06-1.82,0a1,1,0,0,1-1-.82,29,29,0,0,1-.69-7.49,8.85,8.85,0,0,1,.54-3.06c.65-1.71.44-1.62,2-.68A11.52,11.52,0,0,1,192,77.15a2.86,2.86,0,0,0,3.61,1.21,1.14,1.14,0,0,0,.87-1c.31-1.74.31-3.52.67-5.25.08-.41.17-.81.25-1.21a8,8,0,0,1,.47-1.43,21.42,21.42,0,0,1,5.9-7.67,2.44,2.44,0,0,1,.83-.47c1.94-.82,3.23.51,4,2.16a20.75,20.75,0,0,1,1.55,6.15c.18,1.3.36,2.61.57,3.9.29,1.79,1.15,2.4,3,2.16a3,3,0,0,0,1.94-1,6,6,0,0,1,2.6-2,1.82,1.82,0,0,1,2.48.83,7.08,7.08,0,0,1,1.08,4.62,23.37,23.37,0,0,1-1.16,5.16C220.45,83.76,220.29,84.16,220.71,84.49Z" transform="translate(-73.35 -26.38)"/><path class="cls-88" d="M197.82,69.48a5.11,5.11,0,0,1-.47,1.43A2.13,2.13,0,0,1,197.82,69.48Z" transform="translate(-73.35 -26.38)"/><path class="cls-89" d="M204.55,61.34a2.62,2.62,0,0,1-.83.47A.85.85,0,0,1,204.55,61.34Z" transform="translate(-73.35 -26.38)"/><path class="cls-67" d="M112.92,61.92a3.26,3.26,0,0,0-.21,1.2c0,.43-.13.59-.6.62-1.27.08-2.54.07-3.81.1a.67.67,0,0,0-.46.08c-3.36,0-6.71.24-10.06.54-1.64.15-3.29.29-4.93.38-3.6.19-7.19.37-10.78.51A7.26,7.26,0,0,1,78.94,65a1.8,1.8,0,0,1-.39-.84,14.66,14.66,0,0,1,0-7.06,18.52,18.52,0,0,1,1.14-3.26c.14-.25.3-.5.46-.74s.34-.24.52,0A9,9,0,0,1,83,55a14.43,14.43,0,0,1,1.13,1.35,3.39,3.39,0,0,0,4,.5,1.4,1.4,0,0,0,.53-.89c.35-1.55.66-3.12,1.08-4.65a11.79,11.79,0,0,1,6.22-7.54c1.52-.79,2-.63,3,.85.23.33.35.73.59,1.06a21.19,21.19,0,0,1,1.3,5.08c.21.9.22,1.83.47,2.72h0a1.68,1.68,0,0,0,.58.83,3.76,3.76,0,0,0,4.32-.46,11.69,11.69,0,0,1,3.16-2.34c1.44-.63,2.07-.39,2.72,1.06a13.84,13.84,0,0,1,1,4.75A24.93,24.93,0,0,1,112.92,61.92Z" transform="translate(-73.35 -26.38)"/><path class="cls-90" d="M78.58,57.09a28.94,28.94,0,0,0-.38,3.72A11.48,11.48,0,0,0,78.94,65a2.46,2.46,0,0,1-.7-1.74,18.22,18.22,0,0,1,.09-5.66A.69.69,0,0,1,78.58,57.09Z" transform="translate(-73.35 -26.38)"/><path class="cls-91" d="M83,55l-2.26-1.9A4.93,4.93,0,0,1,83,55Z" transform="translate(-73.35 -26.38)"/><path class="cls-92" d="M101.24,53.43a8.41,8.41,0,0,1-.47-2.72A10.92,10.92,0,0,1,101.24,53.43Z" transform="translate(-73.35 -26.38)"/><path class="cls-93" d="M99.47,45.63a2,2,0,0,1-.59-1.06A1.94,1.94,0,0,1,99.47,45.63Z" transform="translate(-73.35 -26.38)"/><path class="cls-92" d="M101.82,54.26a.82.82,0,0,1-.58-.83Z" transform="translate(-73.35 -26.38)"/><path class="cls-94" d="M90.28,84.6a11.72,11.72,0,0,1,2.87-2.23c3.56-1.79,6.48-.91,8.6,2.34a10,10,0,0,1-1,11.8,10.86,10.86,0,0,1-2.69,2.27c-3.14,1.87-6.07,1-8.26-1.56a9.43,9.43,0,0,1-1.53-2.71,7.45,7.45,0,0,1-.47-2.14,11,11,0,0,1,.91-5.2,5.52,5.52,0,0,0,.34-.69,1,1,0,0,0,.31-.63A7.12,7.12,0,0,1,90.28,84.6Z" transform="translate(-73.35 -26.38)"/><path class="cls-95" d="M87.79,92.37l.47,2.14A3.28,3.28,0,0,1,87.79,92.37Z" transform="translate(-73.35 -26.38)"/><path class="cls-96" d="M90.28,84.6l-.85,1.29c-.06.07-.09.17-.22.14A2.52,2.52,0,0,1,90.28,84.6Z" transform="translate(-73.35 -26.38)"/><path class="cls-97" d="M89.1,86.51c-.1.24-.13.52-.4.66a1.47,1.47,0,0,1,.38-.79.07.07,0,0,1,0,.08S89.11,86.51,89.1,86.51Z" transform="translate(-73.35 -26.38)"/><path class="cls-98" d="M89.1,86.51l0-.13c0-.12.09-.23.13-.35a1.64,1.64,0,0,0,.22-.14A.89.89,0,0,1,89.1,86.51Z" transform="translate(-73.35 -26.38)"/><path class="cls-94" d="M205,28.27l1.27.73a8.37,8.37,0,0,1,2.6,3.12,10.47,10.47,0,0,1,1,6.78,11.7,11.7,0,0,1-.94,2.88c-.24.27-.33.62-.56.89h0a6.46,6.46,0,0,1-.7.95,11.81,11.81,0,0,1-2,1.7A5.43,5.43,0,0,1,199,45a9.86,9.86,0,0,1-3.83-9,9.88,9.88,0,0,1,2-5.56,6.81,6.81,0,0,1,2.48-2,6.92,6.92,0,0,1,3.69-.7A6.48,6.48,0,0,1,205,28.27Z" transform="translate(-73.35 -26.38)"/><path class="cls-99" d="M208.9,41.82A11.79,11.79,0,0,0,210,37a10.06,10.06,0,0,0-3.46-7.74,2.73,2.73,0,0,1-.23-.25,4.75,4.75,0,0,1,1.92,1.8A10.37,10.37,0,0,1,210,35.19a8.51,8.51,0,0,1,.05,3.26A9.81,9.81,0,0,1,208.92,42,.1.1,0,0,1,208.9,41.82Z" transform="translate(-73.35 -26.38)"/><path class="cls-100" d="M205,28.27c-.06,0-.13,0-.18,0a5.92,5.92,0,0,0-5,.1.88.88,0,0,1-.17,0,5.47,5.47,0,0,1,3-.81A3.59,3.59,0,0,1,205,28.27Z" transform="translate(-73.35 -26.38)"/><path class="cls-101" d="M207.72,43.62a2.89,2.89,0,0,1,.71-.95A1.41,1.41,0,0,1,207.72,43.62Z" transform="translate(-73.35 -26.38)"/><path class="cls-101" d="M208.9,41.82l0,.16c-.18.22-.17.58-.5.69A1.94,1.94,0,0,1,208.9,41.82Z" transform="translate(-73.35 -26.38)"/><path class="cls-102" d="M163.34,52.24c-2.1.74-3.62.3-5.09-1.77-2.4-3.37-2.92-7-1-10.79a5.34,5.34,0,0,1,3.94-3.06,3.83,3.83,0,0,1,2.09.42,4.35,4.35,0,0,0,1,.36c.58.09.77.68,1.14,1.05a6,6,0,0,1,.53.69,8.39,8.39,0,0,1,1.38,3.68,7.45,7.45,0,0,1,0,2.54,9,9,0,0,1-.35,1.92h0a4.38,4.38,0,0,1-.49,1.41.29.29,0,0,0-.11.24c-.07.16-.08.35-.23.48h0a5.74,5.74,0,0,1-1.77,2.11l-.35.25A3.64,3.64,0,0,1,163.34,52.24Z" transform="translate(-73.35 -26.38)"/><path class="cls-103" d="M167,47.28a21.82,21.82,0,0,0,.32-3,9.64,9.64,0,0,0-.88-4,5.66,5.66,0,0,1-.51-1.12,2.23,2.23,0,0,1,.9,1.46,5.78,5.78,0,0,1,.56,1.87c0,1,.4,1.93.06,3-.12.36,0,.88-.11,1.32C167.3,46.94,167.32,47.24,167,47.28Z" transform="translate(-73.35 -26.38)"/><path class="cls-103" d="M164.4,51.52a23.81,23.81,0,0,0,1.77-2.11c.08.11,0,.19,0,.3a8.07,8.07,0,0,1-1.45,1.84C164.58,51.64,164.48,51.66,164.4,51.52Z" transform="translate(-73.35 -26.38)"/><path class="cls-103" d="M166.51,48.69a5.14,5.14,0,0,1,.49-1.41A1.34,1.34,0,0,1,166.51,48.69Z" transform="translate(-73.35 -26.38)"/><path class="cls-104" d="M163.34,52.24a1.28,1.28,0,0,1,.71-.47A.63.63,0,0,1,163.34,52.24Z" transform="translate(-73.35 -26.38)"/><path class="cls-103" d="M166.17,49.41a.46.46,0,0,1,.23-.48C166.52,49.18,166.48,49.36,166.17,49.41Z" transform="translate(-73.35 -26.38)"/><path class="cls-1" d="M140.66,132l4.26-4.73c1.21-1.34,2.45-2.66,3.64-4a1.74,1.74,0,0,1,1.76-.53c.43.06.6.37.71.76q1.49,5,3,9.93c.83,2.78,1.57,5.6,2.5,8.35a46.6,46.6,0,0,0,2.08,4.49.08.08,0,0,1,0,.05c.06.37.66.74,0,1.11a1.32,1.32,0,0,1-1.81-.4c-.4-.76-.71-1.58-1.13-2.33-1.67-2.94-2.39-6.22-3.37-9.41s-1.93-6.43-2.89-9.65c-.14-.47-.28-.55-.63-.15-.53.63-1.1,1.23-1.65,1.84a12.51,12.51,0,0,0-.84.94q-3.63,4-7.27,8l-.87,1a1.56,1.56,0,0,1-2.53,0c-1.48-1.73-3-3.39-4.45-5.18a3,3,0,0,0-.61-.71,4.43,4.43,0,0,0-.43-.54.43.43,0,0,1-.18-.46c.08-.19.29-.16.46-.18a1.12,1.12,0,0,1,1,.35c1.77,1.65,3.37,3.47,5,5.25.31.34.48.37.8,0,.71-.83,1.48-1.63,2.22-2.44A11.35,11.35,0,0,0,140.66,132Z" transform="translate(-73.35 -26.38)"/><path class="cls-105" d="M131.45,130.53a1.84,1.84,0,0,0-1.06-.26c-.35,0-.35.18-.19.4a8.75,8.75,0,0,0,.55.69c.08.07.07.14,0,.22-.37-.18-.47-.62-.9-.8-.25-.1-.05-.47.22-.61A1,1,0,0,1,131.45,130.53Z" transform="translate(-73.35 -26.38)"/><path class="cls-106" d="M140.66,132c-.2.62-.73.93-1.19,1.31A5.7,5.7,0,0,1,140.66,132Z" transform="translate(-73.35 -26.38)"/><path class="cls-107" d="M146.34,128.28a1.84,1.84,0,0,1,.84-.94A2.45,2.45,0,0,1,146.34,128.28Z" transform="translate(-73.35 -26.38)"/><path class="cls-108" d="M130.76,131.58v-.22c.17.22.45.38.47.71A1.35,1.35,0,0,1,130.76,131.58Z" transform="translate(-73.35 -26.38)"/><path class="cls-109" d="M159.64,101.92a1.62,1.62,0,0,1-.2-.92c-.23-.33,0-.68,0-1a4.48,4.48,0,0,0,.11-1.16c0-1.53.22-3.07.21-4.6,0-1,0-1.95,0-2.92a8.42,8.42,0,0,0,0-.87c0-.23,0-.52-.28-.56s-.33.26-.39.48,0,.55-.1.82c-.09.6,0,1.22-.16,1.82-.06.32,0,.53.42.46s.54.13.51.51c-.1,1.19-.08,2.39-.22,3.58-.08.68,0,1.37-.05,2.06-.32.21-.68.08-1,.13s-.26-.18-.26-.39c0-1.09.23-2.17.12-3.27.08-1.38.15-2.77.24-4.15,0-.59.13-1.17.2-1.75.05-.39.16-.74.67-.72s.66.32.63.79c0,.29,0,.59,0,.88a.94.94,0,0,1,0,.66c-.11,2.19-.24,4.37-.33,6.56C159.66,99.53,159.66,100.73,159.64,101.92Z" transform="translate(-73.35 -26.38)"/><path class="cls-16" d="M158.31,96.06a5.55,5.55,0,0,1,0,2c-.08.52,0,1-.07,1.59a1.45,1.45,0,0,1,1.18-.09c.11.15,0,.33.06.5,0,.73-.61.42-1,.5s-.47-.21-.48-.52Z" transform="translate(-73.35 -26.38)"/><path class="cls-110" d="M158.05,100.07c.13.61.62.28.95.34s.47,0,.45-.35c0-.06.07,0,.1,0l-.11.94a1.19,1.19,0,0,0-1.53.35A3.26,3.26,0,0,1,158.05,100.07Z" transform="translate(-73.35 -26.38)"/><path class="cls-111" d="M160,91.77v-.66A.57.57,0,0,1,160,91.77Z" transform="translate(-73.35 -26.38)"/><path class="cls-1" d="M98.57,91.24c-.53,0-1.06,0-1.59,0s-.6.11-.6.56a7.38,7.38,0,0,1-.7,2.84A1.65,1.65,0,0,1,94,95.79c-.38-.05-.58-.23-.49-.62.29-1.21-.24-2.33-.33-3.5,0-.25-.17-.27-.37-.27a25.11,25.11,0,0,1-3.1-.34l-.23,0c-.23-.08-.56-.11-.59-.41s.32-.37.54-.44a8.43,8.43,0,0,1,3.16-.23c.48,0,.7,0,.74-.6a22.23,22.23,0,0,1,.37-2.56c.14-.76.44-1,1.23-1a1.21,1.21,0,0,1,1.39,1,10.22,10.22,0,0,1,.12,2.47c0,.53.17.66.66.68,1.24.07,2.47.18,3.7.29.35,0,.86,0,.89.41s-.51.38-.83.45A12,12,0,0,1,98.57,91.24Z" transform="translate(-73.35 -26.38)"/><path class="cls-1" d="M196.78,36.84a13,13,0,0,0,3,.17c.39,0,.55-.06.58-.49.06-.9.17-1.8.28-2.7.09-.72.37-1,1.06-1s1.29.26,1.43.92a14.4,14.4,0,0,1,.32,3c0,.46.12.66.61.69,1.25.08,2.51.21,3.76.32h.23c.25.05.58.06.59.37s-.31.31-.53.35a17.38,17.38,0,0,1-3.88.24c-.55,0-.79.12-.74.71a7.13,7.13,0,0,1-.66,2.79.83.83,0,0,1-.89.61.92.92,0,0,1-1-.58,7.1,7.1,0,0,1-.66-3c.06-.58-.23-.72-.72-.72a10.27,10.27,0,0,1-2.91-.4L196.5,38c-.34-.13-.85-.2-.78-.66S196.34,36.92,196.78,36.84Z" transform="translate(-73.35 -26.38)"/><path class="cls-111" d="M159.55,100.06h-.1v-.47c0-1.74.11-3.48.23-5.21,0-.25.15-.6-.12-.76s-.6,0-.92.32a12.52,12.52,0,0,1,.23-2.86c.5-.36.67-.34,1,.12-.08,2.17-.16,4.33-.33,6.5C159.51,98.48,159.56,99.27,159.55,100.06Z" transform="translate(-73.35 -26.38)"/><path class="cls-112" d="M159.91,91.2a.93.93,0,0,0-1-.12c0-.27-.12-.57.11-.82a.53.53,0,0,1,.93,0Z" transform="translate(-73.35 -26.38)"/><path class="cls-113" d="M159.9,90.25a1,1,0,0,0-.93,0c0-.3.05-.58.46-.59S159.83,90,159.9,90.25Z" transform="translate(-73.35 -26.38)"/></svg>