<svg id="Layer_1" data-name="Layer 1" xmlns="http://www.w3.org/2000/svg" viewBox="0 0 241.6 174.19"><defs><style>.cls-1{fill:#2e282a;}.cls-2{fill:#7367ef;}.cls-3{fill:#e3572e;}.cls-4{fill:#76b941;}.cls-5{fill:#fec814;}.cls-6{fill:#17bdba;}</style></defs><path class="cls-1" d="M216.93,37c-1.33-5.9.66-10.63,5.07-14.4,5.21-4.43,11.42-5.53,18-4.69a19.24,19.24,0,0,1,13.84,8,15.26,15.26,0,0,1,3,10c-.07,1.06.26,1.36,1.23,1.19,3.07-.56,6.19-.3,9.28-.43a7.2,7.2,0,0,1,3.09.38,1.36,1.36,0,0,1,1,1.52q-.81,13.27-1.86,26.53c-.55,7-1,14.07-1.56,21.1l-2.22,29.56q-1,12.95-2,25.9c-.59,7.66-1.21,15.31-1.8,23q-.81,10.4-1.55,20.78c-.15,2.1-.65,2.67-2.8,2.73-1.43,0-2.87,0-4.3,0q-20.64-.52-41.28-1-28.08-.72-56.15-1.48-23.16-.62-46.31-1.24-29.13-.81-58.25-1.68-9.53-.28-19.06-.6a7.1,7.1,0,0,1-1.44-.24,1.27,1.27,0,0,1-1-1.44q0-50.25,0-100.48c0-13.37,0-26.75,0-40.12a1.67,1.67,0,0,1,1.49-1.89,8.71,8.71,0,0,1,1.77-.17q32-.11,64-.2a1.83,1.83,0,0,0,1.74-1c4.25-6.49,8.61-12.89,13.24-19.11a5.12,5.12,0,0,1,4.46-2.3c6.64-.12,13.27-.31,19.91-.48,8.66-.22,17.32-.46,26-.67,1.29,0,2.58,0,3.87,0a2.64,2.64,0,0,1,2.33,1.33c4.43,7.07,8.92,14.1,13.37,21.16a1.13,1.13,0,0,0,1.06.66q16.77-.07,33.54-.11A1.41,1.41,0,0,0,216.93,37Z" transform="translate(-29.83 -13.94)"/><path class="cls-2" d="M222.07,83.16H185c-1.78,0-3.56.08-5.34.18a1.55,1.55,0,0,1-1.49-.71A53,53,0,0,0,160.47,67c-.41-.22-.86-.36-.78-1.05.05-.46-.5-.73-.87-1a38.7,38.7,0,0,0-9.63-4.3,60.75,60.75,0,0,0-22.25-2.48A52.72,52.72,0,0,0,95.27,71.29,44.53,44.53,0,0,0,84,85.56a.87.87,0,0,1-1,.58c-8.24-.33-16.48-.41-24.72-.56-7.41-.14-14.81-.11-22.21-.11-.72,0-1-.17-1-.92q.15-21.69.22-43.37c0-.9.3-1.08,1.14-1.08Q64,40,91.41,39.89A52.51,52.51,0,0,1,99,40c1.84.24,2.49-1.12,3.32-2.18,3.9-5,8-9.74,11.78-14.84,1.15-1.58,2.33-3.14,3.46-4.73a1.35,1.35,0,0,1,1.21-.63q12.47-.33,24.92-.72c6.5-.19,13-.37,19.48-.6a1.52,1.52,0,0,1,1.56.88c3.52,5.78,7.08,11.54,10.63,17.31A53.2,53.2,0,0,0,178.69,39a1.14,1.14,0,0,0,1,.5c14.57-.1,29.13-.13,43.7-.29,6.77-.08,13.55-.09,20.33-.18,3.94-.06,7.89,0,11.83-.16,3-.1,6,.66,9.08.38.49,0,.58.19.53.64-1,8.6-1.43,17.24-2.16,25.86-.43,5.14-.78,10.29-1.11,15.45-.06,1-.31,1.32-1.4,1.33-10.8,0-21.59.13-32.38.21-2,0-4.05,0-6.08,0Z" transform="translate(-29.83 -13.94)"/><path class="cls-2" d="M34.88,155V131.78c0-1.61,0-1.66,1.66-1.65,3.46,0,6.91.1,10.37.1,11.39,0,22.78,0,34.17,0A2.71,2.71,0,0,1,84,131.91C93.19,149.4,107.56,160,127,163.39a53.77,53.77,0,0,0,33.85-4.86A48.5,48.5,0,0,0,185,132.44a1.81,1.81,0,0,1,2-1.37q20.49-.06,41-.23c8.14-.08,16.27-.25,24.41-.39,1.61,0,3.21-.08,4.82-.19.8-.06,1,.17,1,1-.32,4.07-.6,8.14-.9,12.21l-1,13.15q-.72,9.66-1.43,19.31c-.22,2.89-.45,5.78-.63,8.67,0,.67-.29.78-.9.75q-6.08-.21-12.15-.37l-26.81-.67-22.83-.59L164.73,183l-24.09-.61-26-.65-16.87-.41-27.34-.64q-9.42-.21-18.85-.39c-5.31-.12-10.62-.26-15.92-.35-.82,0-1-.24-1-1.06,0-8,0-15.92,0-23.88Z" transform="translate(-29.83 -13.94)"/><path class="cls-3" d="M180.29,85.65h1.33q39.47,0,78.92-.05c1,0,1,.45,1,1.19-.41,4.9-.82,9.8-1.2,14.7-.25,3.23-.45,6.47-.69,9.7-.41,5.67-.85,11.34-1.24,17-.06.81-.58.63-1,.63-4.61,0-9.22-.11-13.83-.11-5.89,0-11.79,0-17.68.07-4.41,0-8.81,0-13.21.09-7.75.21-15.51.08-23.26.19-.77,0-1.54.05-2.3.12s-.82-.17-.61-.84a48.12,48.12,0,0,0,1.75-8.59,51.62,51.62,0,0,0-1-17.35,53,53,0,0,0-6.37-15.76C180.69,86.39,180.55,86.12,180.29,85.65Z" transform="translate(-29.83 -13.94)"/><path class="cls-4" d="M137,161.36a48.93,48.93,0,0,1-30.45-10.9A51.86,51.86,0,0,1,88.27,122,53.79,53.79,0,0,1,87,103.56,44.49,44.49,0,0,1,91.9,86.38c6.71-12.61,16.8-20.93,30.91-24a42.39,42.39,0,0,1,22,.94A98,98,0,0,1,154,66.72a4.48,4.48,0,0,0,1.59.48c2.23,0,3.71,1.52,5.28,2.72a56,56,0,0,1,17.3,21.19,53.29,53.29,0,0,1,4.74,17A49.11,49.11,0,0,1,177.36,137a45.67,45.67,0,0,1-25.06,21.71A43.19,43.19,0,0,1,137,161.36Z" transform="translate(-29.83 -13.94)"/><path class="cls-3" d="M82.71,88.32c-6.13,13.34-5.82,26.86-.29,40.44-1.68,0-3.25,0-4.81,0-7.4-.22-14.8-.3-22.2-.43-6-.11-12.09-.1-18.13-.16-2.38,0-2.39,0-2.38-2.34,0-6,0-12.08.09-18.12s.09-12.22.13-18.33c0-.83.22-1.05,1.05-1q17.61.14,35.22,0C75.12,88.29,78.85,88.32,82.71,88.32Z" transform="translate(-29.83 -13.94)"/><path class="cls-4" d="M236.65,37c-4.4,0-8.8,0-13.2,0-.82,0-1-.18-.78-1,.31-1,.44-2,.72-3,1.54-5.49,4.68-9.61,10.23-11.54a10.39,10.39,0,0,1,8.66,1c5.31,2.89,8,7.45,8.57,13.4.08.88-.14,1.2-1.11,1.19-4.36-.06-8.73,0-13.09,0Z" transform="translate(-29.83 -13.94)"/><path class="cls-1" d="M123.74,34.66a13,13,0,0,1-3.13-.16c-1.35-.31-1.69-.69-1.77-2a61.33,61.33,0,0,1-.1-8.68,1.41,1.41,0,0,1,.85-1.31,5.32,5.32,0,0,1,2.32-.52l32.48-.06c2.57,0,3.27.68,3.59,3.2.17,1.28.32,2.57.6,3.83.24,1.07-.48,2.15.19,3.23.2.33-.42.56-.78.67a16.72,16.72,0,0,1-3.91.64c-3.24.22-6.48.46-9.72.57C137.42,34.28,130.47,34.46,123.74,34.66Z" transform="translate(-29.83 -13.94)"/><path class="cls-1" d="M171.82,113.31c-.08,8.82-2.38,16.94-7.79,24a31.55,31.55,0,0,1-20.65,12.41c-11.61,1.87-22.13-.81-31.21-8.36-8.45-7-13.35-16.15-15.23-26.92a39.38,39.38,0,0,1,3.57-25.12,33.06,33.06,0,0,1,13.83-14.17,34,34,0,0,1,16.33-4.26c2.58,0,5.16-.12,7.6.93,3.11,1.34,6.5,1.77,9.58,3.22a40.32,40.32,0,0,1,9.55,6.16,41.92,41.92,0,0,1,14.42,32.08Z" transform="translate(-29.83 -13.94)"/><path class="cls-5" d="M152.72,31.12c-2.85,0-5.56-.05-8.28,0q-9.16.21-18.33.53c-.62,0-.75-.1-.67-.7a25.81,25.81,0,0,0,.24-5.12c-.06-.84.25-1,1-1,7.41,0,14.81,0,22.22-.08,2.13,0,2.12,0,2.58,2.09A26.76,26.76,0,0,0,152.72,31.12Z" transform="translate(-29.83 -13.94)"/><path class="cls-6" d="M167,114.15c-.17,9-3.1,17.65-10,24.66a27.11,27.11,0,0,1-18.79,8.56A25.88,25.88,0,0,1,125,144a38.47,38.47,0,0,1-18.3-21.25,39.4,39.4,0,0,1-2.53-15.5c.42-9.5,3.51-18,10.2-24.9a25.67,25.67,0,0,1,18.85-8.26,34.28,34.28,0,0,0,3.65-.16c2.63-.28,4.92.89,7.18,2,9,4.22,15.18,11.24,19.15,20.23A43.89,43.89,0,0,1,167,114.15Z" transform="translate(-29.83 -13.94)"/><path class="cls-1" d="M110.64,105.71a21,21,0,0,1,18.28-21,13.45,13.45,0,0,1,5.91.43c.41.14,1,.21,1,.75s-.7.53-1.12.57a17.09,17.09,0,0,0-5.09,1.14c-5,2.1-8.22,5.92-10.4,10.7a24.93,24.93,0,0,0-2.5,11.24c0,.93.08,1.87.18,2.8a.87.87,0,0,1-.56,1,4.42,4.42,0,0,1-3.84,0,1.27,1.27,0,0,1-.65-.76A20.18,20.18,0,0,1,110.64,105.71Z" transform="translate(-29.83 -13.94)"/></svg>