<svg id="Layer_1" data-name="Layer 1" xmlns="http://www.w3.org/2000/svg" viewBox="0 0 110.53 160.36"><defs><style>.cls-1{fill:#2e282a;}.cls-2{fill:#a5a2a3;}.cls-3{fill:#7a7778;}.cls-4{fill:#dad9da;}.cls-5{fill:#bbb9b9;}.cls-6{fill:#cbc9ca;}.cls-7{fill:#fec814;}.cls-8{fill:#fefefa;}.cls-9{fill:#17bdba;}.cls-10{fill:#e3572e;}.cls-11{fill:#fdc814;}.cls-12{fill:#353032;}.cls-13{fill:#463e3d;}.cls-14{fill:#2d5152;}.cls-15{fill:#ae8b1c;}</style></defs><path class="cls-1" d="M169.7,114.52a.14.14,0,0,0,.11,0,5.69,5.69,0,0,1,.89.27l1.73.74a3.68,3.68,0,0,1,1,.69,1.27,1.27,0,0,1,0,2.11,11.86,11.86,0,0,1-1,.74c-.11.08-.31.17-.06.29a6.76,6.76,0,0,0,.68.22,6.57,6.57,0,0,1,1.78.88c.84.65.86,1.32.05,2a3.54,3.54,0,0,1-1.07.64c-.13.13-.5,0-.4.39a1,1,0,0,1,.65.9,14.3,14.3,0,0,1,.14,2.77c0,2.44-.11,4.89-.14,7.33s0,4.78,0,7.17c0,.28-.2.4-.29.59a32,32,0,0,1-4.29,6.15c-8.07,10.21-16.34,20.25-24.56,30.34-.65.8-1.35,1.56-2,2.34a1.81,1.81,0,0,1-.32.3,4.6,4.6,0,0,1-4.35-.37c-2.88-2.9-5.47-6.06-8.14-9.15q-9.13-10.63-18.58-21a67.51,67.51,0,0,1-5.1-6.1c-.18-.26-.37-.52-.52-.79a.93.93,0,0,0-.73-.59c-.92-.15-.93-.24-1-1.29-.12-1.69-.26-3.39-.41-5.09-.2-2.18-.12-4.37-.12-6.56,0-1.64,0-3.28,0-4.92a.58.58,0,0,0-.39-.64l-.11-.07c-1.24-.8-1.27-1.67,0-2.46a17.46,17.46,0,0,1,1.72-.89.28.28,0,0,1,.29-.07c-.17-.09-.37-.08-.54-.18a10.72,10.72,0,0,1-3.75-1.66,1.26,1.26,0,0,1-.09-2c.36-.42.9-.61,1.29-1-.72-.33-1.44-.63-2.13-1a2.13,2.13,0,0,1-1.06-1c-.29-.73.13-1.21.66-1.61.28-.2.25-.3,0-.49A46.06,46.06,0,0,1,87,98.21a51.72,51.72,0,0,1-6.92-18.59,46.28,46.28,0,0,1,2.44-24.16C87.84,41.59,97.54,31.93,111,26a56.32,56.32,0,0,1,24.51-4.59c13.39.4,25.42,4.62,35.71,13.25a50.49,50.49,0,0,1,18.1,31.58c2.42,15.32-1.76,28.88-11.63,40.75a20.8,20.8,0,0,1-4,3.86c-.18.13-.38.25-.26.56a1.12,1.12,0,0,1-.44,1.28,6.49,6.49,0,0,1-2.62,1.35,2.06,2.06,0,0,0-.72.33c-.18.06-.34-.08-.51,0s0,.1,0,0A.62.62,0,0,1,169.7,114.52Z" transform="translate(-79.5 -21.42)"/><path class="cls-2" d="M173.11,119.59c-.26,0-.48-.1-.72-.15-.09,0-.24-.13-.23-.16a.27.27,0,0,1,.33-.2C172.42,119.58,173,119.26,173.11,119.59Z" transform="translate(-79.5 -21.42)"/><path class="cls-3" d="M173.47,123.51c-.11,0-.48.08-.17-.22a.63.63,0,0,1,.57-.17C173.78,123.29,173.52,123.3,173.47,123.51Z" transform="translate(-79.5 -21.42)"/><path class="cls-4" d="M170.7,114.8a2,2,0,0,1-.89-.27A1,1,0,0,1,170.7,114.8Z" transform="translate(-79.5 -21.42)"/><path class="cls-5" d="M169.7,114.52a.82.82,0,0,1-.6-.19c.25-.17.43,0,.61.08A.45.45,0,0,1,169.7,114.52Z" transform="translate(-79.5 -21.42)"/><path class="cls-6" d="M104.61,121.22a2.1,2.1,0,0,1,.36,0c.08,0,.24,0,.17.18s-.18.08-.28,0Z" transform="translate(-79.5 -21.42)"/><path class="cls-7" d="M185.84,77.58c-.1,8.62-3.54,18.82-10.62,27.74-1.16,1.47-2.47,2.82-3.7,4.24a.53.53,0,0,1-.65.17,46.23,46.23,0,0,0-10.18-1.79c-5.14-.5-10.3-.61-15.45-.7-.51,0-.57-.12-.48-.61a66.64,66.64,0,0,1,2.47-9.85c.27-.77.61-1.52.89-2.29a.75.75,0,0,1,.74-.55,10.79,10.79,0,0,0,3.48-.87A6.24,6.24,0,0,0,156,88.93c.45-1.6-.11-2.88-2.09-2.86A7.42,7.42,0,0,0,150,87.4,11.28,11.28,0,0,0,146,92a.6.6,0,0,1-.83.38A14,14,0,0,1,138.1,88a.66.66,0,0,1,0-.94,17.61,17.61,0,0,0,2.5-8.44,8,8,0,0,0-.32-2.62,1.91,1.91,0,0,0-1.52-1.44,3.67,3.67,0,0,0-3.11.66,8.46,8.46,0,0,0-3.67,8.39,7.87,7.87,0,0,0,1.72,3.8.57.57,0,0,1,0,.86,20.39,20.39,0,0,1-3.9,3.4c-.38.26-.49,0-.71-.18a14.58,14.58,0,0,0-9.45-3.78,4.49,4.49,0,0,0-2.5.79,1.65,1.65,0,0,0-.77,1.85,4.88,4.88,0,0,0,2.75,3.34,12.55,12.55,0,0,0,8.4,1.17.82.82,0,0,1,1.06.53,17.05,17.05,0,0,1,1.86,7.34c0,1.43.08,2.86.15,4.29,0,.39,0,.56-.48.58-4,.26-8,.52-12,1-5.42.63-10.84,1.21-16,3a.54.54,0,0,1-.67-.13A60.93,60.93,0,0,1,90.71,98.14a48.5,48.5,0,0,1-5.7-17A52.63,52.63,0,0,1,84.62,70a49.8,49.8,0,0,1,40.51-45.62,48.67,48.67,0,0,1,34.24,5.88A51.49,51.49,0,0,1,181,53.46C184.22,60.22,185.87,67.35,185.84,77.58Z" transform="translate(-79.5 -21.42)"/><path class="cls-8" d="M108.45,143.14a81.94,81.94,0,0,0,8.9-6.9.83.83,0,0,1,1.23,0c3,2.18,6.08,4.24,9.23,6.19a3,3,0,0,0,2.11.42c.41-.07.85-.13,1-.64,0-.1.17-.18.27-.26a52.85,52.85,0,0,0,5.81-5.78c.29-.33.39-.28.64,0,1.8,1.9,3.75,3.64,5.67,5.4a8.87,8.87,0,0,0,3.1,1.89,3.3,3.3,0,0,0,3.28-.54,46.93,46.93,0,0,0,5.34-4.62.61.61,0,0,1,.76-.21c4.66,1.66,9.34,3.26,14.05,4.76l.19.07c-.07.32-.36.46-.54.66-3.68,4.09-7.1,8.39-10.55,12.67q-4.31,5.34-8.6,10.69a.84.84,0,0,1-.75.33c-6.32-.24-12.63,0-19,.09a1.27,1.27,0,0,1-1.06-.52c-5.76-6.49-11.36-13.12-17.08-19.65A38.36,38.36,0,0,0,108.45,143.14Z" transform="translate(-79.5 -21.42)"/><path class="cls-9" d="M171.62,123.9c.23,0,.11.17.1.26a58.77,58.77,0,0,0-.25,8.39c0,2.63-.15,5.26-.2,7.89,0,0,0,0,0,.06,0,1.16,0,1.16-1.15.71-4.26-1.72-8.52-3.41-12.84-5a4.68,4.68,0,0,0-2.72-.25,4.19,4.19,0,0,0-1.23.72,41.74,41.74,0,0,0-5.6,4.2c-.34.29-.5.19-.76-.06a76.09,76.09,0,0,0-7-6.19,5.52,5.52,0,0,0-3.79-1.31,3,3,0,0,0-1.79.82c-2,1.71-3.42,4-5,6.06-.24.3-.37.35-.69.1-2.73-2.05-5.53-4-8.41-5.82a6.62,6.62,0,0,0-2.53-.93,4.15,4.15,0,0,0-3.56,1.26c-2.16,2-4.61,3.67-6.69,5.77a1,1,0,0,1-.19.1c0-.7,0-1.36,0-2,.32-4-.2-8-.33-12,0-.46,0-.61.52-.51a64.83,64.83,0,0,0,8.33,1c5.29.38,10.59.51,15.9.44,4.82-.06,9.64-.19,14.45-.49s9.9-.7,14.82-1.37c.25,0,.5-.09.75-.13a23.67,23.67,0,0,1,2.52-.43,16.34,16.34,0,0,0,3.09-.73,4.32,4.32,0,0,0,1.46-.43.74.74,0,0,1,.76,0c.27.21.59.12.89.12A11.3,11.3,0,0,0,171.62,123.9Z" transform="translate(-79.5 -21.42)"/><path class="cls-10" d="M165.63,124.12l-4.31.54c-2.52.35-5,.61-7.58.82-6,.48-12.05.78-18.09.82-3.37,0-6.74,0-10.11,0a121,121,0,0,1-15.09-1.1,19,19,0,0,1-4.7-1.15c-.21-.1-.47-.15-.5-.42s.22-.41.41-.52a12.14,12.14,0,0,1,3.51-1.19,102.59,102.59,0,0,1,12.71-1.93q6.31-.6,12.64-.89c4.95-.22,9.89-.39,14.84-.32,4.52.07,9,.21,13.55.62a48.76,48.76,0,0,1,8.15,1.23,5.45,5.45,0,0,1,1.18.46c.51.28.52.53,0,.87a9.55,9.55,0,0,1-2.19,1c-.39.14-1,.11-1,.75-.09.38-.41.29-.65.29-.66,0-1.3.11-1.94.18C166.19,124.19,165.91,124,165.63,124.12Z" transform="translate(-79.5 -21.42)"/><path class="cls-10" d="M169.88,118.76c-2.07-.32-4-.57-6-.75s-3.77-.33-5.66-.42c-6.27-.28-12.55-.25-18.82-.12-4.27.08-8.53.35-12.79.68-4.43.33-8.84.77-13.23,1.42a44,44,0,0,0-6.11,1.21.86.86,0,0,1-.81-.15,7.24,7.24,0,0,0-1.27-.54,4.72,4.72,0,0,1-1.57-.9c-.49-.49-.48-.83,0-1.28a8.22,8.22,0,0,1,3-1.35,49.17,49.17,0,0,1,8.14-1.66c4.61-.69,9.24-1.05,13.87-1.35,3.72-.24,7.45-.26,11.17-.35,2.89-.06,5.77,0,8.65.08a113.12,113.12,0,0,1,17.82,1.65,14,14,0,0,1,4.67,1.47c1,.61,1.05,1.2,0,1.87A2.29,2.29,0,0,1,169.88,118.76Z" transform="translate(-79.5 -21.42)"/><path class="cls-10" d="M146.44,108.42c3.08,0,6.95,0,10.82.31A72.33,72.33,0,0,1,168,110.1a7.64,7.64,0,0,1,3.16,1.3c.4.32.4.7-.07,1.09a7.94,7.94,0,0,1-1.87,1c-.24.11-.59.14-.53.59,0,.24-.19.1-.3.08-2.11-.48-4.25-.83-6.4-1.1-2.42-.31-4.85-.53-7.28-.69-6.3-.43-12.62-.52-18.93-.39-5.2.11-10.39.37-15.56.88a87.14,87.14,0,0,0-15.7,2.72,4.24,4.24,0,0,1-2.73-1.06.45.45,0,0,1,.34-.76c.42,0,.92.11.85-.63,0-.18.28-.22.45-.29a38.52,38.52,0,0,1,7.32-1.86c4.33-.8,8.69-1.3,13.07-1.69,3.42-.31,6.84-.47,10.26-.64C137.94,108.48,141.79,108.43,146.44,108.42Z" transform="translate(-79.5 -21.42)"/><path class="cls-7" d="M138,107.43c-1.33,0-2.66,0-4,0-.41,0-.49-.07-.48-.51.16-3.85.08-7.68-1.61-11.27-.24-.51-.5-1-.77-1.51-.12-.21-.21-.32.08-.47a17.51,17.51,0,0,0,4.51-3.42c.23-.23.37-.22.61,0a17.35,17.35,0,0,0,8.13,3.54c.51.09.54.22.36.67a31.71,31.71,0,0,0-2.31,10.43,13.82,13.82,0,0,0-.08,1.7c0,.5-.06.68-.61.66-1.28,0-2.57,0-3.85,0Z" transform="translate(-79.5 -21.42)"/><path class="cls-11" d="M126.83,92.94a5.77,5.77,0,0,1-5.41-1.17A3.48,3.48,0,0,1,120.33,90a.61.61,0,0,1,.06-.65c.17-.17.37,0,.53,0a14,14,0,0,1,4.79,2.34A7.94,7.94,0,0,1,126.83,92.94Z" transform="translate(-79.5 -21.42)"/><path class="cls-11" d="M136,84.3a8.35,8.35,0,0,1,1.81-8,15,15,0,0,1-1.57,7.85C136.14,84.25,136.11,84.39,136,84.3Z" transform="translate(-79.5 -21.42)"/><path class="cls-11" d="M149,92.5a10.89,10.89,0,0,1,3.89-4.72c.17-.1.39-.32.56-.19s.13.39.1.59A4.94,4.94,0,0,1,150.72,92,5.43,5.43,0,0,1,149,92.5Z" transform="translate(-79.5 -21.42)"/><path class="cls-12" d="M165.63,124.12a1.35,1.35,0,0,1,.76-.13,1.41,1.41,0,0,1,.84,0c.38.1.46.31.2.62a39.19,39.19,0,0,1-5.69,1c.35-.45.89-.24,1.34-.35,1-.23,2-.35,3-.52.22,0,.53,0,.53-.32s-.33-.15-.5-.22A3.52,3.52,0,0,0,165.63,124.12Z" transform="translate(-79.5 -21.42)"/><path class="cls-13" d="M167.43,124.63c.13-.34,0-.51-.36-.55l-.67-.09a6.51,6.51,0,0,1,2-.25c.21,0,.46.11.64-.11l.51.37c-.52-.06-.86.4-1.34.47C168,124.51,167.7,124.58,167.43,124.63Z" transform="translate(-79.5 -21.42)"/><path class="cls-14" d="M171.62,123.9a1.8,1.8,0,0,1-1.16.22A2.32,2.32,0,0,1,171.62,123.9Z" transform="translate(-79.5 -21.42)"/><path class="cls-15" d="M136,84.3l.24-.12a.48.48,0,0,1-.19.4Z" transform="translate(-79.5 -21.42)"/></svg>