<svg id="Layer_1" data-name="Layer 1" xmlns="http://www.w3.org/2000/svg" viewBox="0 0 185.34 168.89"><defs><style>.cls-1{fill:#2e282a;}.cls-2{fill:#3c3739;}.cls-3{fill:#716d6e;}.cls-4{fill:#5f5a5b;}.cls-5{fill:#605b5d;}.cls-6{fill:#bcbabb;}.cls-7{fill:#545051;}.cls-8{fill:#c0bfbf;}.cls-9{fill:#4a4446;}.cls-10{fill:#bababa;}.cls-11{fill:#7267ef;}.cls-12{fill:#7367ef;}.cls-13{fill:#a0a0a0;}.cls-14{fill:#e3572e;}.cls-15{fill:#17bdba;}.cls-16{fill:#4e4586;}.cls-17{fill:#8d8b8c;}.cls-18{fill:#fec814;}.cls-19{fill:#75b941;}.cls-20{fill:#4c3531;}.cls-21{fill:#445232;}.cls-22{fill:#5e595b;}.cls-23{fill:#2f282a;}.cls-24{fill:#373031;}.cls-25{fill:#464042;}.cls-26{fill:#6a6667;}.cls-27{fill:#5a5657;}</style></defs><path class="cls-1" d="M116.13,182.32a12.85,12.85,0,0,1-.65-4.17c-.11-1.25-.13-2.5-.15-3.76,0-.43-.14-.55-.57-.55-7.45.06-14.89-.24-22.33-.61-.55,0-.73.08-.73.67,0,1.82,0,3.64-.07,5.46,0,1.37-.5,1.92-1.92,1.92-2.27,0-4.54,0-6.81,0-1.32,0-2.64-.06-4-.07a3.24,3.24,0,0,1-1.37-.32,1.51,1.51,0,0,1-1-1.43c0-1.21-.09-2.41-.11-3.62,0-.39-.16-.51-.55-.53-1.81-.13-3.62-.34-5.42-.6-1.5-.21-1.84-.53-2.08-2-.45-2.8-.89-5.6-1.35-8.4a1,1,0,0,1,.49-1,8,8,0,0,1,1.74-.78l4.39-1.61a3.13,3.13,0,0,1,1.81-.17c.49.11.57-.06.56-.49,0-1.08,0-2.17,0-3.26,0-1.52.4-2,2-2.05,1.82,0,3.65,0,5.46.09,2,.11,3.93.13,5.88.38a3.8,3.8,0,0,1,1.29.35,1.24,1.24,0,0,1,.68,1.2c0,1.91.2,3.82.29,5.73.08,1.62.06,1.61,1.66,1.65,2.81.08,5.63.17,8.44.3.58,0,.76-.15.84-.7a26,26,0,0,1,3.11-9.43c2.28-3.81,5.77-6.18,9.75-7.91a33.38,33.38,0,0,1,9.14-2.16,99.3,99.3,0,0,0,13.79-2.55,13.07,13.07,0,0,0,5.37-2.92,8.27,8.27,0,0,0,1.67-2.18,3.77,3.77,0,0,0,.46-1.07c.23-.76.72-1.1,1.33-.94s.78.62.61,1.42a12.87,12.87,0,0,0-.34,1.36,7.76,7.76,0,0,1-2.64,3.09,17.38,17.38,0,0,1-6.73,3.06c-4.88,1.3-9.84,2.15-14.81,3a19.5,19.5,0,0,0-12.71,7.61,19.91,19.91,0,0,0-3.12,6.87,26.31,26.31,0,0,0-.65,2.76c-.12.68,0,.79.6.79,2.34,0,4.66.34,7,.5.58,0,.76-.15.76-.69,0-1.26,0-2.51,0-3.76,0-.84.13-1.65.18-2.48s.63-1.27,1.68-1.47,1.86-.32,2.8-.44c2.81-.39,5.62-.8,8.44-1.11a8.71,8.71,0,0,1,1.84,0,1.54,1.54,0,0,1,1.5,1.64,38.73,38.73,0,0,1,.13,4.17c0,.5.14.77.69.7,1.67-.2,3.35-.24,5-.39a3.77,3.77,0,0,1,1.06,0c1.41.28,1.9.93,1.71,2.35s-.09,2.64-.23,4c-.08.79,0,.85.82.86,1.3,0,2.6,0,3.9,0,2.74-.06,5.48.13,8.22.19a47.31,47.31,0,0,1,5.83.32c-.37-.53-.68-.87-1-1.23a40.23,40.23,0,0,1-5.82-10,9.64,9.64,0,0,1-.65-5.28,5.8,5.8,0,0,1,4-4.59,13.18,13.18,0,0,1,6.16-.61,21.18,21.18,0,0,1,8.74,2.73,9.85,9.85,0,0,1,2,1.51c.58.58.58.56,1.2.07,2.84-2.26,5.77-4.38,9.31-5.44a14.16,14.16,0,0,1,12.08,1.31,11.24,11.24,0,0,1,5.48,9.35,10.11,10.11,0,0,1-1.93,6c-.43.68-.94,1.31-1.42,2-.12.16-.35.33-.25.55s.4.21.63.22c.87,0,1.75.1,2.62.13,2.12.06,4.24.26,6.37.32.33,0,.65.08,1,.11.71.08.79,0,.7-.72a40.61,40.61,0,0,0-1.87-8,21,21,0,0,0-3.31-6.23,11.94,11.94,0,0,0-3.1-2.56,36.56,36.56,0,0,0-8.73-4c-3.52-1.11-7-2.31-10.55-3.34a11.83,11.83,0,0,1-5.9-3.89,6.6,6.6,0,0,1-1.38-3.22c-.13-.73-.12-.74-.78-.47a30.37,30.37,0,0,1-7.71,2.09,29.85,29.85,0,0,1-13.24-1.19,16.74,16.74,0,0,1-2.91-1.1,2.69,2.69,0,0,0-.48-.24,3.17,3.17,0,0,1-1.3-.79,38.26,38.26,0,0,1-11-8.3A71.09,71.09,0,0,1,120.87,99.2a117.42,117.42,0,0,1-5.6-23.1c-.6-4.12-.87-8.27-1.19-12.42-.06-.8.35-1.58.3-2.42,0-.46,0-.75-.66-.72-1.09.06-2.18,0-3.27,0a2.8,2.8,0,0,1-1-.16c-.22-.08-.48-.16-.51-.44s.2-.41.43-.48.26-.17.15-.4a13.15,13.15,0,0,1-1-7.34c.67-7.56,4.43-13.43,10.1-18.23a53.37,53.37,0,0,1,23.54-11.31,74.38,74.38,0,0,1,45.21,3.88c.78.33,1.55.7,2.32,1.05.2.09.37.2.51-.1,1.35-2.84,3.76-4.6,6.45-5.95a36.05,36.05,0,0,1,13.18-3.64A20.6,20.6,0,0,1,219.3,19a41,41,0,0,1,9,5.18c3.24,2.42,5.38,5.75,7.31,9.22A45,45,0,0,1,241.11,50a40.8,40.8,0,0,1-.27,10.18q-1.35,10-2.77,20.09c-.62,4.35-1.56,8.64-2.35,13a86.07,86.07,0,0,0-1.77,17.6,64.68,64.68,0,0,0,5.61,25.87,40.21,40.21,0,0,1,2.36,6.22c.26,1,0,1.47-.95,1.76a5.8,5.8,0,0,1-3.35-.09c-3.11-.92-6.11-2.14-9.17-3.21a52.85,52.85,0,0,1-14.3-7.22A46.63,46.63,0,0,1,202,120.67c-2.14-3.54-4-7.22-6.16-10.88-5,9-11.12,16.86-20.2,22a.81.81,0,0,0,0,.71c.55,4.07,3.09,6.35,6.85,7.3,4.18,1.06,8.26,2.37,12.37,3.64a32.35,32.35,0,0,1,10.09,5.36,15.55,15.55,0,0,1,4.5,6.53A40.15,40.15,0,0,1,212.25,167c.06.5,0,.66-.57.59a6.42,6.42,0,0,0-2.38.16,15.3,15.3,0,0,1-4.17.15q-4.89-.14-9.78-.34a1.51,1.51,0,0,0-1.51.73C190.21,173.47,186,178.15,182,183a6.47,6.47,0,0,1-3.71,2.45.66.66,0,0,0-.31.16,2.07,2.07,0,0,1-2.86,0,65.31,65.31,0,0,1-10.17-10c-1.08-1.31-2.27-2.53-3.39-3.81a1.48,1.48,0,0,0-1.16-.55c-6.77-.09-13.52-.45-20.27-.89-.3,0-.54-.08-.55.38,0,1.79-.16,3.59,0,5.38a1.12,1.12,0,0,1-.89,1.38,8,8,0,0,1-2.52.37c-1.25,0-2.51.06-3.76,0-.61,0-.76.17-.74.75,0,1.37,0,2.74,0,4.11a1.25,1.25,0,0,1-1,1.39,11.43,11.43,0,0,1-2.4.24c-1.6.12-3.21.15-4.81.22-1.88.11-3.76.06-5.64,0a2.45,2.45,0,0,1-1.77-.74h0a.8.8,0,0,1,0-1C116.11,182.69,116.39,182.57,116.13,182.32Z" transform="translate(-56.68 -17.35)"/><path class="cls-1" d="M76.82,37.17a21.12,21.12,0,0,1,20.8,16.69C99.78,64.2,93.36,75.65,81.3,77.29c-7.67,1-14.35-1-19.66-6.81a19,19,0,0,1-4.83-11.14,20.28,20.28,0,0,1,5.87-16.82,6.56,6.56,0,0,1,3.07-2,1.3,1.3,0,0,0,.37-.19A18.4,18.4,0,0,1,76.82,37.17Z" transform="translate(-56.68 -17.35)"/><path class="cls-1" d="M95.28,93c.63-1.8,2.13-1.94,3.42-1.84a.81.81,0,0,1,.81.47c.13.4-.21.57-.42.82-2.56,2.92-4.52,6.12-4.56,10.18a1.68,1.68,0,0,0,.06.26c.72-.29,1.41-.58,2.11-.84a18.48,18.48,0,0,1,6.23-1.24,11.8,11.8,0,0,1,4.82,1,7.49,7.49,0,0,1,4,4,20.09,20.09,0,0,1-.23,17,57,57,0,0,1-7.81,12.3,4.2,4.2,0,0,1-4.57,1.45,9.56,9.56,0,0,1-3.75-1.78c-.37-.28-.56-.2-.89,0A10.73,10.73,0,0,1,90,137a5.28,5.28,0,0,1-1.9-.09,2.25,2.25,0,0,1-1.44-1c-1.58-2.25-2.84-4.69-4.26-7-1.75-2.92-3.68-5.74-5.2-8.79a20.25,20.25,0,0,1-2.6-9.4,7.7,7.7,0,0,1,3.6-6.84c3.55-2.26,7.29-3.2,11.39-1.61a16.73,16.73,0,0,1,2.07,1.1c0-.5,0-.92.1-1.33s-.22-.43-.48-.5a13.57,13.57,0,0,1-6.38-4.31c-2-2.26-2.17-4.92-1.45-7.72A1.19,1.19,0,0,1,85,88.71a37.49,37.49,0,0,0,4.06.5c2.49.46,4.61,1.43,5.79,3.84C95,93.3,95.14,93.31,95.28,93Z" transform="translate(-56.68 -17.35)"/><path class="cls-2" d="M147.23,137.47l.36-1.42c.12-.49.17-1-.45-1.14a.94.94,0,0,0-1.2.68c-.16.4-.19.87-.59,1.15l.58-1.69c.17-.15,0-.43.25-.57a.44.44,0,0,1,.12-.15,1.73,1.73,0,0,1,1.73.07,1.08,1.08,0,0,1,.1.43,5.88,5.88,0,0,1-.41,2.12C147.63,137.18,147.58,137.47,147.23,137.47Z" transform="translate(-56.68 -17.35)"/><path class="cls-3" d="M116,183.88a5.79,5.79,0,0,0,3.39.7c1.34,0,2.68-.1,4,0a33.39,33.39,0,0,1-6.08.06A1.44,1.44,0,0,1,116,183.88Z" transform="translate(-56.68 -17.35)"/><path class="cls-4" d="M146.62,132.38l1.32.69c.13.49-.26.33-.45.32a1,1,0,0,0-1.07.51.18.18,0,0,1-.2,0C146.19,133.36,146.54,132.91,146.62,132.38Z" transform="translate(-56.68 -17.35)"/><path class="cls-5" d="M116.13,182.32c.24.09.4.22.12.43s-.36.71-.25,1.13c-.39-.29-.32-.64-.14-1C116,182.69,116.13,182.54,116.13,182.32Z" transform="translate(-56.68 -17.35)"/><path class="cls-6" d="M175.59,132.52c-.23-.25-.72-.51,0-.71A.57.57,0,0,1,175.59,132.52Z" transform="translate(-56.68 -17.35)"/><path class="cls-7" d="M146.22,133.91h.16l.06.07c.06.21-.12.34-.2.5h0a.09.09,0,0,1-.15,0A.82.82,0,0,1,146.22,133.91Z" transform="translate(-56.68 -17.35)"/><path class="cls-8" d="M95.28,93c0,.19-.06.39-.21.39s-.23-.2-.21-.38A.38.38,0,0,0,95.28,93Z" transform="translate(-56.68 -17.35)"/><path class="cls-9" d="M146.09,134.48h.15c-.13.17-.08.44-.31.56A.83.83,0,0,1,146.09,134.48Z" transform="translate(-56.68 -17.35)"/><path class="cls-10" d="M185.7,60.71l17.81-.06c.66,0,1.33,0,2,0,.42,0,.53.09.5.51A135.37,135.37,0,0,1,200.32,93a82.52,82.52,0,0,1-12.95,25.47,44.29,44.29,0,0,1-14,12.42c-8.94,4.79-17.73,4.46-26.3-.94a45,45,0,0,1-13.68-14,87.73,87.73,0,0,1-10.54-24A107.45,107.45,0,0,1,119.33,75a104.13,104.13,0,0,1-.94-11.3c0-.82-.46-1.57-.46-2.41,0-.52,0-.76.65-.76q9,.07,18,.06c3.21,0,6.43-.06,9.64,0,12.6.12,25.21.08,37.81.09l.49,0A1.29,1.29,0,0,0,185.7,60.71Z" transform="translate(-56.68 -17.35)"/><path class="cls-11" d="M213,59.68a25.29,25.29,0,0,0-.23-6.84,28.22,28.22,0,0,0-6-12.82A45.52,45.52,0,0,0,192.8,28.74c-.52-.29-.61-.47-.25-1a18.2,18.2,0,0,1,9.07-6.62,37,37,0,0,1,8-2,14.41,14.41,0,0,1,8,1.58,45.36,45.36,0,0,1,7.07,4.19,23.27,23.27,0,0,1,6.53,7.75,44.46,44.46,0,0,1,5.73,16.57,35.46,35.46,0,0,1,0,8.49c-.83,7.18-2.12,14.29-3.11,21.45-.66,4.84-1.69,9.62-2.57,14.43A89.83,89.83,0,0,0,229.51,111a61.05,61.05,0,0,0,6,25.4,46.49,46.49,0,0,1,2.18,5.08l.29.88c-.62-.23-1.12-.4-1.61-.59-3.73-1.5-7.54-2.77-11.2-4.45a41.66,41.66,0,0,1-11.53-7.89,49.8,49.8,0,0,1-8-10.41c-1.93-3.23-3.91-6.42-5.84-9.64a5.65,5.65,0,0,0-1.81-1.67c-.7-.47-.59-.89-.31-1.47,1.06-2.22,2-4.47,2.92-6.77A120,120,0,0,0,207.14,75a115.88,115.88,0,0,0,1.39-13c.06-1.38,0-1.38,1.43-1.4l2.27,0a10.45,10.45,0,0,0,1.47-.41C213.5,59.81,213.12,59.94,213,59.68Z" transform="translate(-56.68 -17.35)"/><path class="cls-12" d="M111.57,59.24c.27-2.18.18-4.34.42-6.48a26.87,26.87,0,0,1,4.42-11.84,37.48,37.48,0,0,1,17.11-13.85,60.07,60.07,0,0,1,19.55-4.72c12.8-.93,25,1.21,36.44,7.23a41.68,41.68,0,0,1,16.14,14.36,28.24,28.24,0,0,1,4.43,12.22c.1.89.06,1.79.14,2.69.06.6-.15.74-.74.73-6.73-.17-13.47-.17-20.21-.19h-2.41c-.37,0-.54-.06-.5-.51a34.88,34.88,0,0,0-.68-9.23,1.35,1.35,0,0,0-.11-.34c-.42-.85-2.91-1-3.43-.19-.19.3-.3.73,0,1a1.34,1.34,0,0,1,.52,1.1c.4,2.54.65,5.1,1.16,7.63.09.43,0,.57-.48.57q-7.59-.06-15.18-.08c-.55,0-.53-.27-.53-.66a71.4,71.4,0,0,0-.84-10c-.08-.54-.26-1-.85-1.07a2.47,2.47,0,0,0-2.1.28c-.24.19-.18.48-.16.74.07,1.84.34,3.66.59,5.49a39.89,39.89,0,0,0,.81,4.6c.13.49,0,.63-.5.63-3.07,0-6.15,0-9.22,0-1.73,0-3.45,0-5.18,0-.47,0-.6-.13-.57-.6a86,86,0,0,0,0-10.28c0-.75-.21-1.4-1.06-1.63a2.73,2.73,0,0,0-2.62.4c-.29.24-.27.63-.28,1a36.61,36.61,0,0,0,.35,5c.19,1.9.27,3.82.65,5.7.07.34-.07.4-.37.39l-11.92,0c-.4,0-.42-.14-.4-.51a59.87,59.87,0,0,0-.43-11c-.08-.6,0-1.11-.73-1.27a3.16,3.16,0,0,0-2.6.26.56.56,0,0,0-.23.49c.05,2.23,0,4.47.17,6.7a31.77,31.77,0,0,0,.49,4.57c.17.78-.14.78-.72.78-5.53,0-11.07,0-16.6,0Z" transform="translate(-56.68 -17.35)"/><path class="cls-13" d="M147.23,137.47a5.39,5.39,0,0,0,.73-2.68c.17-.31-.1-.59-.06-.88s-.13-.77.47-.71a30,30,0,0,0,14.52,2.47,30.5,30.5,0,0,0,9.72-2.41c.19-.08.56-.43.57.18.07,2.47,1.48,4.16,3.3,5.6a15,15,0,0,0,5.4,2.42c4.38,1.19,8.67,2.69,12.91,4.27a26.07,26.07,0,0,1,6.77,4,13.27,13.27,0,0,1,3.65,5.17,37,37,0,0,1,2.91,10.69c.08.57,0,.77-.65.73-3.67-.26-7.35-.46-11-.69a2.94,2.94,0,0,1-.43-.08c.56-.75,1.08-1.43,1.59-2.14a11.53,11.53,0,0,0,2.28-5.28,10,10,0,0,0-2.21-7.69c-2.93-3.72-6.9-5.13-11.54-4.76a20,20,0,0,0-10.56,4.45,13.39,13.39,0,0,0-2.58,2.1c-.26.31-.41.05-.55-.12-2.9-3.43-11.45-5.75-16.58-4.22a6,6,0,0,0-4.46,7.06c.47,3.16,2,5.83,3.58,8.5a38.36,38.36,0,0,0,3.6,5.09c.13.15.24.33.42.58-.57,0-1.05,0-1.53,0-5.67-.31-11.34-.42-17-.4-.64,0-.81-.16-.76-.79.12-1.5.19-3,.26-4.53.06-1.17-.25-1.59-1.41-1.8a16.69,16.69,0,0,0-3.53.11c-1,0-2.07.16-3.1.27-.52.05-.45-.29-.46-.59,0-1.49-.07-3-.11-4.46,0-1.07-.48-1.52-1.57-1.57a22.83,22.83,0,0,0-3.87.35c-2.91.38-5.8.81-8.7,1.23-1.37.2-1.67.54-1.79,1.9-.17,2-.12,4-.15,6,0,.45-.11.64-.61.58-2.54-.28-5.08-.51-7.63-.57-.35,0-.66,0-.56-.52.69-3.83,1.75-7.56,4.22-10.64a19.55,19.55,0,0,1,12.53-7.26,137.52,137.52,0,0,0,15.95-3.28,14.54,14.54,0,0,0,7-4A5.27,5.27,0,0,0,147.23,137.47Z" transform="translate(-56.68 -17.35)"/><path class="cls-14" d="M178.13,169.88c-1-3.19-2.35-6.1-3.23-9.17a1.11,1.11,0,0,0-.76-.78,4.27,4.27,0,0,0-2.78,0,1.37,1.37,0,0,0-.81.74,66,66,0,0,0-3.61,8.17c-.21.58-.51.64-1.09.66a2.72,2.72,0,0,1-2.41-1.41,31.21,31.21,0,0,1-5.76-11.44,6.94,6.94,0,0,1,.93-5.7,2.15,2.15,0,0,1,2.19-1,17.28,17.28,0,0,1,9.27,3.73,8.06,8.06,0,0,0,2.15,1.36,1.81,1.81,0,0,0,1.87-.25,72.4,72.4,0,0,1,5.8-4.54,18.3,18.3,0,0,1,6.21-3,7.75,7.75,0,0,1,6.44,1.66c3.3,2.38,5.1,7.64,1.68,12.6-.84,1.22-1.79,2.37-2.71,3.54a1,1,0,0,1-.88.33q-4-.19-8.07-.35a5.47,5.47,0,0,0-1.27.12,1.77,1.77,0,0,0-1.43,1.12C179.37,167.45,178.77,168.57,178.13,169.88Z" transform="translate(-56.68 -17.35)"/><path class="cls-15" d="M127.76,165.87c0,5.07,0,10.15,0,15.23,0,.64-.21.78-.81.78-2.64,0-5.29-.07-7.93.15-.51,0-.63-.07-.53-.61a67.56,67.56,0,0,0,.76-9.31c.17-4.18.33-8.36.26-12.54,0-.48.2-.6.61-.66,2.33-.35,4.67-.71,7-1.1.52-.09.67,0,.66.54,0,2.51,0,5,0,7.52Z" transform="translate(-56.68 -17.35)"/><path class="cls-15" d="M86,178.6c-1.15-.17-2.57-.11-4-.21-.48,0-.64-.17-.66-.65-.06-2.24-.15-4.49-.25-6.73-.2-4.17-.4-8.35-.72-12.52-.07-.88,0-.89.84-.86,2.1.07,4.2.17,6.3.22.45,0,.57.17.53.59-.28,3.56-.42,7.12-.5,10.69-.07,2.76,0,5.53,0,8.3C87.5,178.65,87.51,178.65,86,178.6Z" transform="translate(-56.68 -17.35)"/><path class="cls-14" d="M166.42,171.5h2.13a2.43,2.43,0,0,0,2.57-1.58c.51-1.24,1.12-2.44,1.72-3.73,1.09,2.8,2.18,5.52,3,8.34a1.52,1.52,0,0,0,1.32,1.19,4.84,4.84,0,0,0,1.82,0,1.82,1.82,0,0,0,1.29-1c1.22-2.28,2.33-4.6,3.4-6.94a1,1,0,0,1,1.12-.67c1.53.11,3.06.16,4.75.24l-2.81,3.44c-2.68,3.3-5.69,6.32-8.43,9.57-.56.67-1.11,1.35-1.63,2-.29.39-.48.46-.84,0-3-3.51-6-7-9-10.49Z" transform="translate(-56.68 -17.35)"/><path class="cls-15" d="M115.3,169.62c0,.74,0,1.47,0,2.2,0,.44-.12.58-.57.54-4.87-.4-9.76-.6-14.65-.72-2.57-.06-5.14-.17-7.72-.23-.5,0-.64-.19-.63-.67,0-1.35,0-2.69,0-4,0-.43.12-.57.57-.54,2,.14,4,.28,6.08.36,5.46.21,10.91.44,16.38.32.47,0,.55.18.54.58,0,.74,0,1.47,0,2.2Z" transform="translate(-56.68 -17.35)"/><path class="cls-15" d="M136,166.92c0,2.5-.19,5-.32,7.49,0,.47-.18.7-.68.64a1.89,1.89,0,0,0-.71,0c-1.25.38-1.79-.71-2.6-1.23-.18-.11-.12-.35-.12-.53,0-2.86-.07-5.71-.13-8.57,0-.46.14-.6.6-.6,1.15,0,2.31-.07,3.46-.17.44,0,.52.11.51.5C136,165.27,136,166.09,136,166.92Z" transform="translate(-56.68 -17.35)"/><path class="cls-15" d="M76.34,172.76c.08.54-.09.66-.43.58l-3.24-.72c-.28-.06-.37-.25-.41-.51q-.6-3.45-1.22-6.9c-.06-.33.07-.46.37-.56,1.34-.46,2.68-.93,4-1.42.58-.21.69.07.69.57,0,2.63.12,5.25.18,7.87C76.3,172.1,76.33,172.52,76.34,172.76Z" transform="translate(-56.68 -17.35)"/><path class="cls-7" d="M148.37,133.2c-.34.07-.25.34-.27.56s.06.71-.14,1l0-.44c-.39-.59-1-.27-1.55-.43h0c0-.54.3-.7.79-.73.25,0,.57.25.77-.12C148.1,133.07,148.26,133,148.37,133.2Z" transform="translate(-56.68 -17.35)"/><path class="cls-16" d="M213,59.68c.39.07,1-.09,1,.41s-.6.27-.95.36a2.12,2.12,0,0,1-.83.08C212.57,60.33,213.2,60.38,213,59.68Z" transform="translate(-56.68 -17.35)"/><path class="cls-17" d="M185.7,60.71a.7.7,0,0,1-1.15,0Z" transform="translate(-56.68 -17.35)"/><path class="cls-18" d="M92.35,57.09c0,7.65-3.95,13.56-10.25,16a12.34,12.34,0,0,1-11.34-1.29,18.47,18.47,0,0,1-8.28-21.1,14.58,14.58,0,0,1,3.93-6.39,21.86,21.86,0,0,0,2.52-2.48,1.65,1.65,0,0,1,.59-.37c6.43-3.14,13.08-1.67,18,3.63A18.15,18.15,0,0,1,92.35,57.09Z" transform="translate(-56.68 -17.35)"/><path class="cls-14" d="M91.58,105.7c.84,1,2,.89,3.06.78,1.3-.14,2.19-1.07,3.2-1.75a11.19,11.19,0,0,1,4.72-2,4.76,4.76,0,0,1,3.66,1.44,7.83,7.83,0,0,1,2,3.46c2.21,6,1.31,11.6-1.67,17.11-1.79,3.3-4.07,6.25-6.08,9.39-.52.81-.54.77-1.35.3a8.82,8.82,0,0,1-1.6-1.38,3.42,3.42,0,0,0-4.15-.6,23.54,23.54,0,0,0-2.64,1.79c-.42.3-.66.29-1-.21q-2.8-4.61-5.68-9.15A56.4,56.4,0,0,1,80,118a18.87,18.87,0,0,1-1.79-6.74c-.19-3.48,1.39-5.82,4.33-7.5a6.15,6.15,0,0,1,6.94.23l.54.32a3.15,3.15,0,0,0,.86.47A.9.9,0,0,1,91.58,105.7Z" transform="translate(-56.68 -17.35)"/><path class="cls-19" d="M91.16,92.5a11.42,11.42,0,0,1,1.92,4.19.57.57,0,0,1,0,.48,13.67,13.67,0,0,0-1,2.4c-.14.46-.36.16-.5,0-.88-.92-1.72-1.87-2.62-2.78-1.68-1.7-2-3.94-2.46-6.12-.08-.35,0-.4.35-.35a8.4,8.4,0,0,1,3.63,1.45A1.82,1.82,0,0,1,91.16,92.5Z" transform="translate(-56.68 -17.35)"/><path class="cls-20" d="M91.58,105.7c-.07-.56-.56-.73-.94-1-.21-.14-.48-.2-.61-.45.55.1,1,.52,1.61.45.26,0,.27.22.14.4A1.07,1.07,0,0,0,91.58,105.7Z" transform="translate(-56.68 -17.35)"/><path class="cls-21" d="M91.16,92.5l-.71-.72A.76.76,0,0,1,91.16,92.5Z" transform="translate(-56.68 -17.35)"/><path class="cls-9" d="M146.38,133.92a1.86,1.86,0,0,1,1-.14c.4,0,.55.19.51.57-.56.09-1.15-.22-1.69.14Z" transform="translate(-56.68 -17.35)"/><path class="cls-1" d="M176.1,74.65a11,11,0,0,1,10.77,7.82c.25.81.06,1.21-.73,1.45a4.26,4.26,0,0,1-2.45,0,2,2,0,0,1-1.23-1.19,15.21,15.21,0,0,0-4.09-5.19c-1.79-1.33-3-1.33-4.77,0A14.86,14.86,0,0,0,169.68,82c-.25.4-.47.82-.74,1.21a1.91,1.91,0,0,1-2.31.46c-.4-.25-.35-.62-.29-1a9.37,9.37,0,0,1,7.49-7.75C174.6,74.72,175.38,74.73,176.1,74.65Z" transform="translate(-56.68 -17.35)"/><path class="cls-1" d="M140.18,73.6c4.79.12,8.41,2.17,10.66,6.48a4.57,4.57,0,0,1,.49,1.4c.14.84-.08,1.18-.88,1.42a2.7,2.7,0,0,1-3.62-1.55,12.44,12.44,0,0,0-3.42-4.55c-2.31-1.83-4.61-1.73-6.74.31a12,12,0,0,0-2.75,4.34,1.63,1.63,0,0,1-1.33,1.21c-1,.12-1.62-.29-1.65-1.33a6.61,6.61,0,0,1,1.63-4.64,9,9,0,0,1,6.26-3.09C139.28,73.56,139.73,73.6,140.18,73.6Z" transform="translate(-56.68 -17.35)"/><path class="cls-1" d="M172.94,109.25a11.64,11.64,0,0,1-5.05,3.66c-6.81,2.76-13.62,2.87-20.32-.35a10,10,0,0,1-4.26-3.85,6.39,6.39,0,0,1-.47-1,.9.9,0,0,1,.54-1.28,4.2,4.2,0,0,1,3.37,0,1.38,1.38,0,0,1,.75.82c1.31,3.43,4.12,5,7.45,5.65a19.29,19.29,0,0,0,15.32-3.4l1.22-.85a1.4,1.4,0,0,1,1.08,0C172.84,108.74,173.09,108.88,172.94,109.25Z" transform="translate(-56.68 -17.35)"/><path class="cls-22" d="M172.94,109.25c-.11-.56-.58-.54-1-.57-.15,0-.31.07-.46,0a1.17,1.17,0,0,1,.93-.39.71.71,0,0,1,.75.26A.57.57,0,0,1,172.94,109.25Z" transform="translate(-56.68 -17.35)"/><path class="cls-1" d="M83.79,60.3c-1,0-2,0-3,0-.54,0-.69.16-.69.68a45.29,45.29,0,0,1-.32,6.79c-.08.54-.17,1.07-.28,1.61a1.09,1.09,0,0,1-.77.77,3.69,3.69,0,0,1-2.77,0,1.31,1.31,0,0,1-.83-1,41.37,41.37,0,0,1-1-8.21c0-.68-.22-1-1-1a50.61,50.61,0,0,1-6.49-.66,3.78,3.78,0,0,1-1.52-.56,1,1,0,0,1,0-1.73,3.59,3.59,0,0,1,1.89-.52,54.89,54.89,0,0,1,6,.26c.88.08.88.06.92-.84a48.29,48.29,0,0,1,.72-6.33c.21-1.21.67-1.6,1.76-1.66,1.4-.07,2.06.3,2.36,1.51a54.8,54.8,0,0,1,1.23,7.41c0,.43.15.6.6.66,2.34.32,4.7.54,7,1.07a6.89,6.89,0,0,1,1,.33c.29.12.59.29.55.66s-.35.48-.64.59a6,6,0,0,1-1.89.27c-1,0-1.94,0-2.91,0Z" transform="translate(-56.68 -17.35)"/><path class="cls-23" d="M102.92,111.08a7.53,7.53,0,0,0-2.57-2.45c-.1,0-.22-.14-.16-.28s.29-.22.48-.24a3.92,3.92,0,0,1,3.85,1.53c.13.38.46.65.55,1.06s.31.61,0,.84a1.23,1.23,0,0,1-1,.28A2.05,2.05,0,0,1,102.92,111.08Z" transform="translate(-56.68 -17.35)"/><path class="cls-24" d="M102.92,111.08c.37,0,.6.33.88.49a.94.94,0,0,0,1.09-.13c.47-.36,0-.79-.15-1.17,0-.2-.26-.37-.22-.63a2.84,2.84,0,0,1,.84,1.59c.15.78-.31.91-.85,1-.32,0-.65,0-1,0A4.91,4.91,0,0,1,102.92,111.08Z" transform="translate(-56.68 -17.35)"/><path class="cls-25" d="M103.54,112.2a.58.58,0,0,1,.65-.24c.62.16,1.08,0,1.17-.73a2.34,2.34,0,0,1,.11,1.5c0,.36-.34.48-.68.47s-.88.13-1.09-.39A4.57,4.57,0,0,1,103.54,112.2Z" transform="translate(-56.68 -17.35)"/><path class="cls-26" d="M105.23,112.63c-.44.61-.91.61-1.42,0A2,2,0,0,1,105.23,112.63Z" transform="translate(-56.68 -17.35)"/><path class="cls-27" d="M105.23,112.63h-1.42a.26.26,0,0,1,.38-.26c.33.14.63,0,.94-.05S105.34,112.48,105.23,112.63Z" transform="translate(-56.68 -17.35)"/></svg>