<svg id="Layer_1" data-name="Layer 1" xmlns="http://www.w3.org/2000/svg" viewBox="0 0 216.67 168.77"><defs><style>.cls-1{fill:#2e282a;}.cls-2{fill:#e3572e;}.cls-3{fill:#295857;}.cls-4{fill:#63c627;}.cls-5{fill:#17bdba;}.cls-6{fill:#4d4d4d;}.cls-7{fill:#b0aeae;}.cls-8{fill:#74cd3e;}.cls-9{fill:#fec814;}.cls-10{fill:#b7b7b7;}.cls-11{fill:#8d8d8d;}.cls-12{fill:#518d00;}.cls-13{fill:#75b941;}.cls-14{fill:#e33401;}.cls-15{fill:#76b941;}.cls-16{fill:#676767;}.cls-17{fill:#c25435;}.cls-18{fill:#6e6b6c;}.cls-19{fill:#d45631;}.cls-20{fill:#c65534;}.cls-21{fill:#8d9090;}.cls-22{fill:#6b7978;}.cls-23{fill:#b7a2b7;}.cls-24{fill:#9ada73;}.cls-25{fill:#7dd04b;}.cls-26{fill:#94d96c;}.cls-27{fill:#656565;}.cls-28{fill:#1b1910;}.cls-29{fill:#4c4531;}.cls-30{fill:#3c351e;}.cls-31{fill:#47412a;}.cls-32{fill:#020201;}.cls-33{fill:#4d421e;}.cls-34{fill:#554307;}.cls-35{fill:#b38d0e;}.cls-36{fill:#a4810d;}.cls-37{fill:#8914fe;}.cls-38{fill:#030204;}.cls-39{fill:#2f2f2f;}.cls-40{fill:#343434;}.cls-41{fill:#707070;}.cls-42{fill:#8521e7;}.cls-43{fill:#1b1026;}.cls-44{fill:#8a2be9;}.cls-45{fill:#512e74;}.cls-46{fill:#893ad7;}.cls-47{fill:#2b1d39;}.cls-48{fill:#7f51c4;}.cls-49{fill:#524262;}.cls-50{fill:#402a57;}.cls-51{fill:#1d1327;}.cls-52{fill:#66c32c;}.cls-53{fill:#8319ec;}.cls-54{fill:#190f22;}</style></defs><path class="cls-1" d="M169.35,57.94a2.79,2.79,0,0,1,1.16-1.12c-.77-.17-1.4-.31-2-.43a20.11,20.11,0,0,1-7.58-3.19A9.11,9.11,0,0,1,156.67,47a6,6,0,0,1,.67-4,4,4,0,0,1,2.07-1.75,15.59,15.59,0,0,1,6.2-.95c.9,0,.85,0,.88-.88a18.08,18.08,0,0,1,1.59-7.95c2.25-4.37,5.64-7.29,10.64-8.06a18.73,18.73,0,0,1,6.8-.11,16.57,16.57,0,0,1,5.68,2.56c.21.14.36.29.6,0a20.76,20.76,0,0,1,9.49-6.7,17.86,17.86,0,0,1,8.8-1.18,7.56,7.56,0,0,1,6,3.71c.1.17.17.28.4.13A33,33,0,0,1,226,18l.1,0a28,28,0,0,1,3.5-.64,19.45,19.45,0,0,1,4.82.09,6.62,6.62,0,0,1,5.92,5.6c.07.35.17.69.21,1s.14.4.47.31a23.62,23.62,0,0,1,4.86-.81,19,19,0,0,1,8,1.09,7.72,7.72,0,0,1,4.84,7.2c.18,3.46-1.69,5.78-4.08,7.86a6.52,6.52,0,0,1-1.33.72,9.8,9.8,0,0,1,3.37,4.48,13.55,13.55,0,0,1,.4,9.41c-1,3.15-3.46,4.89-7,5a7.39,7.39,0,0,1-1.33,0c-.42-.06-.43.08-.4.45a6.61,6.61,0,0,1-1.43,4.7c-.34.34-.41.85-.75,1.19-.94.5-1.95.86-2.92,1.28a3.13,3.13,0,0,0-.53,0,15.92,15.92,0,0,1-7.61-.87A15.65,15.65,0,0,1,228.78,62a23,23,0,0,1-3.95-5.68c-.21-.41-.48-.79-.71-1.19a1.37,1.37,0,0,0-1.23-.69c-1.62-.1-3.24-.17-4.86-.3a17.56,17.56,0,0,0-3.95.42,14.25,14.25,0,0,0-4.85,1.78c-.7.39-1.42.73-2.13,1.08a1,1,0,0,0-.65,1.12,8.75,8.75,0,0,1-.94,4.1,8.32,8.32,0,0,1-3.46,3.84l-.3.18a12.78,12.78,0,0,1-4.31.95,12.93,12.93,0,0,1-2.64,0,5.62,5.62,0,0,1-2-.55c-.19-.13-.42-.19-.61-.32a.7.7,0,0,1-.07-1.2c.26-.24.57-.42.83-.66a8.13,8.13,0,0,0,2.54-5.5,12.55,12.55,0,0,1-.05-1.37c0-.19-.12-.28-.28-.34a1.41,1.41,0,0,0-1,0,16.54,16.54,0,0,0-4.88,3c-1.92,1.64-3.74,3.4-5.68,5a8.39,8.39,0,0,1-3.37,1.85.91.91,0,0,1-.67,0,11.86,11.86,0,0,1-1.67-2.38,26.36,26.36,0,0,0-4-4.94,8.92,8.92,0,0,0-4.06-2C169.64,58.21,169.4,58.21,169.35,57.94Z" transform="translate(-42.07 -17.23)"/><path class="cls-2" d="M169.35,57.94a1.21,1.21,0,0,0,.69.23,10.07,10.07,0,0,1,5.61,3.71c1.35,1.63,2.42,3.44,3.61,5.16.1.15.21.29.31.43a10.84,10.84,0,0,1,1.78,2.93c.6,1.18,1.17,2.38,1.78,3.56a38,38,0,0,1,2.07,4.82,77.9,77.9,0,0,0,3.46,8.1,7.54,7.54,0,0,0,1.15,1.71l3.05,3.46c.29.33.48.74.76,1.08a.87.87,0,0,0,.92.35c1.72-.29,3.39-.74,5.09-1.1a54.92,54.92,0,0,1,8-1.25,28.39,28.39,0,0,1,5.13.22,2.1,2.1,0,0,1,1.81,1.44c0,.71-.19.93-.84.82-.5-.08-.27.35-.42.5a3.41,3.41,0,0,1-.57.88c-.2.13-.21.35-.27.54-.3.31-.73.45-1.05.73a53,53,0,0,1-9,3.79c-.78.26-1.56.51-2.35.75-1,.3-2,.58-3.08.86-1.62.46-3.28.78-4.92,1.19-2.24.49-4.5.93-6.76,1.3q-5.73.94-11.51,1.46c-1.63.14-3.26.32-4.91.35a2.32,2.32,0,0,0-.52.07c-.86.09-1.73.09-2.59.12-1.47,0-2.93.2-4.4.13-1.15,0-2.3.1-3.45.1-2.06,0-4.13,0-6.2-.12-3.94-.14-7.87-.33-11.79-.76-1.19-.17-2.39-.25-3.58-.39-4.45-.53-8.89-1.19-13.28-2.12-1.15-.25-2.31-.51-3.46-.79-2.83-.69-5.65-1.42-8.41-2.34-.36-.12-.74-.21-1.09-.34-.58-.23-1.16-.44-1.76-.62a52.48,52.48,0,0,1-11.25-5.53c-.9-.6-1.7-1.33-2.64-1.87a.89.89,0,0,1-.46-.85,4.84,4.84,0,0,1,.71-2.38c1.11-1.61,2.7-2,4.47-2.27a20.55,20.55,0,0,1,6.06.33c.49.12,1,.24,1.47.32.32.08.65.13,1,.2s.53.12.8.15a39.48,39.48,0,0,1,6,1.53.74.74,0,0,0,.77-.17A20,20,0,0,0,120,82.93a78.74,78.74,0,0,0,6.24-12.11,31.6,31.6,0,0,1,3.07-6.46,12.35,12.35,0,0,1,6.8-4.89,1.58,1.58,0,0,1,1.13-.1c2.9-.28,5.3.85,7.56,2.51a33.64,33.64,0,0,0,4.69,3,5.37,5.37,0,0,0,5.51-.07,22.79,22.79,0,0,0,3.48-3,25.1,25.1,0,0,1,4.83-3.35,8.19,8.19,0,0,1,4.87-.61A5,5,0,0,0,169.35,57.94Z" transform="translate(-42.07 -17.23)"/><path class="cls-3" d="M61.56,61.17c.08-.32-.18-.27-.35-.31a26.83,26.83,0,0,1-9.44-4.08,21.45,21.45,0,0,1-3.49-3.1c-1.71-1.81-3.4-3.64-5-5.52a9.84,9.84,0,0,1-1-1.33c-.39-.61-.21-1,.49-1.24a2.71,2.71,0,0,1,2.31.24c3.09,1.89,6.37,1.58,9.66.83a42.74,42.74,0,0,0,11.66-5,65.22,65.22,0,0,0,8.12-6,40.13,40.13,0,0,1,18.1-8.16,27.81,27.81,0,0,1,12.46.76,33.4,33.4,0,0,1,10.07,4.13c2.12,1.41,4.19,2.89,6.2,4.46a22.66,22.66,0,0,1,2.3,2,3.6,3.6,0,0,1,1,1.68c-.14.26-.34.13-.51.07a6,6,0,0,0-5.09.69c-.73.43-1.53.72-2.23,1.22A35.44,35.44,0,0,0,110.52,48c-.7.81-1.49,1.55-2.22,2.35a27.29,27.29,0,0,0-3.23,4.26,6.07,6.07,0,0,0-.59,1.69.73.73,0,0,1-.9-.17,3.35,3.35,0,0,0-.76-.64c-1-.55-1.92-1.25-2.93-1.79a9.8,9.8,0,0,0-3.82-1,13.68,13.68,0,0,0-7.37,1.53c-.3.15-.61.27-.92.41a16.26,16.26,0,0,0-1.7.9c-1.41.74-2.77,1.56-4.19,2.26A36.57,36.57,0,0,1,70.37,61.5a23.4,23.4,0,0,1-5,.08c-.23,0-.46,0-.69,0A26.54,26.54,0,0,0,61.56,61.17Z" transform="translate(-42.07 -17.23)"/><path class="cls-4" d="M108.42,98.8a9.38,9.38,0,0,1,1.71.6.72.72,0,0,1-.41.32,9,9,0,0,0-4.6,5.45,79.78,79.78,0,0,0-2.28,8.17,6.6,6.6,0,0,0-.2,1.31,4.19,4.19,0,0,1-1,2.38c-1,1.29-2,2.57-2.87,4a17.7,17.7,0,0,0-2.61,6.68,11.18,11.18,0,0,0,.2,4c.16.78.31,1.57.43,2.35a1.91,1.91,0,0,1-1.35,2.37,14.59,14.59,0,0,1-1.43.42,7.56,7.56,0,0,0-5.66,5.81,6.78,6.78,0,0,0,.36,4.07c.41,1.05.92,2.06,1.34,3.11a20.74,20.74,0,0,1,1,3c.29,1.29,0,1.84-1.28,2.25a5.33,5.33,0,0,0-1.47.59,2.68,2.68,0,0,0-1.22,2.18,7.33,7.33,0,0,0,.65,3c.72,1.79,1.49,3.56,2.2,5.35.08.2.16.4.22.6a.7.7,0,0,1-.47,1,5,5,0,0,1-.85.27,3.05,3.05,0,0,0-1.18.59,1.36,1.36,0,0,0-.48,1.74,7.17,7.17,0,0,0,.83,1.54c.68,1,1.38,2,2.07,2.95a6.13,6.13,0,0,0,3.34,2.31c1.26.38,2.55.63,3.81.94,2.16.54,4.38.57,6.55,1,.94.2,1.28,0,1.63-.91a1.28,1.28,0,0,1,.45-.64c.22-.13.19-.26,0-.41a6.19,6.19,0,0,1-1-1.23,1.45,1.45,0,0,0-.62-.48,41.15,41.15,0,0,1-6.14-3.78,5.92,5.92,0,0,1-.93-.87,1.24,1.24,0,0,1,.21-2,2.64,2.64,0,0,1,.35-.23c.63-.36.63-.36.21-.92-1-1.27-2-2.54-2.95-3.82a8.23,8.23,0,0,1-1.23-2.23,4,4,0,0,1,.78-4A4.3,4.3,0,0,1,96,156.33c.34-.18.35-.37.13-.67a13.9,13.9,0,0,1-1.83-3.34,13,13,0,0,1-.82-5.68A5.1,5.1,0,0,1,97,142.18a11.33,11.33,0,0,1,2-.53c.79-.16.94-.38.74-1.18-.29-1.15-.72-2.27-1-3.41a16.4,16.4,0,0,1-.73-5,10.92,10.92,0,0,1,2.85-7.14,60.43,60.43,0,0,1,4.6-4.31,5.46,5.46,0,0,0,1.72-2.12.45.45,0,0,1,.32-.33c1.25.09,2.5.17,3.75.28,1.41.12,2.79-.09,4.18-.1a7.49,7.49,0,0,1,1.89-.07.6.6,0,0,1,.25.39c.37,1.48.94,2.89,1.37,4.35a19.4,19.4,0,0,1,.78,5.06,9.89,9.89,0,0,1-.63,3.8c-.24.57-.5,1.14-.78,1.7a27,27,0,0,1-2.32,3.28c-1.06,1.37-1,1.38.06,2.67a13.7,13.7,0,0,1,2.14,3.75,21.62,21.62,0,0,0,1,2.07,10.63,10.63,0,0,1,1,4,1.42,1.42,0,0,1,0,.58,2.15,2.15,0,0,0,.47,1.87,14.44,14.44,0,0,1,1.49,3.39c.06.64.28,1.27.33,1.92,0,.13.09.27,0,.39-.13.88-.08,1.76-.23,2.64a20.52,20.52,0,0,1-2.75,7.63,1.12,1.12,0,0,0,0,1.24,2.34,2.34,0,0,0,3,1.14l.31-.14a2.41,2.41,0,0,1-.56,1.86,6.56,6.56,0,0,1-3.35,2.23c-.43.15-.63.29-.32.73a2,2,0,0,1,.21.55,1.88,1.88,0,0,1-.95,2.55,11.67,11.67,0,0,1-4.06,1.36,8.2,8.2,0,0,1-4.79-.48c-.29-.12-.6-.22-.9-.31a2.06,2.06,0,0,0-.82-.18c-.28,0-.2.43-.34.64a2.51,2.51,0,0,1-1.87,1,8.28,8.28,0,0,1-2.85-.14,24.85,24.85,0,0,0-3.1-.43,39.87,39.87,0,0,1-4.69-1,15.89,15.89,0,0,1-3-.86,6.63,6.63,0,0,1-3-2.25c-.94-1.28-1.84-2.6-2.65-4a4,4,0,0,1-.31-.62,1.94,1.94,0,0,1,.76-2.63,5.36,5.36,0,0,1,1.94-.82c.38-.08.38-.19.24-.52-.86-2-1.7-4-2.54-6.06a8.45,8.45,0,0,1-.52-1.78,3.52,3.52,0,0,1,2.17-4.09,9.45,9.45,0,0,1,1.2-.42c.7-.21.88-.48.76-1.2a14,14,0,0,0-.85-2.9c-.4-1-.84-2-1.28-3-2.33-5.21.82-9.08,4.33-10.6a18,18,0,0,1,2.58-.83c1-.27,1.31-.6,1.2-1.66s-.33-2.34-.53-3.51a11.05,11.05,0,0,1,.61-5.78,1.33,1.33,0,0,0,.17-.61,7.46,7.46,0,0,1,.61-1.59,37.58,37.58,0,0,1,4.18-6,4.36,4.36,0,0,0,.91-2.32,37.13,37.13,0,0,1,1.34-5.72,28.25,28.25,0,0,1,1.82-5,10.68,10.68,0,0,1,2.91-3.53,1,1,0,0,0,.33-.45A1.45,1.45,0,0,1,108.42,98.8Z" transform="translate(-42.07 -17.23)"/><path class="cls-4" d="M200.07,100.69l2.35-.74c.53.46,1.07.91,1.58,1.39a27.15,27.15,0,0,1,5.1,5.9,14.48,14.48,0,0,1,1.72,4.42,12.59,12.59,0,0,1-.38,5.14c-.08.36-.15.73-.23,1.09a4.77,4.77,0,0,0,.78,3.68,28.64,28.64,0,0,0,1.87,2.37c.09.11.17.22.25.34a2.08,2.08,0,0,0,1.36,1.08l-.66.11a21.41,21.41,0,0,1,1.28,2.4,8.13,8.13,0,0,1-.52,8.1c-.25.4-.47.83-.72,1.24a1.6,1.6,0,0,0,.2,2.09c.51.56,1,1.14,1.47,1.74a11.3,11.3,0,0,1,2.52,6,5,5,0,0,1-1,3.43,15.1,15.1,0,0,1-1.05,1.34,3.08,3.08,0,0,0-.35,3.83c.45.84,1,1.65,1.38,2.5a5.6,5.6,0,0,1-2,7.37,12.25,12.25,0,0,0-1.26.87c-.58.47-.58.82,0,1.3s1.07.82,1.57,1.26a4.57,4.57,0,0,1,1.63,2.67,3.59,3.59,0,0,1-1.77,3.64,13.89,13.89,0,0,1-1.28.76c-.41.22-.82.41-1.22.64-1.28.74-1.31.88-.46,2.07a6.84,6.84,0,0,1,.53.86,2.23,2.23,0,0,1-.64,3.1,9.4,9.4,0,0,1-4.17,1.61,10.73,10.73,0,0,1-2.53.21.45.45,0,0,0-.52.31,1.59,1.59,0,0,1-1,.77,8.57,8.57,0,0,1-4.35.28,10.06,10.06,0,0,1-3.86-1.55,2.31,2.31,0,0,1-.73-.61,1.89,1.89,0,0,0-1.74-.91,2.91,2.91,0,0,1-.82-.21,5.09,5.09,0,0,0-1.94-.34,3.8,3.8,0,0,1-2.64-1.05c-.88-.82-1.77-1.63-2.73-2.37a2.73,2.73,0,0,0-.87-.47,14.91,14.91,0,0,1-3.06-1.35,4.77,4.77,0,0,1-1-.81,1.08,1.08,0,0,1,0-1.65,6.45,6.45,0,0,1,1.07-.92c-.32-.26-.65-.49-.93-.76a2.41,2.41,0,0,1,0-3.8,7,7,0,0,1,3.78-2,1.13,1.13,0,0,0,.78-.39c.15-.55.11-.63-.37-.77-.12,0-.25,0-.35-.08h0a2.06,2.06,0,0,0-.42-.21,19.31,19.31,0,0,1-2.94-1.66,4,4,0,0,1-1.42-2.55,3.93,3.93,0,0,0-.16-.83c-.18-.39,0-.82-.12-1.22.18-1,.39-2,.66-3a8.43,8.43,0,0,1,2-3.26c.58-.68,1.22-1.32,1.83-2a10.91,10.91,0,0,1,3.34-2.47.82.82,0,0,0,.41-.47c.4-1,1-2,1.39-3a1.15,1.15,0,0,0,.05-.91,21.87,21.87,0,0,1-1.15-4.79,5.29,5.29,0,0,1,1.23-4.5,2.68,2.68,0,0,0,.5-3.37,22.7,22.7,0,0,1-.8-2.13,1.59,1.59,0,0,1-.13-.68c0-.32.2-.38.47-.25.53.26,1,.54,1.54.84a19.8,19.8,0,0,0,7.22,2.36c.94.15,1.89.21,2.83.38a3.33,3.33,0,0,0,2.17-.28c.45-.24.53-.54.2-.9-1.77-1.88-2.86-4.2-4.15-6.39a42.31,42.31,0,0,1-4.42-11.26c-.37-1.44-.56-2.92-.79-4.38a31.76,31.76,0,0,0-1.48-5.53c-.1-.29-.16-.54.26-.6l4.89-1.16a1.41,1.41,0,0,1,.37,1,3.85,3.85,0,0,0,.92,2,10.41,10.41,0,0,1,2.13,5.24,15.93,15.93,0,0,1-.12,6c-.26,1.35-.57,2.69-.75,4.07a7.15,7.15,0,0,0,.7,4.12c.53,1.12,1.17,2.18,1.77,3.26a18.62,18.62,0,0,1,1.79,4.36,8.17,8.17,0,0,1-.55,5.73c-.26.53-.47,1.08-.74,1.59a2.43,2.43,0,0,0,.19,2.74,31,31,0,0,1,1.94,3.1c1.54,3,1,5.25-.93,7.66-.39.48-.81.93-1.19,1.42a1.5,1.5,0,0,0-.12,1.83c.37.63.83,1.19,1.21,1.81a5.18,5.18,0,0,1,1,3,4.21,4.21,0,0,1-1.08,2.64,11,11,0,0,1-2,1.68c-1.13.77-1.14,1-.19,2a6.51,6.51,0,0,1,1.72,3.58,3.88,3.88,0,0,1-1.06,3.17,7.4,7.4,0,0,1-2.46,1.9c-.6.29-1.21.59-1.8.91s-.68.58-.29,1.14a4.26,4.26,0,0,1,.86,2.52,2.81,2.81,0,0,1-1.92,2.7,1.09,1.09,0,0,0-.39.15.15.15,0,0,0,.05.19,7.36,7.36,0,0,0,6.39,2,2.26,2.26,0,0,0,.7-.25c.19-.11.35-.26.3-.51-.1-.5.24-.6.61-.67a1.25,1.25,0,0,1,.47,0,9.42,9.42,0,0,0,5.18-.76,3.41,3.41,0,0,0,.65-.35,2,2,0,0,0,.74-3.1c-.22-.39-.48-.74-.73-1.11a1,1,0,0,1,.13-1.44,11.48,11.48,0,0,1,2.6-1.63,4.89,4.89,0,0,0,1.8-1.61,2.88,2.88,0,0,0,.05-3.07,5.44,5.44,0,0,0-1.71-1.86,6,6,0,0,1-1.19-1.05.91.91,0,0,1,0-1.34,5.09,5.09,0,0,1,1.28-1,5.15,5.15,0,0,0,2.61-3.74,5.84,5.84,0,0,0-.71-3.68,24.7,24.7,0,0,1-1.31-2.43,3.52,3.52,0,0,1,.42-3.66c.37-.5.76-1,1.11-1.49a5.28,5.28,0,0,0,.75-4.4,13,13,0,0,0-3.38-6,2.35,2.35,0,0,1-.39-3.2,12.39,12.39,0,0,0,1.46-2.88,7.79,7.79,0,0,0-.2-5,17.36,17.36,0,0,0-3.27-5.36,9,9,0,0,1-1.88-3,7,7,0,0,1,.09-3.88c1.1-4.15-.1-7.75-2.61-11a26.55,26.55,0,0,0-3.84-4.09,1.32,1.32,0,0,0-.88-.29C200.83,101.13,200.35,101.15,200.07,100.69Z" transform="translate(-42.07 -17.23)"/><path class="cls-5" d="M104.46,56.29a2.78,2.78,0,0,1,.62-1.9,33.61,33.61,0,0,1,5.1-6.19,39.65,39.65,0,0,1,3.56-3.54,22.66,22.66,0,0,1,4.34-3.06,11.26,11.26,0,0,1,3.26-1.36,5.7,5.7,0,0,1,2.81.22c.14,0,.29.16.45,0a23.79,23.79,0,0,0,2.23,1.9,15.69,15.69,0,0,1,3.74,4.09,73.42,73.42,0,0,1,6.06,11.12c.25.56.42,1.16.62,1.75a12.14,12.14,0,0,0-8.79,6.68,49.91,49.91,0,0,0-2.09,4.81c-.22.18-.44.08-.64,0a20.58,20.58,0,0,1-2.9-1.34c-.82-.48-1.63-1-2.46-1.43a53.65,53.65,0,0,1-5.67-3.89c-2.1-1.65-4.17-3.33-6.31-4.92-.89-.67-1.82-1.28-2.68-2a2.72,2.72,0,0,0-.65-.35,1.1,1.1,0,0,1-.61-.49A.26.26,0,0,1,104.46,56.29Z" transform="translate(-42.07 -17.23)"/><path d="M96.29,122.81a11.13,11.13,0,0,1-.7,1.48,40,40,0,0,1-11.39-.92A38,38,0,0,1,60,106a39.09,39.09,0,0,1-5.78-16.58,40.05,40.05,0,0,1,.38-11,40.15,40.15,0,0,1,6.8-17l.16-.21c.14-.05.22-.21.42-.18l2.43.39a.77.77,0,0,1,.23.1,1,1,0,0,1-.24.68A43.29,43.29,0,0,0,58.79,76.4a37.51,37.51,0,0,0-.67,8.65A43.93,43.93,0,0,0,60.37,98a38.55,38.55,0,0,0,7.37,12.8,35.27,35.27,0,0,0,16.13,10.57,33.15,33.15,0,0,0,6.7,1.34c.93.09,1.87.09,2.8.14s1.62-.06,2.43-.09C96,122.72,96.16,122.63,96.29,122.81Z" transform="translate(-42.07 -17.23)"/><path d="M214.47,125.36c-1,.16-1.2-.76-1.68-1.3.08-.29.32-.23.52-.24A33.63,33.63,0,0,0,232.24,117a34.8,34.8,0,0,0,6.06-5.76,38.86,38.86,0,0,0,8.44-18.41,31.86,31.86,0,0,0,.57-5.43c0-.23.08-.45.1-.68s0-.65,0-1a39.55,39.55,0,0,0-3-16.14l-.06-.15a2.68,2.68,0,0,0-.3-.75.54.54,0,0,1-.07-.13,10.83,10.83,0,0,0-.49-1.1c-.08-.16-.22-.32-.13-.53s.2-.27.37-.32a7.16,7.16,0,0,0,2.11-1,.3.3,0,0,1,.38,0c.4.23.52.67.71,1a43.25,43.25,0,0,1,1.84,4.11c.12.3.1.62.22.91a42.77,42.77,0,0,1,2.58,14.18,38.37,38.37,0,0,1-6.91,22.57,37.78,37.78,0,0,1-27.44,16.7C216.27,125.26,215.37,125.34,214.47,125.36Z" transform="translate(-42.07 -17.23)"/><path d="M179.11,159.29a3.28,3.28,0,0,1,0,1.25,44.92,44.92,0,0,1-20,8.13,44.06,44.06,0,0,1-26.92-4.24,40.94,40.94,0,0,1-9.79-6.94,12.17,12.17,0,0,1-.41-2.4c.19,0,.28.13.39.25a40.08,40.08,0,0,0,24,12.67,41.61,41.61,0,0,0,18-1.34,45.31,45.31,0,0,0,12.25-5.76c.67-.43,1.31-.9,2-1.36A.92.92,0,0,1,179.11,159.29Z" transform="translate(-42.07 -17.23)"/><path class="cls-6" d="M248.94,71.7c-.52-1.23-1-2.48-1.56-3.69-.37-.8-.81-1.57-1.21-2.36a2.23,2.23,0,0,1,.77-1.16.81.81,0,0,0,0,1A14.31,14.31,0,0,1,248.94,71.7Z" transform="translate(-42.07 -17.23)"/><path class="cls-7" d="M229.61,17.34l-3.5.64A11,11,0,0,1,229.61,17.34Z" transform="translate(-42.07 -17.23)"/><path class="cls-8" d="M184,165.79h.36c.56.06.65.28.36.84.1-.34,0-.57-.35-.66A1.3,1.3,0,0,1,184,165.79Z" transform="translate(-42.07 -17.23)"/><path class="cls-8" d="M183.62,165.58a.37.37,0,0,1,.42.21A.61.61,0,0,1,183.62,165.58Z" transform="translate(-42.07 -17.23)"/><path class="cls-6" d="M244.38,69.36A25.55,25.55,0,0,1,246,73.67a43,43,0,0,1,1.48,7.46,33.58,33.58,0,0,1,.12,4.6,1.46,1.46,0,0,0,0,1c-.14,1.12-.15,2.25-.28,3.37a42.07,42.07,0,0,1-2.49,10.31A38.47,38.47,0,0,1,239,110.61a35.76,35.76,0,0,1-17,11.81,33.56,33.56,0,0,1-7.09,1.45,11.09,11.09,0,0,0-2.15.19,20.84,20.84,0,0,1-2-2.57,5.38,5.38,0,0,1-.55-4.43,14,14,0,0,0,.59-4.17c0-.42-.07-.84-.1-1.26.51-.28,1,0,1.55,0a22.1,22.1,0,0,0,13.34-2.79,5.1,5.1,0,0,0,2-2.38c.16-.36.05-.62-.3-.7a2.76,2.76,0,0,0-2.61.37,16.15,16.15,0,0,1-9.29,4,15.13,15.13,0,0,1-4.74-.35,1.16,1.16,0,0,1-.61-.29c-1.25-3.18-3.52-5.59-5.93-7.9-.58-.55-1.34-.93-1.73-1.68,1.53-.59,3.07-1.15,4.59-1.76a31.78,31.78,0,0,0,3.92-1.84,3.23,3.23,0,0,1,.42-.2,5.26,5.26,0,0,0,2.86-2.26c.12-.35.44-.65.22-1.07-.51-1.27-1.64-1.36-2.76-1.46a38.71,38.71,0,0,0-11.15,1c-2,.42-4,.93-6,1.3a1.08,1.08,0,0,1-1.25-.66,19.81,19.81,0,0,0-2.78-3.33,20,20,0,0,1-3.45-5.79c-1.43-3.11-2.32-6.45-3.91-9.49-1.21-2.3-2.23-4.7-3.61-6.9a4.57,4.57,0,0,0,2.46-.84A23.14,23.14,0,0,0,185.37,64a49.31,49.31,0,0,1,5.82-4.88,16.39,16.39,0,0,1,3-1.53,1.59,1.59,0,0,1,1.23.1c.13.06.22.16.17.29-.25.69.06,1.38,0,2.09a7.69,7.69,0,0,1-3.1,5.39c-.79.56-.65,1.21.22,1.43,0,0,.05.05.07.08a1,1,0,0,1-.75.14,23.51,23.51,0,0,0-3.36.23,7.86,7.86,0,0,0-1.73.45,3.59,3.59,0,0,0-1.39,1,16.39,16.39,0,0,0-2.31.29c-.26.08-.49.19-.48.48a5.81,5.81,0,0,0,.7,3.32,2,2,0,0,0,.63.62.82.82,0,0,1,.45.68,17.07,17.07,0,0,0,1.34,4.95,18.32,18.32,0,0,0,4.06,6.09A7.58,7.58,0,0,0,195,87.37a14.89,14.89,0,0,0,3.65-.18,8.26,8.26,0,0,0,3.47-1.51c.13-.09.3-.16.18-.37s.14-.23.27-.28a9,9,0,0,0,4.58-4.58,42.78,42.78,0,0,0,2.33-5.33c.06-.18.08-.46.41-.31a.86.86,0,0,0,.46.12c1.43,0,2.86.06,4.29-.06a10.59,10.59,0,0,1,2.32,0c.29.11.31.41.39.65a44.28,44.28,0,0,0,3,7.06,8.92,8.92,0,0,0,4.82,4.4,10.52,10.52,0,0,0,2.48.51,13,13,0,0,0,3.53-.07,8,8,0,0,0,5.11-3.13,22,22,0,0,0,2.77-4.25,14.53,14.53,0,0,0,.67-1.5,14.12,14.12,0,0,0,.92-3.18,7.16,7.16,0,0,1,.29-1.52,1.4,1.4,0,0,0,.9-1,23.1,23.1,0,0,0,1.7-2.77,1.55,1.55,0,0,1,.37-.69C244,69.35,244.22,69.4,244.38,69.36Z" transform="translate(-42.07 -17.23)"/><path class="cls-9" d="M185.43,68.72A3.44,3.44,0,0,1,188,67.26a19.23,19.23,0,0,1,4.73-.33,5.74,5.74,0,0,0,2.87.58,15.64,15.64,0,0,0,6.17-1,2.67,2.67,0,0,1,.93-.15c1.91,0,3.82,0,5.72.11a6,6,0,0,1,2.39.62c.59.32.7.56.52,1.2a1.59,1.59,0,0,0-.06.57,6.1,6.1,0,0,1-.09,1.42c.09.18.25.12.38.12.77,0,1.55,0,2.32,0a10.33,10.33,0,0,1,2.08.11c.33,0,.75.14,1,0s0-.58,0-.89a5.73,5.73,0,0,0,0-1.31,1.29,1.29,0,0,1,.22-.85,3.6,3.6,0,0,1,2.16-1.34,11.14,11.14,0,0,1,3-.46,63.7,63.7,0,0,1,7.56.5c1.48.14,3,.17,4.44.36,2.3.3,4.59.61,6.86,1.08a6.26,6.26,0,0,1,2.41.94c.33.23.66.51.4,1a13.73,13.73,0,0,1-2,3.47,2,2,0,0,1-.87.86c-.1.54-.2,1.07-.29,1.61a20.87,20.87,0,0,1-1.08,3.27,6.2,6.2,0,0,1-.6,1.14,1.44,1.44,0,0,0-.27.42,3.46,3.46,0,0,1-.3.57,1.28,1.28,0,0,0-.34.56A12.75,12.75,0,0,1,234.55,85a7.18,7.18,0,0,1-3.33,1,12.44,12.44,0,0,1-5.64-.63,8.39,8.39,0,0,1-4.22-3.77,42,42,0,0,1-2.71-5.81c-.09-.24-.13-.48-.22-.71s-.11-.38-.37-.37c-2.05,0-4.08.16-6.12.11a9.62,9.62,0,0,0-2.21,0,41.76,41.76,0,0,1-2.86,6.41,8.32,8.32,0,0,1-4.41,4,.94.94,0,0,0-.12.09.76.76,0,0,1-.49.29,13.37,13.37,0,0,1-6.56,0,7.59,7.59,0,0,1-3.9-2.63,12.27,12.27,0,0,1-1.69-2.17,5.56,5.56,0,0,0-.68-1.18A16.46,16.46,0,0,1,187.09,74c0-.21-.05-.43-.26-.55A3.23,3.23,0,0,1,185.42,71c-.12-.61,0-1.26-.12-1.89A.35.35,0,0,1,185.43,68.72Z" transform="translate(-42.07 -17.23)"/><path class="cls-6" d="M216,70.61l-2.12-.1c-.79-.06-1.58,0-2.37,0-.17,0-.35,0-.51-.06a4.81,4.81,0,0,0,.08-1.89.31.31,0,0,1,0-.25c.28-.57.23-.75-.32-1a6.43,6.43,0,0,0-2.72-.64c-2.1-.13-4.2-.08-6.31-.1a.2.2,0,0,1,.21-.11,4.83,4.83,0,0,0,2.61-2,12.09,12.09,0,0,0,1.17-1.83,1.79,1.79,0,0,0,.25-1.22.46.46,0,0,1,.1-.34,1.28,1.28,0,0,0,.2-1.21l.49-1.9a3.23,3.23,0,0,1,1.31-.77,10.88,10.88,0,0,0,1.57-.77,17.17,17.17,0,0,1,5.3-1.77c.55-.12,1.12-.15,1.67-.29a1,1,0,0,1,.52,0,1.49,1.49,0,0,0,.88-.09,1.22,1.22,0,0,1,1.25.09.9.9,0,0,0,.91,0,1.09,1.09,0,0,1,1.15.09.67.67,0,0,0,.66.07,1.4,1.4,0,0,1,1.77.58,8.77,8.77,0,0,1,1,1.62,22,22,0,0,0,4.27,5.89,13.2,13.2,0,0,0,6,3.63,24.5,24.5,0,0,0,5.51.85,2.66,2.66,0,0,0,.63,0c.7-.14,1.33.3,2,.2.17,0,.21.21.3.33.24.31.2.75.5,1h0a5.45,5.45,0,0,0,.32.75h0c-.06.32-.3,0-.43.11a1,1,0,0,0-.61-1,11.61,11.61,0,0,0-3.94-1.15A103.16,103.16,0,0,0,229,66.16a53.07,53.07,0,0,0-7.24-.4,9.64,9.64,0,0,0-3,.6,3.68,3.68,0,0,0-1.6,1.08,4.23,4.23,0,0,0-.53.23,1.34,1.34,0,0,0-.83,1.23A10.77,10.77,0,0,0,216,70.61Z" transform="translate(-42.07 -17.23)"/><path class="cls-6" d="M244.06,68.62c-.21,0-.26-.1-.29-.33-.11-.76-.4-1-1.15-.87a.44.44,0,0,1-.26,0,2.14,2.14,0,0,0-1.58-.25,22.87,22.87,0,0,1-3.87-.39,13.86,13.86,0,0,1-3.72-1.08A14.37,14.37,0,0,1,230.44,64,23.34,23.34,0,0,1,226,59a12,12,0,0,1-1.09-1.92,11.93,11.93,0,0,0-1.22-2c-.23-.3-.6-.4-.87-.67-.11-.11-.32,0-.48.11a.78.78,0,0,1-1.16-.1.5.5,0,0,0-.67-.06c-.5.29-.94.42-1.42-.09a.64.64,0,0,0-.83,0,.92.92,0,0,1-.68.21,14.58,14.58,0,0,0-4.9.79,12.66,12.66,0,0,0-3.42,1.48,12.32,12.32,0,0,1-1.77.81.92.92,0,0,0-.67,1.05.83.83,0,0,1-.3.86c-.1.07-.14.15-.07.26a1,1,0,0,1-.19,1.32s-.11.12-.1.17c.2,1.27-.61,2.11-1.27,3-.29.39-.63.75-.91,1.14a2.81,2.81,0,0,1-1.94,1,9.21,9.21,0,0,0,4.21-6.48,3.36,3.36,0,0,0,.07-1.78.41.41,0,0,1,.2-.5,2,2,0,0,1,.27-.17,34.5,34.5,0,0,1,5.84-2.74,25.44,25.44,0,0,1,3.69-.65,35.13,35.13,0,0,1,5.89.21,6,6,0,0,1,1.27.08,1,1,0,0,1,.66.47,26.72,26.72,0,0,1,1.76,3,17.1,17.1,0,0,0,11.56,8.76,18.07,18.07,0,0,0,3.19.4,13.17,13.17,0,0,0,2.25-.21.43.43,0,0,1,.46.13A9.45,9.45,0,0,1,244.06,68.62Z" transform="translate(-42.07 -17.23)"/><path class="cls-10" d="M179.11,159.29a44.14,44.14,0,0,1-20.88,8.84,40.32,40.32,0,0,1-31.63-8.59,35.39,35.39,0,0,1-4.63-4.45,20.35,20.35,0,0,0-1.57-3.34A2.79,2.79,0,0,1,120,150a8.52,8.52,0,0,0-.62-3.82c-.84-1.79-1.56-3.64-2.53-5.36a12.25,12.25,0,0,0-1.69-2.1.51.51,0,0,1-.08-.7c.2-.31.37-.64.59-.94a42.76,42.76,0,0,0,2.56-3.56,3.71,3.71,0,0,0,1,1.47,7.35,7.35,0,0,0,2,1,16.4,16.4,0,0,0,8,.54,17.17,17.17,0,0,0,3.93-1.06,5.11,5.11,0,0,0,1.75-1.18,1.52,1.52,0,0,0-.1-2.37,5.09,5.09,0,0,0-2.15-1.11,20.45,20.45,0,0,0-7-.73,13.59,13.59,0,0,0-5.58,1.35c-.32.17-.57.54-1,.5a16.38,16.38,0,0,0,.58-2.95,17.83,17.83,0,0,0-.4-4.61,37.09,37.09,0,0,0-1.28-4.25,8.47,8.47,0,0,1-.46-1.78c.09-.26.33-.23.53-.26a33.85,33.85,0,0,0,10-3.34,41.2,41.2,0,0,0,5.36-3.61,55.13,55.13,0,0,0,5.16-4.49,7.2,7.2,0,0,1,1.48-1.27l4.76.35c1.73.11,3.45.22,5.18.3,3,.13,5.91.22,8.86.17s6.08-.11,9.12-.29c.21,0,.43,0,.64,0a.63.63,0,0,1,.25.45,15.16,15.16,0,0,0,2.76,5.57,81.75,81.75,0,0,0,5.35,6.92c1.52,1.6,3.13,3.12,4.74,4.63a52.2,52.2,0,0,0,6.23,4.4c.32.22.65.43.63.89a22.43,22.43,0,0,0,.94,2.76,3.42,3.42,0,0,0,.13.34,2.24,2.24,0,0,1-.45,2.85c-1.49,1.54-1.65,3.43-1.31,5.44a23,23,0,0,0,1.08,4.09.9.9,0,0,1,0,.8c-.51,1.11-1,2.22-1.51,3.33,0,.13-.09.27-.24.33a10.23,10.23,0,0,0-3.89,2.94c-.62.72-1.32,1.38-1.91,2.13a10.19,10.19,0,0,0-1.92,4.86A5,5,0,0,1,179.11,159.29Z" transform="translate(-42.07 -17.23)"/><path class="cls-11" d="M96.29,122.81a33.3,33.3,0,0,1-25.15-8.48A37.65,37.65,0,0,1,58.8,92.59,43.79,43.79,0,0,1,58,81.35a40,40,0,0,1,4.44-16c.67-1.32,1.39-2.62,2.18-3.88a2.68,2.68,0,0,1,1.26,0,30.29,30.29,0,0,0,13.4-2.63,52.78,52.78,0,0,0,6.09-3.1c.23-.13.48-.22.72-.33.08.22-.1.31-.22.42s-.32.22-.35.41.08.09.1.08c.69-.59,1.66-.83,2.06-1.75a14.3,14.3,0,0,1,9.68-1.83,9.47,9.47,0,0,1,3.69,1.5c.6.41,1.22.79,1.83,1.18a2.06,2.06,0,0,1,.56.54.82.82,0,0,0,1,.42,33.12,33.12,0,0,1,3.35,2.3c2.36,1.69,4.58,3.54,6.87,5.32a48.74,48.74,0,0,0,5.18,3.59c.18.11.35.24.52.35-.14.16-.29.09-.45,0-.4-.21-.73-.57-1.22-.62s-1-.45-1.6-.43a35,35,0,0,0-8.07-1.37c-2.64-.26-5.27-.54-7.91-.78a29.32,29.32,0,0,0-3.75-.14,2.77,2.77,0,0,0-2.64,2.22A5,5,0,0,0,94.62,69c.09.49,0,.59-.53.6-1,0-2,0-3,0a9,9,0,0,1-1.37,0c-.2-.11-.11-.28-.08-.42a3.29,3.29,0,0,0,.07-.83,1.39,1.39,0,0,0-1.09-1.48,3.22,3.22,0,0,1-.44-.14A2.72,2.72,0,0,0,86.52,66a11.46,11.46,0,0,0-1.17-.21.76.76,0,0,1-.16,0,2.57,2.57,0,0,0-.68,0,13.67,13.67,0,0,0-1.69-.09l-4-.06c-1.52,0-3,0-4.55.09-1.36.09-2.72.07-4.08.18-2.06.15-4.13.13-6.18.43A2.51,2.51,0,0,0,63,66.6a.64.64,0,0,0-.23,1,1.71,1.71,0,0,1,.3,1.24,5.66,5.66,0,0,0,.07,1.48,4.07,4.07,0,0,0,.26,1.38,4.2,4.2,0,0,0,.63,1c.13.29.49.27.66.49a2.31,2.31,0,0,1,.16.78,7.45,7.45,0,0,0,.4,1.93c.09.34.16.68.28,1s.23.57.32.87a3.1,3.1,0,0,1,.15.52,11.14,11.14,0,0,0,1.34,2.91,17.7,17.7,0,0,0,3.17,3.94,1.21,1.21,0,0,0,.49.31,7.68,7.68,0,0,0,3.14,1.33,15,15,0,0,0,3.42.14,10.55,10.55,0,0,0,3.1-.62A8.84,8.84,0,0,0,85.19,82a45.8,45.8,0,0,0,3-7.11c.08-.23.11-.5.39-.59a7.1,7.1,0,0,1,1.84,0c1.66.16,3.31.06,5,.1a3,3,0,0,1,.42,0c.4.06.47.4.58.68a45.77,45.77,0,0,0,2.45,5.21A9.58,9.58,0,0,0,101,82.79a1.45,1.45,0,0,1,.4.42,8.73,8.73,0,0,0,1.87,1.92A7.31,7.31,0,0,0,105,86.21c.1,0,.24.07.22.25-.93-.13-1.85-.3-2.78-.36a11.81,11.81,0,0,0-6,.78,4.76,4.76,0,0,0-2,2.17,3.67,3.67,0,0,0-.27,1.6.75.75,0,0,0,.4.76,8.82,8.82,0,0,1,1.82,1.26,45.37,45.37,0,0,0,9.17,5l2.89,1.17c-.17.4-.72.6-.62,1.15,0,0-.11.09-.16.13a10.62,10.62,0,0,0-3.82,5.35,41.13,41.13,0,0,0-2.31,8.62A7.53,7.53,0,0,1,99.59,118,29.61,29.61,0,0,0,96.29,122.81Z" transform="translate(-42.07 -17.23)"/><path class="cls-12" d="M200.07,100.69c.26.1.54.33.78.29,1-.18,1.56.43,2.14,1a23.17,23.17,0,0,1,4.87,6.22,12.06,12.06,0,0,1,1.34,5.45,28.82,28.82,0,0,1-.66,4.11,5.62,5.62,0,0,0,.93,4.28c.93,1.31,2.05,2.47,2.9,3.83a12.22,12.22,0,0,1,1.91,4.79,7.05,7.05,0,0,1-.87,4.64c-.38.64-.75,1.28-1.11,1.93a2,2,0,0,0,.49,2.46,15.1,15.1,0,0,1,2.78,4,10.49,10.49,0,0,1,1,3.5,5.64,5.64,0,0,1-1.46,3.92,5.15,5.15,0,0,0-1.28,2.17,4.5,4.5,0,0,0,.74,3.16,10.25,10.25,0,0,1,1.48,3.2,5.3,5.3,0,0,1-2.72,5.9,4.7,4.7,0,0,0-1.15.93.77.77,0,0,0,0,1.18,18.11,18.11,0,0,0,1.77,1.49,4.12,4.12,0,0,1,1.56,2.79,3.36,3.36,0,0,1-1.56,3c-.8.62-1.75,1-2.6,1.52a3.67,3.67,0,0,0-.79.62.88.88,0,0,0-.08,1.19c.31.46.63.9.89,1.38.73,1.33.36,2.13-.75,3a7.3,7.3,0,0,1-3.05,1.14,6.86,6.86,0,0,1-3.25.05c-.46-.13-.64.13-.63.62s-.3.53-.61.64a5.37,5.37,0,0,1-3,.2,7.84,7.84,0,0,1-4.34-2.32c0-.17.15-.18.24-.21,2.47-.6,2.69-2.89,1.74-4.6-.12-.21-.28-.41-.41-.61-.37-.58-.31-.86.3-1.19s1.39-.7,2.09-1.05a7.13,7.13,0,0,0,2.43-2,4.16,4.16,0,0,0,.31-4.64,6.28,6.28,0,0,0-1.33-1.89c-.83-.83-.8-1.2.17-1.87a12.7,12.7,0,0,0,2.1-1.7,4.11,4.11,0,0,0,.74-4.57,17.82,17.82,0,0,0-1.43-2.28c-.94-1.4-.87-2,.27-3.16a12,12,0,0,0,1.76-2.38,5.68,5.68,0,0,0,.15-5.34,22.23,22.23,0,0,0-2.25-3.71,2.58,2.58,0,0,1-.19-2.83,18.85,18.85,0,0,0,1.3-3.07,9.11,9.11,0,0,0-.51-5.78,33.92,33.92,0,0,0-2.61-5.09,9,9,0,0,1-.87-6.94,21.43,21.43,0,0,0,.81-6.27,14.11,14.11,0,0,0-1.69-6.22,3.22,3.22,0,0,0-.69-.93,3,3,0,0,1-.9-2c-.07-.35-.15-.69-.22-1C198,101.21,199,101,200.07,100.69Z" transform="translate(-42.07 -17.23)"/><path class="cls-13" d="M188.38,128.75a1.57,1.57,0,0,0-.67-.77c-1.8-1.19-3.64-2.31-5.37-3.61a14.74,14.74,0,0,1-1.61-1.46c-1.39-1.43-2.92-2.73-4.26-4.21-1.8-2-3.25-4.23-4.87-6.35a16.84,16.84,0,0,1-2.8-5.08c-.15-.45-.26-.92-.38-1.38a10.48,10.48,0,0,1,2.09-.18c3.05-.21,6.08-.5,9.1-.89,4.11-.53,8.2-1.17,12.24-2.1h.26c-.14.11-.28.16-.17.44a37.79,37.79,0,0,1,1.89,7.94,39.7,39.7,0,0,0,2.07,7.48,59.36,59.36,0,0,0,5.21,10,10.85,10.85,0,0,0,1.66,2.12c.47.48.4.84-.19,1.16a3.3,3.3,0,0,1-2.21.32c-1.38-.27-2.8-.3-4.17-.61a19,19,0,0,1-6.54-2.49c-.34-.22-.72-.38-1.08-.57S188.44,128.68,188.38,128.75Z" transform="translate(-42.07 -17.23)"/><path class="cls-12" d="M107.35,118.22a4.49,4.49,0,0,1-1.73,2.41c-.7.65-1.46,1.23-2.16,1.87a23.31,23.31,0,0,0-3.38,3.57,10.82,10.82,0,0,0-1.88,5,16.86,16.86,0,0,0,.93,6.91,27,27,0,0,1,.82,2.79c.11.6,0,.85-.65,1a10.37,10.37,0,0,0-3,.93,5,5,0,0,0-2.74,4.45,13.8,13.8,0,0,0,1.35,6.36,13.2,13.2,0,0,0,1.43,2.28c.22.28.24.41-.1.6A4.6,4.6,0,0,0,93.68,160a4.53,4.53,0,0,0,.79,2.75c.77,1.33,1.84,2.45,2.74,3.7.4.55.84,1.08,1.28,1.61.18.21.11.27-.11.36a4.87,4.87,0,0,0-.84.45,1.1,1.1,0,0,0-.2,1.87,14.51,14.51,0,0,0,2.91,2.19,25.1,25.1,0,0,0,4.37,2.48.57.57,0,0,1,.29.3,6.61,6.61,0,0,0,1.53,1.71,1.35,1.35,0,0,0-1,1.14,1.25,1.25,0,0,1-1.48.73c-1.75-.31-3.54-.43-5.27-.76a28,28,0,0,1-6.27-1.64,6.1,6.1,0,0,1-2.53-2.11,44.14,44.14,0,0,1-2.6-3.86,3.76,3.76,0,0,1-.25-.58,1.52,1.52,0,0,1,.61-1.93,4.93,4.93,0,0,1,1.6-.68c1-.28,1-.42.65-1.35-.76-1.86-1.55-3.71-2.3-5.58a8.18,8.18,0,0,1-.65-2.87A3,3,0,0,1,89.23,155a6.09,6.09,0,0,0,.61-.17c1.09-.36,1.36-.86,1.1-2a24.48,24.48,0,0,0-1.75-4.76,9.3,9.3,0,0,1-1.08-4.43,7.35,7.35,0,0,1,1.58-4.18,8,8,0,0,1,4.81-3,6.54,6.54,0,0,0,1-.3,1.76,1.76,0,0,0,1.24-2.24A36.14,36.14,0,0,1,96,129.2a13.17,13.17,0,0,1,1.22-5.43,28.37,28.37,0,0,1,4.32-6.76,5.1,5.1,0,0,0,1-2.71,37.06,37.06,0,0,1,1.24-5.3,29.64,29.64,0,0,1,1.53-4.73,9.18,9.18,0,0,1,3.25-4.08,5.38,5.38,0,0,1,1.55-.78,4.35,4.35,0,0,1,1.06.33c0,.29-.2.4-.38.53a10,10,0,0,0-4.06,7.72,23.81,23.81,0,0,0,.47,5.78,1.43,1.43,0,0,1,0,.58c-.18.39-.57.51-.9.69-.53.29-1.08.53-1.58.87-.74.5-.73,1,0,1.45a7.17,7.17,0,0,0,1.92.61C107,118,107.19,118,107.35,118.22Z" transform="translate(-42.07 -17.23)"/><path class="cls-14" d="M140.19,64.8a8.9,8.9,0,0,1,5.13,1.55,2.75,2.75,0,0,1,.8.9A1.68,1.68,0,0,0,147,68a13.54,13.54,0,0,1,3,1.64,5.12,5.12,0,0,0,3.87,1.06A10,10,0,0,0,159.44,68a18.83,18.83,0,0,1,3.1-2.46c1.84-1.06,3.75-2,6-1.72a5.3,5.3,0,0,1,4.24,2.86,27,27,0,0,1,2,6.06,62.73,62.73,0,0,0,4,11.21,58,58,0,0,0,3.06,5.85,1.65,1.65,0,0,1,.31.84c0,.88-.1,1.09-1,1.19a1.69,1.69,0,0,1-1.7-.61,2.78,2.78,0,0,0-1-.82c-1.85-.92-2.72-2.55-3.48-4.35-1.61-3.82-2.61-7.83-3.86-11.76a65.22,65.22,0,0,0-2.27-6.93c-.74-1.7-1.07-1.86-2.59-.86-.47.31-.94.62-1.42.92a5.85,5.85,0,0,0-1.5,1.31,11.05,11.05,0,0,1-4.87,3.16,18.58,18.58,0,0,1-5.44,1,13.46,13.46,0,0,1-5.32-1,17.38,17.38,0,0,1-4.54-2.75,2.36,2.36,0,0,1-.68-.8,2.73,2.73,0,0,0-2.11-1.24,2.87,2.87,0,0,0-2.27.67,10.07,10.07,0,0,0-3.36,4.07c-1.68,3.46-3.29,7-4.72,10.53a20.1,20.1,0,0,1-2.18,4.7,5.89,5.89,0,0,1-3.07,2.41,1.94,1.94,0,0,1-.89.07c-.71-.14-1.25-.4-1-1.38a9.46,9.46,0,0,1,.6-1.64c1.18-2.29,2-4.76,3-7.1.32-.71.64-1.42,1-2.12q1.74-3.54,3.49-7.08a10.09,10.09,0,0,1,4.55-4.49,9.79,9.79,0,0,1,3.11-.81A6.12,6.12,0,0,1,140.19,64.8Z" transform="translate(-42.07 -17.23)"/><path class="cls-15" d="M107.35,118.22a13.21,13.21,0,0,1-2.15-.52,3,3,0,0,1-.48-.22c-.89-.52-.88-1.17,0-1.72s1.68-.8,2.43-1.37a.81.81,0,0,1,.34-.32,66.6,66.6,0,0,0,6.14-4.71,29.21,29.21,0,0,0,5.66-6.63c.14-.2.39-.36.28-.66l4.76,1c3.17.65,6.35,1.14,9.56,1.56,1.92.25,3.85.48,5.78.65a.73.73,0,0,1,.19.07c-1.39,1.43-2.83,2.81-4.36,4.1a50.91,50.91,0,0,1-6.71,4.89,29.34,29.34,0,0,1-7.68,3.13c-1.25.32-2.51.58-3.76.85l-4.24.31a32.37,32.37,0,0,1-3.42-.14A10.85,10.85,0,0,1,107.35,118.22Z" transform="translate(-42.07 -17.23)"/><path class="cls-14" d="M147.83,100.91c-1.89,0-3.53,0-5.17-.11-2.81-.22-5.59-.58-8.37-1.06s-5.57-1.2-8.32-1.93c-2.39-.63-4.74-1.41-7.07-2.23a2.7,2.7,0,0,1-1.51-1.53c-.18-.38.16-.57.46-.69a3.22,3.22,0,0,1,2.81.26,28.05,28.05,0,0,0,2.68,1.23A28.82,28.82,0,0,0,130,96.46c1.53.26,3.06.52,4.59.71,1.33.16,2.66.23,4,.34l4.46.4a3.85,3.85,0,0,0,.48,0c2.74,0,5.49.06,8.23,0a43,43,0,0,0,4.94-.37c1.32-.19,2.66-.24,4-.35,2.57-.21,5.14-.45,7.69-.91,1.71-.31,3.45-.46,5.16-.77A61.45,61.45,0,0,0,180,94a41,41,0,0,1,4.35-1.15,2.44,2.44,0,0,1,1.39.19c.61.24.66.64.25,1.15a5.71,5.71,0,0,1-2.65,1.69A78.63,78.63,0,0,1,171.67,99c-2.1.4-4.21.8-6.33,1.12a42,42,0,0,1-4.89.48c-2.93.1-5.86.13-8.79.23C150.3,100.88,149,100.84,147.83,100.91Z" transform="translate(-42.07 -17.23)"/><path class="cls-4" d="M119.57,102.07c.16.14.16.27,0,.45-1,1.4-2,2.82-3.07,4.15a39.77,39.77,0,0,1-5.85,5.23,23.93,23.93,0,0,1-3.53,2.49c-.08-1.1-.33-2.18-.46-3.28a13.36,13.36,0,0,1,.76-6.77,8.93,8.93,0,0,1,3.44-4.3,1.7,1.7,0,0,0,.3-.3c1.33.39,2.66.79,4,1.16S118.11,101.68,119.57,102.07Z" transform="translate(-42.07 -17.23)"/><path class="cls-11" d="M122.89,69.4a25.68,25.68,0,0,0,2.92,1.34,1.09,1.09,0,0,0,.56.12,67,67,0,0,1-3.6,7.56c-.89,1.64-1.78,3.29-2.82,4.85a21.59,21.59,0,0,1-4.8,5.33.48.48,0,0,1-.52.14,35.74,35.74,0,0,0-6-1.57.24.24,0,0,1-.08-.06c.24-.24.55-.13.83-.15a8,8,0,0,0,1,0l.17,0a3.68,3.68,0,0,0,.58-.08,7.44,7.44,0,0,0,5.41-3,22.29,22.29,0,0,0,2.32-3.22,22,22,0,0,0,2-5.17,9.24,9.24,0,0,0,.32-1.88.63.63,0,0,1,.32-.57.75.75,0,0,0,.34-.32,4.27,4.27,0,0,0,1-2.58C122.76,69.87,122.69,69.6,122.89,69.4Z" transform="translate(-42.07 -17.23)"/><path class="cls-14" d="M103.15,87.53a5.09,5.09,0,0,1,2.08.34c.2.08.48.19.46.45s-.3.34-.53.37a15.72,15.72,0,0,0-3.9,1.31,4.55,4.55,0,0,0-1.54,1.09,2.78,2.78,0,0,1-3,.23c-.36-.22-.36-.54-.08-1a5.76,5.76,0,0,1,1.8-1.53A10.19,10.19,0,0,1,103.15,87.53Z" transform="translate(-42.07 -17.23)"/><path class="cls-14" d="M205.72,93.8a4,4,0,0,1-1.58-.16c-.17-.08-.39-.15-.41-.37s.16-.37.36-.48a7.13,7.13,0,0,1,2.6-.66,7.69,7.69,0,0,1,4.34.48,2.65,2.65,0,0,1,.66.42.86.86,0,0,1-.25,1.49,2.17,2.17,0,0,1-2.56-.45c-.43-.54-1.11-.44-1.69-.36S206.2,93.77,205.72,93.8Z" transform="translate(-42.07 -17.23)"/><path class="cls-16" d="M110.54,87h-.1a11.28,11.28,0,0,1-2.25,0c-.17,0-.34-.11-.51,0l-1-.22a.1.1,0,0,1,0-.15,6.63,6.63,0,0,1,1.78.08c2.84.19,5.42-.35,7.45-2.55a19.57,19.57,0,0,0,4.61-8.55,16.16,16.16,0,0,0,.43-2.18c.06-.51.33-.7.87-.66,0,0,0,.08,0,.09-.67.28-.58.91-.68,1.45a19.25,19.25,0,0,1-3.49,8.3,11.88,11.88,0,0,1-3.17,3.23,6.26,6.26,0,0,1-3.43,1.07C110.92,87,110.71,86.87,110.54,87Z" transform="translate(-42.07 -17.23)"/><path class="cls-17" d="M214.32,93.9a4.17,4.17,0,0,1-3,2.25,4,4,0,0,1,1.05-.66,1.44,1.44,0,0,0,.21-.53l.53-.85C213.5,93.85,213.93,94,214.32,93.9Z" transform="translate(-42.07 -17.23)"/><path class="cls-18" d="M106.72,86.67v.1a8.39,8.39,0,0,1-1.49-.31,10.92,10.92,0,0,1-3.77-2.86.47.47,0,0,1-.16-.32.69.69,0,0,1,.8.36c.27.71.93,1,1.47,1.47a6.63,6.63,0,0,0,2.65,1.26C106.41,86.42,106.66,86.39,106.72,86.67Z" transform="translate(-42.07 -17.23)"/><path class="cls-19" d="M214.32,93.9c-.34.37-.79.12-1.18.21a1.44,1.44,0,0,0,.07-.79c.4.14.74.34,1.08.09s.1-.39.14-.59C214.77,93.22,214.47,93.55,214.32,93.9Z" transform="translate(-42.07 -17.23)"/><path class="cls-18" d="M107.68,87c.3-.24.6,0,.91,0h1.85a7.8,7.8,0,0,1-1.93.11A2.57,2.57,0,0,1,107.68,87Z" transform="translate(-42.07 -17.23)"/><path class="cls-20" d="M212.09,95.23a1.08,1.08,0,0,1-1,.47C211.43,95.36,211.8,95.37,212.09,95.23Z" transform="translate(-42.07 -17.23)"/><path class="cls-20" d="M212.61,95c.19.28.06.44-.21.53C212.32,95.25,212.3,95,212.61,95Z" transform="translate(-42.07 -17.23)"/><path class="cls-21" d="M87.7,54.6c.18.15.09.27,0,.4-.5.63-1.32.85-1.83,1.47a.34.34,0,0,1-.48,0c-.12-.15,0-.28.13-.41s.51-.27.61-.57A6.92,6.92,0,0,1,87.7,54.6Z" transform="translate(-42.07 -17.23)"/><path class="cls-22" d="M104.49,56.41c-.45.3-.78.28-1-.29a3,3,0,0,0-.57-.67c.29,0,.44.28.6.47a.94.94,0,0,0,1,.37Z" transform="translate(-42.07 -17.23)"/><path class="cls-23" d="M118.91,131.92a10.38,10.38,0,0,1,5-1.82,21.59,21.59,0,0,1,4.17-.19,16.31,16.31,0,0,1,5.56,1.13,2.7,2.7,0,0,1,1.84,1.83,1.51,1.51,0,0,1-.5,1.47,7.35,7.35,0,0,1-3.87,1.93,18.39,18.39,0,0,1-5.81.63,11.69,11.69,0,0,1-6-1.69,2,2,0,0,1-1.09-1.71C118.43,133,118.67,132.44,118.91,131.92Z" transform="translate(-42.07 -17.23)"/><path class="cls-24" d="M112.32,178.13s-.06.07-.1.07-.08,0-.12,0,.07-.09.11-.11S112.31,178,112.32,178.13Z" transform="translate(-42.07 -17.23)"/><path d="M210.08,109.53a15.72,15.72,0,0,0,9.52-.43,16.11,16.11,0,0,0,3.55-2,13.21,13.21,0,0,0,1.78-1.32,3,3,0,0,1,2.74,0c.28.2.27.42.14.73-.81,2-2.55,2.86-4.34,3.65a23.55,23.55,0,0,1-10.88,1.71c-.63,0-1.26-.13-1.89-.2C210.49,110.93,210.28,110.23,210.08,109.53Z" transform="translate(-42.07 -17.23)"/><path class="cls-25" d="M193.5,180.56l.39.34c-.38.21-.6.12-.71-.24S193.36,180.5,193.5,180.56Z" transform="translate(-42.07 -17.23)"/><path class="cls-26" d="M193.5,180.56c-.12,0-.25,0-.32.1-.09-.08-.23-.2-.1-.28S193.41,180.38,193.5,180.56Z" transform="translate(-42.07 -17.23)"/><path d="M106.72,86.67a9.07,9.07,0,0,1-3.21-1.42A14.51,14.51,0,0,1,102.12,84c-.09-.1-.22-.2-.12-.36s.38,0,.55.12a9.1,9.1,0,0,0,3.7.81,16.63,16.63,0,0,0,2.64,0,7.83,7.83,0,0,0,5-2.7,17.05,17.05,0,0,0,3.71-6.42,10.23,10.23,0,0,0,.61-2.68.59.59,0,0,1,.28-.54,2.47,2.47,0,0,0,1.26-1.86,8,8,0,0,0,.16-2.23.42.42,0,0,1,.14-.24l.41.08,2.48,1.43a4.46,4.46,0,0,1-1,3.36c-.64.09-.71.53-.79,1.09a20.76,20.76,0,0,1-2.38,6.82,16.92,16.92,0,0,1-3.33,4.23c-1.93,1.8-4.33,2.08-6.83,1.94C108,86.81,107.34,86.73,106.72,86.67Z" transform="translate(-42.07 -17.23)"/><path class="cls-27" d="M247.54,86.78c-.41-.36-.15-.7,0-1C247.55,86.08,247.54,86.43,247.54,86.78Z" transform="translate(-42.07 -17.23)"/><path class="cls-6" d="M244.38,69.37a1,1,0,0,1-.32-.75A1.27,1.27,0,0,1,244.38,69.37Z" transform="translate(-42.07 -17.23)"/><path d="M216.14,100.39a25.24,25.24,0,0,1-5.55-.65,6.52,6.52,0,0,1-1.66-.68c-.63-.4-.6-.83.06-1.17a2.37,2.37,0,0,1,1.5-.25c1.63.24,3.27.19,4.91.29.3,0,.6.06.89.1s.5,0,.38-.45c-.3-1-.84-2-1.19-3a54.89,54.89,0,0,1-2.78-10.46,17.41,17.41,0,0,1-.21-2.69,3.5,3.5,0,0,1,.11-.79,1,1,0,0,1,1.73-.52,4.49,4.49,0,0,1,1,1.3,51.88,51.88,0,0,1,4,9.5c.51,1.61,1.12,3.2,1.74,4.77a9.34,9.34,0,0,1,.6,3c0,.56-.34.86-.77,1.1a5.24,5.24,0,0,1-2.06.46C218,100.32,217.09,100.34,216.14,100.39Z" transform="translate(-42.07 -17.23)"/><path d="M189.78,80.73a17.87,17.87,0,0,0,2.32,2.81,7.14,7.14,0,0,0,4.68,2.24,13.59,13.59,0,0,0,5.56-.49l.4,0a6.8,6.8,0,0,1-2.24,1.44,11.51,11.51,0,0,1-9-.21,9.55,9.55,0,0,1-3-2.77,20,20,0,0,1-4.05-8.93,1.2,1.2,0,0,1,0-.42.89.89,0,0,0-.55-1,2,2,0,0,1-.91-1.26,8.18,8.18,0,0,1-.34-2.61c0-.4.14-.6.59-.71.62-.14,1.26-.12,1.88-.27a.36.36,0,0,1,.39.09,14.23,14.23,0,0,0,.43,3.38,2,2,0,0,0,1,1.22.42.42,0,0,1,.32.37,16.83,16.83,0,0,0,1.94,6A7.15,7.15,0,0,0,189.78,80.73Z" transform="translate(-42.07 -17.23)"/><path d="M209.73,74.8c0-.23.19-.26.38-.24a69.75,69.75,0,0,0,7.92,0l.21,0c.39.73.56,1.55.9,2.31a26.46,26.46,0,0,0,3.05,5.85,7.7,7.7,0,0,0,5.08,3,15.65,15.65,0,0,0,5.11,0A7.52,7.52,0,0,0,236.81,83c.33-.39.71-.74,1-1.16.06-.08.17-.23.3-.11s0,.19-.05.29a11,11,0,0,1-1.24,1.71,17.17,17.17,0,0,1-2,2.17,7.88,7.88,0,0,1-4.48,1.69,14.43,14.43,0,0,1-4-.22,8.33,8.33,0,0,1-4.45-2.49,13.84,13.84,0,0,1-2.53-4.13,40.38,40.38,0,0,1-2.19-5.56.34.34,0,0,0-.11-.18c-2.28,0-4.56.2-6.84.1C210,75.09,209.74,75.16,209.73,74.8Z" transform="translate(-42.07 -17.23)"/><path class="cls-28" d="M217.06,75c.16,0,.19.18.23.32a43.55,43.55,0,0,0,1.89,4.83,18.18,18.18,0,0,0,2,3.77,8.36,8.36,0,0,0,5.51,3.42,14.93,14.93,0,0,0,3.59.16,7.39,7.39,0,0,0,5.15-2.34,20.48,20.48,0,0,0,2.67-3.38c-.35,0-.39.35-.56.51a6,6,0,0,0-.55.58,7.76,7.76,0,0,1-6.43,3.18,14.4,14.4,0,0,1-4.71-.52,8.09,8.09,0,0,1-2.66-1.59A9.26,9.26,0,0,1,221,81.05a38,38,0,0,1-2.77-6.46c.3,0,.25.31.31.48a36.72,36.72,0,0,0,3,6.6,8.14,8.14,0,0,0,6.57,4.19,13,13,0,0,0,4.84-.3,6.45,6.45,0,0,0,2.41-1.28,17.09,17.09,0,0,0,2.74-3c.13-.15.17-.37.32-.52l.3-.55c.09-.08.14-.2.23-.28s.15-.09.22,0a.14.14,0,0,1,0,.18,18.14,18.14,0,0,1-3.73,5.35,7.55,7.55,0,0,1-5,2.22,14.22,14.22,0,0,1-4.56-.31,8.08,8.08,0,0,1-5.13-3.82,37.37,37.37,0,0,1-3.66-8.37S217.07,75.06,217.06,75Z" transform="translate(-42.07 -17.23)"/><path class="cls-29" d="M239.58,78.71c.39-1.1.78-2.2,1.18-3.3a6.65,6.65,0,0,1-.41,1.75,3.65,3.65,0,0,1-.54,1.45C239.72,78.6,239.72,78.81,239.58,78.71Z" transform="translate(-42.07 -17.23)"/><path class="cls-30" d="M239.58,78.71c.1,0,.09-.22.23-.1a6.69,6.69,0,0,1-.64,1.48c0-.18-.09-.17-.21-.1a.12.12,0,0,1,0-.2Z" transform="translate(-42.07 -17.23)"/><path class="cls-31" d="M241.05,73.8c.17-.41.64-.51.87-.86C241.81,73.41,241.63,73.81,241.05,73.8Z" transform="translate(-42.07 -17.23)"/><path class="cls-32" d="M216,70.61A2.77,2.77,0,0,1,216,68a1.19,1.19,0,0,1,1.16-.53,6.15,6.15,0,0,0,0,2.83c0,.37,0,.42-.34.39S216.28,70.63,216,70.61Z" transform="translate(-42.07 -17.23)"/><path class="cls-33" d="M211,70.42h2.37c.17,0,.35-.05.51.08l-2.67,0C211.14,70.54,211,70.6,211,70.42Z" transform="translate(-42.07 -17.23)"/><path class="cls-34" d="M189.78,80.73a1.65,1.65,0,0,1-.63-1.07A3,3,0,0,1,189.78,80.73Z" transform="translate(-42.07 -17.23)"/><path class="cls-35" d="M238.43,80.74a.72.72,0,0,1-.32.52A.57.57,0,0,1,238.43,80.74Z" transform="translate(-42.07 -17.23)"/><path class="cls-36" d="M239,79.79V80c-.07.07-.09.2-.23.2A.49.49,0,0,1,239,79.79Z" transform="translate(-42.07 -17.23)"/><path d="M153.84,156.78A35.58,35.58,0,0,1,143.13,155a36.14,36.14,0,0,1-5.81-2.15,39,39,0,0,1-9.07-6.32,9.08,9.08,0,0,1-2.65-4.28c-.12-.48-.32-.94-.45-1.41a1.16,1.16,0,0,1,1.08-1.64,3.3,3.3,0,0,1,1.25.13c2.1.5,4.14,1.21,6.26,1.67a74.57,74.57,0,0,0,17.43,1.85,96.65,96.65,0,0,0,12.36-1.08,71.51,71.51,0,0,0,10.93-2.4c.74-.24,1.46-.53,2.18-.81.31-.12.75-.32.89-.09s.62.66.51,1.19a11.23,11.23,0,0,1-.94,2.7,26.65,26.65,0,0,1-9.7,11.2,20.19,20.19,0,0,1-7.5,2.67A50.5,50.5,0,0,1,153.84,156.78Z" transform="translate(-42.07 -17.23)"/><path class="cls-23" d="M178.52,129.49a17.25,17.25,0,0,1,5.14.6,7.15,7.15,0,0,1,3.17,1.92,1.28,1.28,0,0,1-.05,1.89,8,8,0,0,1-3.63,1.84,16.41,16.41,0,0,1-5.87.51,10.33,10.33,0,0,1-5.52-1.75,3,3,0,0,1-.94-1.12,1.88,1.88,0,0,1,.88-2.31,9,9,0,0,1,3.74-1.37A11.56,11.56,0,0,1,178.52,129.49Z" transform="translate(-42.07 -17.23)"/><path d="M135.22,117.77a11.23,11.23,0,0,1,4.83,1,6.26,6.26,0,0,1,3.31,3.63c.13.34.28.74-.11,1a1.05,1.05,0,0,1-1.25,0,5,5,0,0,1-.81-.9L140,121.07a6.4,6.4,0,0,0-5.38-2,8,8,0,0,0-3.55,1.34,10.86,10.86,0,0,0-2.5,2,1.2,1.2,0,0,1-1.5.17,1.09,1.09,0,0,1,0-1.45,9.06,9.06,0,0,1,2.76-2A10,10,0,0,1,135.22,117.77Z" transform="translate(-42.07 -17.23)"/><path d="M168.43,119.18a7.48,7.48,0,0,1,5.81,2.21c.53.52,1.19.89,1.68,1.46.27.3.6.62.25,1.05a1.14,1.14,0,0,1-1.49.14c-1.24-.88-2.36-1.91-3.5-2.9a4.39,4.39,0,0,0-5.57.07c-.82.68-1.49,1.5-2.27,2.23l-1.39,1.3a.88.88,0,0,1-.56.27c-.32,0-.68.07-.87-.25s0-.55.2-.78a16.34,16.34,0,0,1,2.59-3.15,6.76,6.76,0,0,1,4.43-1.64Z" transform="translate(-42.07 -17.23)"/><path class="cls-37" d="M119.79,70.46a2.18,2.18,0,0,1-1.23,1.82c-.2.09-.22.24-.25.43a16.63,16.63,0,0,1-3.89,8.67l-.45.52a7.69,7.69,0,0,1-6,2.87,11.15,11.15,0,0,1-6-1.09,1.37,1.37,0,0,0-.7-.4,14.37,14.37,0,0,1-1.82-1.84,27.86,27.86,0,0,1-2.64-5c-.29-.66-.58-1.33-.86-2s-.9-.76-1.62-.71a32.2,32.2,0,0,1-4.91,0c-.67-.06-1.34,0-2,0-.3,0-.31.24-.38.44A34.17,34.17,0,0,1,84,80.85a8.17,8.17,0,0,1-6.48,4.06,16.23,16.23,0,0,1-4.06-.08,7.9,7.9,0,0,1-4.69-2.77,24.24,24.24,0,0,1-2.59-3.61,3.08,3.08,0,0,1-.43-1,6.49,6.49,0,0,0-.33-.87,3.31,3.31,0,0,1-.2-.68c-.17-.68-.4-1.34-.53-2l-.12-.77c-.16-.15-.07-.39-.19-.55l-.1-.09a2.74,2.74,0,0,0-.42-.21,3,3,0,0,1-.61-.84A6.33,6.33,0,0,1,63,70.39a4.43,4.43,0,0,1-.09-1.21c0-.56.11-1.11-.36-1.61-.33-.35-.13-.82.32-1.11A4,4,0,0,1,64.6,66c1-.11,2-.18,3-.22,3.34-.14,6.68-.37,10-.36,2.34,0,4.67-.08,7,.14.2.12.44,0,.64.1h0a5.82,5.82,0,0,1,2.59,1.23,1.63,1.63,0,0,1,.62,1.45,1.09,1.09,0,0,1,0,.26c-.19,1.08-.18,1.09.9.89a.39.39,0,0,1,.33.07,44.06,44.06,0,0,1,4.45-.08c.36,0,.45-.07.36-.43a4.39,4.39,0,0,1,.42-3,2.68,2.68,0,0,1,2.53-1.55,53,53,0,0,1,7,.46c1.62.19,3.24.3,4.85.47a37.22,37.22,0,0,1,7.26,1.15c.23.07.41.28.68.22.62.34,1.33.45,1.93.83a1.61,1.61,0,0,1,.79,1.8A9,9,0,0,1,119.79,70.46Z" transform="translate(-42.07 -17.23)"/><path d="M89.26,99.33A36.56,36.56,0,0,1,85.4,99a2.64,2.64,0,0,1-.85-.31,1.2,1.2,0,0,1-.7-1.29,10.08,10.08,0,0,1,.71-3c.94-2.22,1.55-4.56,2.42-6.8a47.2,47.2,0,0,1,3.21-7.15,6,6,0,0,1,.87-1.2,1.36,1.36,0,0,1,1.11-.39.69.69,0,0,1,.71.58,8.12,8.12,0,0,1,0,3.22,53.62,53.62,0,0,1-3,11.34c-.33.88-.78,1.7-1,2.61-.1.37,0,.43.33.39,2-.24,4-.11,5.93-.39a2.27,2.27,0,0,1,1.67.38c.37.28.38.56,0,.88a2.34,2.34,0,0,1-.73.43,12.53,12.53,0,0,1-4.18.91C91,99.24,90.17,99.28,89.26,99.33Z" transform="translate(-42.07 -17.23)"/><path d="M91,110.81A21.39,21.39,0,0,1,80,108a5.58,5.58,0,0,1-2.39-2.75c-.16-.35.06-.52.33-.66a3,3,0,0,1,3,.4,17.13,17.13,0,0,0,7.68,3.75,15.05,15.05,0,0,0,11.71-2.71,2.83,2.83,0,0,1,1.89-.72c.35,0,.74,0,.93.39s-.07.65-.26.92a7.16,7.16,0,0,1-2.59,2.14,17.55,17.55,0,0,1-6.53,1.89A23.18,23.18,0,0,1,91,110.81Z" transform="translate(-42.07 -17.23)"/><path d="M87.28,73.53l4.83.09a26.38,26.38,0,0,0,2.81-.09c.91-.08.92,0,1.06.91-2.21.1-4.41,0-6.61-.08-.3,0-.6,0-.9,0-.4.86-.62,1.79-1,2.66A45,45,0,0,1,85,82.44a8.78,8.78,0,0,1-4.66,4,13.52,13.52,0,0,1-4.86.53,11.17,11.17,0,0,1-2.23-.37,7.29,7.29,0,0,1-2.34-1.19,26.42,26.42,0,0,1-2.51-2.67.38.38,0,0,1-.09-.12c-.39-.57-.77-1.14-1.12-1.74a.61.61,0,0,1-.07-.14c-.2-.47-.5-.89-.7-1.36-.08-.2-.19-.39,0-.62.34.44.54.93.85,1.35a12.07,12.07,0,0,0,4.33,4.1,7.14,7.14,0,0,0,2.65.66,12.92,12.92,0,0,0,5.59-.56,8.34,8.34,0,0,0,4.33-3.86,39.64,39.64,0,0,0,2.91-6.52A.89.89,0,0,1,87.28,73.53Z" transform="translate(-42.07 -17.23)"/><path class="cls-38" d="M89.67,69.55l-.37,0c-1.06.11-1.1.11-.93-.88A3.29,3.29,0,0,0,88,66.91a.3.3,0,0,1,.12-.25C89.65,66.93,90.15,67.79,89.67,69.55Z" transform="translate(-42.07 -17.23)"/><path class="cls-39" d="M80.36,86.35a8.8,8.8,0,0,0,4.28-3.49,28,28,0,0,0,2.2-4.46,29.18,29.18,0,0,0,1.41-3.82.24.24,0,0,1,.22-.21,35.31,35.31,0,0,1-3.89,8.85,7.6,7.6,0,0,1-3.87,3.14A.29.29,0,0,1,80.36,86.35Z" transform="translate(-42.07 -17.23)"/><path class="cls-40" d="M80.36,86.35h.35a5,5,0,0,1-2,.57,12.18,12.18,0,0,1-6.36-.54,14.09,14.09,0,0,1-1.5-.89c-.08,0-.18-.09-.13-.22a.1.1,0,0,1,.13,0c2.41,1.79,5.13,1.83,7.94,1.43C79.31,86.63,79.83,86.48,80.36,86.35Z" transform="translate(-42.07 -17.23)"/><path class="cls-41" d="M70.72,85.29l.11.21a4.48,4.48,0,0,1-1.51-1.36,15.76,15.76,0,0,1-2.73-4,5.86,5.86,0,0,1-.76-1.89.14.14,0,0,1,.15,0c.38.87.76,1.73,1.22,2.55h0a15.54,15.54,0,0,0,1.17,1.81h0C69.15,83.53,69.89,84.46,70.72,85.29Z" transform="translate(-42.07 -17.23)"/><path class="cls-42" d="M88.09,66.9a3.12,3.12,0,0,1,.23,2.48c0,.18,0,.22.19.21h.79c-.3.18-.62.07-.93.08s-.25-.15-.22-.33,0-.35.09-.52a1.73,1.73,0,0,0-.93-2.16,17.78,17.78,0,0,0-2-1,3.51,3.51,0,0,1,1.28.21,8.31,8.31,0,0,1,1.21.57C87.92,66.55,88.09,66.67,88.09,66.9Z" transform="translate(-42.07 -17.23)"/><path class="cls-43" d="M63.29,71.45l.63.79a1.13,1.13,0,0,0,.43.2h0c.19.14.24.37.1.5s-.36-.11-.55-.16a3.54,3.54,0,0,1-.63-1A.35.35,0,0,1,63.29,71.45Z" transform="translate(-42.07 -17.23)"/><path class="cls-44" d="M119,67.67c-.59-.31-1.31-.35-1.81-.86.58,0,1,.41,1.59.44.18.22.63.13.64.55C119.28,67.9,119.17,67.73,119,67.67Z" transform="translate(-42.07 -17.23)"/><path class="cls-45" d="M64.66,73.91a10.65,10.65,0,0,1,.62,2,.11.11,0,0,1-.18,0A5.92,5.92,0,0,1,64.66,73.91Z" transform="translate(-42.07 -17.23)"/><path class="cls-46" d="M88.09,66.9c-.29-.45-.81-.56-1.24-.8-.12-.07-.26-.1-.31-.24a2.09,2.09,0,0,1,1.6.8Z" transform="translate(-42.07 -17.23)"/><path class="cls-47" d="M65.5,76.59c.07.3.37.5.33.84-.08.07,0,.16,0,.25a.14.14,0,0,1-.08.09,2.61,2.61,0,0,1-.31-.86C65.36,76.78,65.26,76.63,65.5,76.59Z" transform="translate(-42.07 -17.23)"/><path class="cls-48" d="M119.46,67.77c-.12-.28-.51-.24-.64-.52a3.16,3.16,0,0,1,1.18.64l0,.18A.39.39,0,0,1,119.46,67.77Z" transform="translate(-42.07 -17.23)"/><path class="cls-49" d="M63.29,71.45l0,.37A3.21,3.21,0,0,1,63,70.39,5.69,5.69,0,0,1,63.29,71.45Z" transform="translate(-42.07 -17.23)"/><path class="cls-50" d="M65.5,76.59c-.12.08-.09.21-.11.32a2.68,2.68,0,0,1-.29-1h.18C65.23,76.21,65.54,76.34,65.5,76.59Z" transform="translate(-42.07 -17.23)"/><path class="cls-51" d="M63.89,72.78H64c.13,0,.25.2.36.07s0-.28-.06-.42c.39.14.14.46.2.7A.76.76,0,0,1,63.89,72.78Z" transform="translate(-42.07 -17.23)"/><path class="cls-47" d="M65.93,78.29h-.1c0-.17-.08-.34-.13-.51l0,0C66,77.87,66.07,78,65.93,78.29Z" transform="translate(-42.07 -17.23)"/><path class="cls-42" d="M85.27,65.65c-.22,0-.45.08-.64-.1C84.84,65.55,85.07,65.49,85.27,65.65Z" transform="translate(-42.07 -17.23)"/><path class="cls-52" d="M123.46,103.93c.13.48-.14.65-.52.8C123,104.37,123.27,104.2,123.46,103.93Z" transform="translate(-42.07 -17.23)"/><path class="cls-18" d="M110.54,87c.16-.18.36-.09.55-.1C110.93,87.05,110.73,87,110.54,87Z" transform="translate(-42.07 -17.23)"/><path class="cls-53" d="M119.46,67.77l.5.3a5.85,5.85,0,0,1-.17,2.39c0-.51.1-1,.11-1.53a.79.79,0,0,0-.46-.85.88.88,0,0,1-.4-.41Z" transform="translate(-42.07 -17.23)"/><path class="cls-54" d="M65.93,78.29a.68.68,0,0,0-.2-.54c0-.12,0-.24.1-.32a18.17,18.17,0,0,0,2.38,3.79c.3.35.61.69.91,1a7.29,7.29,0,0,0,4.61,2.5,14,14,0,0,0,4.91-.16,8.2,8.2,0,0,0,5.54-4.34A39,39,0,0,0,87,73.85c0-.13,0-.34.26-.32a31.22,31.22,0,0,1-3.54,7.72,7.64,7.64,0,0,1-5.41,3.54,15.65,15.65,0,0,1-5.2,0,7.46,7.46,0,0,1-4.31-2.6,16.13,16.13,0,0,1-2.42-3.26A4.66,4.66,0,0,0,67,80.21c.12.21.27.38.23.63A9.65,9.65,0,0,1,65.93,78.29Z" transform="translate(-42.07 -17.23)"/><path class="cls-51" d="M64.35,72.44c-.19,0-.35,0-.43-.2A.72.72,0,0,1,64.35,72.44Z" transform="translate(-42.07 -17.23)"/><path class="cls-54" d="M70.72,85.29a13.12,13.12,0,0,1-2.35-2.64,4.23,4.23,0,0,1,1,1l1.49,1.62Z" transform="translate(-42.07 -17.23)"/><path class="cls-54" d="M68.37,82.65a4.53,4.53,0,0,1-1.17-1.81A9.83,9.83,0,0,1,68.37,82.65Z" transform="translate(-42.07 -17.23)"/></svg>