<svg id="Layer_1" data-name="Layer 1" xmlns="http://www.w3.org/2000/svg" viewBox="0 0 126.57 151.76"><defs><style>.cls-1{fill:#2e282a;}.cls-2{fill:#76b941;}.cls-3{fill:#e2562e;}.cls-4{fill:#17bdba;}</style></defs><path class="cls-1" d="M154.63,28a43.63,43.63,0,0,1,27.16,10.62A48.72,48.72,0,0,1,199,68.77c1.65,10,.34,19.54-4.66,28.38-6.13,10.84-15.44,17.28-27.81,19-9.44,1.33-18.25-.75-26.53-5.34-.42-.23-.66-.26-.94.17s-.58.74-.86,1.12a1.37,1.37,0,0,1-1.31.74c-.3-.05-.4.24-.55.42q-5.56,6.83-11.11,13.67-14.39,17.74-28.74,35.5c-4,5-8.2,9.94-12.4,14.84a7.37,7.37,0,0,1-8.34,1.84,6,6,0,0,1-1.79-1,3.16,3.16,0,0,1-.57-3.54,7.29,7.29,0,0,1,1.52-2.64A14.38,14.38,0,0,0,76,170.45a2.36,2.36,0,0,1,1.15-1,1.12,1.12,0,0,0,.47-.39C88.6,155,99.79,141,111,127.05c5.4-6.69,10.72-13.44,16.1-20.15a36.13,36.13,0,0,0,2.37-3.26c.46-.73.44-1-.16-1.59a49,49,0,0,1-14.18-37.32c.51-8.08,2.8-15.56,7.86-22A36.44,36.44,0,0,1,144.57,28.9,47.57,47.57,0,0,1,154.63,28Z" transform="translate(-73.07 -27.97)"/><path class="cls-2" d="M118.56,69.61a43,43,0,0,1,9.21-26.86,33,33,0,0,1,10.31-8.66,35.7,35.7,0,0,1,11.28-4,32.18,32.18,0,0,1,11.16.15,40.37,40.37,0,0,1,19.91,10,46.26,46.26,0,0,1,10.72,14.15,47.25,47.25,0,0,1,4.59,15,43.94,43.94,0,0,1,.42,6.05,42.34,42.34,0,0,1-4.62,19.62,35.85,35.85,0,0,1-13.71,14.78,33.54,33.54,0,0,1-13.61,4.56A35.89,35.89,0,0,1,144.5,111a25.06,25.06,0,0,1-3.73-2c-1.33-.93-2.67-1.87-4-2.87-1.7-1.3-3.39-2.62-5-4a27.09,27.09,0,0,1-4.93-6A49.16,49.16,0,0,1,119.12,77,39.14,39.14,0,0,1,118.56,69.61Z" transform="translate(-73.07 -27.97)"/><path class="cls-2" d="M76.58,176.2A6.15,6.15,0,0,1,78,172.43a12.7,12.7,0,0,0,1.72-2.71,10.33,10.33,0,0,1,1.57-2q10.18-12.47,20.22-25.05c4.43-5.57,8.81-11.17,13.24-16.74,4.85-6.09,9.74-12.16,14.59-18.25.29-.37.46-.34.76-.05,1.44,1.4,3,2.68,4.54,3.94.33.28.28.47.05.75q-2.94,3.54-5.86,7.1-5.46,6.61-10.94,13.24c-3.25,3.93-6.53,7.85-9.79,11.79-3.58,4.33-7.13,8.7-10.72,13-3.39,4.07-6.78,8.13-10.11,12.25-1.73,2.13-3.43,4.28-5,6.52a7.05,7.05,0,0,1-2.36,2C78.72,178.87,76.36,178,76.58,176.2Z" transform="translate(-73.07 -27.97)"/><path class="cls-3" d="M131.93,104.91l.29.25c1.47,1.28,3,2.47,4.58,3.6.3.21.4.38.12.66s-.47,1.11-.93,1.1-.7-.61-1.06-1c-1.19-1.11-2.39-2.22-3.58-3.35-.11-.1-.4-.18-.23-.41A3.3,3.3,0,0,1,131.93,104.91Z" transform="translate(-73.07 -27.97)"/><path class="cls-1" d="M191,73.16A35.24,35.24,0,0,1,183,95.85a30.58,30.58,0,0,1-19.51,11.38,32.15,32.15,0,0,1-18.15-2.49,36.57,36.57,0,0,1-13.17-9.62,38.79,38.79,0,0,1-8.92-17.52,36.45,36.45,0,0,1-1-8.8,37.31,37.31,0,0,1,8.55-23.45,30.62,30.62,0,0,1,27.37-10.88,36.37,36.37,0,0,1,16.3,6.15,20.45,20.45,0,0,1,2.87,2.29,2,2,0,0,1,.77,1.15c0,.12.16.23.26.32a36.34,36.34,0,0,1,7,8.6,39.8,39.8,0,0,1,5,12.93A34,34,0,0,1,191,73.16Z" transform="translate(-73.07 -27.97)"/><path class="cls-4" d="M187.66,71.18a35.72,35.72,0,0,1-3,15.1c-4.19,9.51-11.15,16-21.44,18.22a26.52,26.52,0,0,1-22-4.58,34.12,34.12,0,0,1-12.59-17.68,39.56,39.56,0,0,1-1.72-14.89A33.67,33.67,0,0,1,132.82,50a30.16,30.16,0,0,1,14.47-11.51A26.89,26.89,0,0,1,173,41.89a32.89,32.89,0,0,0,3.65,2.47,8.14,8.14,0,0,1,1.91,1.89,36.12,36.12,0,0,1,8.74,18.94A43,43,0,0,1,187.66,71.18Z" transform="translate(-73.07 -27.97)"/><path class="cls-1" d="M168.05,49.23a3.42,3.42,0,0,1-1.46-.58,12,12,0,0,0-6.14-1.45,23.3,23.3,0,0,0-6.81,1.13,25.73,25.73,0,0,0-10.3,5.87c-.94.9-1.84,1.86-2.74,2.81a.94.94,0,0,1-.82.31,4,4,0,0,1-2.55-1.2A.94.94,0,0,1,137,55a11.86,11.86,0,0,1,3.64-4.64,24.67,24.67,0,0,1,9.66-5.29c5.26-1.41,10.43-1.43,15.39,1.18a8.09,8.09,0,0,1,2.67,2.12.66.66,0,0,1,.18.68C168.47,49.23,168.29,49.23,168.05,49.23Z" transform="translate(-73.07 -27.97)"/></svg>