<svg id="Layer_1" data-name="Layer 1" xmlns="http://www.w3.org/2000/svg" viewBox="0 0 132.47 157.82"><defs><style>.cls-1{fill:#2e282a;}.cls-2{fill:#a1a1a1;}.cls-3{fill:#818181;}.cls-4{fill:#e3572e;}.cls-5{fill:#17bdba;}.cls-6{fill:#fec814;}.cls-7{fill:#fefefa;}.cls-8{fill:#75b941;}.cls-9{fill:#fdfdfd;}.cls-10{fill:#fcfcfc;}.cls-11{fill:#666364;}.cls-12{fill:#474344;}.cls-13{fill:#7367ef;}.cls-14{fill:#7267ef;}.cls-15{fill:#2f292a;}.cls-16{fill:#76b941;}.cls-17{fill:#fefefe;}.cls-18{fill:#2e292b;}.cls-19{fill:#2f292b;}.cls-20{fill:#495044;}.cls-21{fill:#4c5152;}.cls-22{fill:#4c4c4d;}.cls-23{fill:#70ad3f;}.cls-24{fill:#72b240;}.cls-25{fill:#455731;}.cls-26{fill:#669b3c;}.cls-27{fill:#e2562e;}</style></defs><path class="cls-1" d="M126.51,75l-1.61-1.09c-.87-.57-1.71-1.17-2.52-1.82-.43-.34-.44-.55-.06-.91,1.8-1.69,3.59-3.38,5.4-5a.44.44,0,0,0,.08-.67,20.26,20.26,0,0,1-1.59-2.79.37.37,0,0,0-.41-.25c-1.86,0-3.71-.25-5.56-.41a2.56,2.56,0,0,1-.93-.24c-.35-.17-.57-.41-.41-.85a1.91,1.91,0,0,0,0-.59c-.1-2.69-.19-5.39-.3-8.08a.71.71,0,0,1,.44-.72,2.52,2.52,0,0,1,1.3-.24,22.8,22.8,0,0,1,4.19.55c.32.07.42,0,.57-.3a7.94,7.94,0,0,1,2.71-3.12c.32-.22.32-.32,0-.57-1.62-1.48-3.22-3-4.84-4.47-.34-.31-.35-.59,0-.88a71.11,71.11,0,0,1,6.69-4.63,2.06,2.06,0,0,1,2.89.69,25.65,25.65,0,0,1,2.21,3.61c.12.24.2.32.46.16a15.71,15.71,0,0,1,3.07-1.39c.19-.07.25-.14.21-.34a38.24,38.24,0,0,1-.19-5,.63.63,0,0,1,.43-.66,2.9,2.9,0,0,1,1-.22c2-.14,4.06-.31,6.09-.34a4.7,4.7,0,0,1,.65,0c.84.06,1.11.32,1.09,1.16-.05,1.62-.1,3.25-.2,4.87a.71.71,0,0,0,.52.82c1.07.48,2.13,1,3.18,1.54.29.15.43.1.6-.14.84-1.12,1.77-2.15,2.69-3.2a1.92,1.92,0,0,1,2.81-.14c1.61,1.59,3.13,3.28,4.67,4.94a.5.5,0,0,1,0,.75c-1.43,1.81-2.77,3.68-4.35,5.37-.19.19-.21.31,0,.52a5.43,5.43,0,0,1,1,1.54.48.48,0,0,0,.53.32,60,60,0,0,1,6.15.29,4.6,4.6,0,0,1,.74.14.79.79,0,0,1,.59.94c-.2,2.2-.37,4.41-.55,6.61-.09,1.15-.35,1.43-1.51,1.47-1.48.05-3,.09-4.44,0a.6.6,0,0,0-.68.35,6.71,6.71,0,0,1-1.28,1.71c-.24.24-.26.38,0,.65,1,1.26,2,2.55,3.06,3.8.37.44.32.72-.07,1.13-1.13,1.18-2.21,2.41-3.31,3.63.11.15.26.1.4.11,3.51.12,7,.37,10.52.7.34,0,.53,0,.5-.41-.33-4.61-.14-9.22,0-13.82,0-.22,0-.43,0-.65,0-.84.14-1,1-1.13,1.16-.11,2.32-.16,3.48-.24,9-.57,18.05-.72,27.09-.84a3.37,3.37,0,0,1,1.37.18.66.66,0,0,1,.46.69c-.1,7.26-.05,14.51,0,21.76a.77.77,0,0,1-.69.85,10.57,10.57,0,0,1-1.87.15l-2.43.11c.09.23.31.25.47.33a19.73,19.73,0,0,1,5.35,3.6,9,9,0,0,1,2.17,4c.7,2.34.2,4.63.09,6.92A119.1,119.1,0,0,1,204.12,109c-.29,1.74-.61,3.48-.91,5.22,0,.19-.07.38-.12.65a9.25,9.25,0,0,1,3.35-1,9.55,9.55,0,0,1,5.91,1,8.14,8.14,0,0,1,4,6.12c.77,4.56-.55,8.63-3.11,12.34a15,15,0,0,1-7.3,5.9,11,11,0,0,1-8.11-.05,7.79,7.79,0,0,1-.76-.39l-.71-.45c-.47,1.15-.93,2.29-1.41,3.41a85,85,0,0,1-13,21.66A47.75,47.75,0,0,1,167,175.6c-11.15,5.59-22.31,5.4-33.39-.24a48.94,48.94,0,0,1-14-11.14,88.34,88.34,0,0,1-14.44-22.63c-1.43-3.13-2.72-6.32-3.9-9.56-.08-.23-.07-.51-.51-.4A12.33,12.33,0,0,1,89,128.24a15.09,15.09,0,0,1-4.82-9.49,10.19,10.19,0,0,1,1-6,8.15,8.15,0,0,1,7.18-4.48,8.45,8.45,0,0,1,2.19.08c.34.06.44,0,.37-.37-.73-3.89-1.27-7.82-1.73-11.75-.22-1.93-.35-3.88-.44-5.82a5.67,5.67,0,0,1,1.5-3.91,17.35,17.35,0,0,1,5.5-4.19,38,38,0,0,1,5.18-2.3c.49-.18.45-.33.19-.68-3-4.12-6.1-8.24-9-12.46a19.75,19.75,0,0,1-2-3.22c-.08-.18-.18-.18-.33-.13a.76.76,0,0,1-.83-.34,19,19,0,0,1-1.72-2c-.32-.47-.54-.94-.08-1.46.15-.16.05-.27-.07-.4-.44-.49-.87-1-1.31-1.49-.17-.19-.35-.37-.25-.65s-.06-.21-.17-.28a1.82,1.82,0,0,1-1-2.38A6.51,6.51,0,0,1,90,51.29a14.76,14.76,0,0,1,8.06-4.35,5,5,0,0,1,2,.05,1.74,1.74,0,0,1,.69.26,21,21,0,0,0,1.73,1.24A6.14,6.14,0,0,1,104,50.05c.14.21.28.41.57.43a.39.39,0,0,1,.31.19,29.12,29.12,0,0,1,2.37,3.43,42.4,42.4,0,0,0,2.5,4A49.3,49.3,0,0,0,114.21,64c.92,1.06,1.56,2.35,2.51,3.4,1.19,1.32,2.06,2.87,3.14,4.26a31.84,31.84,0,0,1,2.75,3.69.29.29,0,0,0,.3.18Z" transform="translate(-84.07 -21.87)"/><path class="cls-1" d="M166.86,34.59a29.82,29.82,0,0,1,.29-5.64c.06-.37.1-.78.51-1a1,1,0,0,1,1.59.57,23.58,23.58,0,0,1,1.11,5.39c.51,4.65.76,9.32,1.16,14,0,.4.11.52.53.45,1.11-.19,2.23-.32,3.34-.48.17,0,.38,0,.29-.29a27.9,27.9,0,0,1-.76-6c-.13-2.09-.23-4.18-.37-6.26a.89.89,0,0,1,.7-1,3.82,3.82,0,0,1,.73-.16c1.07-.16,1.4.1,1.45,1.18.14,3.16.5,6.3.56,9.47a14.34,14.34,0,0,1-.15,2.45c0,.3,0,.39.34.35.85-.11,1.7-.21,2.55-.28.32,0,.32-.16.26-.41a26.77,26.77,0,0,1-.62-6.12c0-.47-.05-1,.5-1.25a2.43,2.43,0,0,1,2.07-.14c.29.12.34.4.36.67a27.35,27.35,0,0,1-.15,6.52c-.08.44,0,.51.44.46,1.31-.15,2.62-.28,3.94-.41.21,0,.34-.06.26-.32a35.22,35.22,0,0,1-1-7.85c-.21-2.86-.2-5.74-.49-8.61a.62.62,0,0,1,.36-.65,2.93,2.93,0,0,1,2.13-.3.6.6,0,0,1,.53.62c.1,2.18.37,4.34.57,6.51.24,2.63.51,5.26.49,7.91a11.32,11.32,0,0,1-.18,2c-.08.39.05.45.41.42.94-.11,1.88-.18,2.83-.26a3,3,0,0,1,1.36.22c.49.2.53.56.11.89a3,3,0,0,1-1.49.57c-3.1.49-6.22.82-9.35,1.17-3.56.39-7.13.77-10.71,1l-3.9.3a3.92,3.92,0,0,1-.59,0c-.83-.08-1-.25-1.08-1.07q-.39-5.73-.77-11.44C167,36.63,166.92,35.54,166.86,34.59Z" transform="translate(-84.07 -21.87)"/><path class="cls-1" d="M109.77,36.69a3.68,3.68,0,0,1,2.12.6c.26.17.36.17.5-.13C114,33.59,115.6,30,117.2,26.47c.56-1.23,1.07-2.49,1.65-3.72a1.44,1.44,0,0,1,1.29-.86,8.31,8.31,0,0,1,2.28.25c1.65.3,3.29.65,5,.84a2.72,2.72,0,0,1,1.26.44.71.71,0,0,1,.29,1c-1.21,2.12-2.34,4.29-3.74,6.3a2.43,2.43,0,0,1-2.15,1,22.08,22.08,0,0,1-4.51-.56c-.35-.08-.48,0-.63.32-1.27,2.62-2.37,5.31-3.8,7.85A15.3,15.3,0,0,1,111.4,43a4.42,4.42,0,0,1-5.2.72,2.68,2.68,0,0,1-1.35-3.49A5.24,5.24,0,0,1,109.77,36.69Z" transform="translate(-84.07 -21.87)"/><path class="cls-2" d="M204.12,93c-.12,1.08-.22,2.16-.34,3.23q-.5,4.34-1.14,8.65c-.52,3.54-1.2,7.06-1.95,10.56a140.07,140.07,0,0,1-5.79,19.65,99.26,99.26,0,0,1-11,21.42,65.74,65.74,0,0,1-8.69,10.36,42.8,42.8,0,0,1-13.64,9.1A28.16,28.16,0,0,1,150,178.05a30.35,30.35,0,0,1-12.52-3.36,46,46,0,0,1-10.06-6.94,73.12,73.12,0,0,1-14.46-18.41,124.7,124.7,0,0,1-12-30.15c-1.56-5.91-2.74-11.89-3.7-17.91-.26-1.62-.44-3.25-.67-5a27.7,27.7,0,0,0,2.94,1.8,57.2,57.2,0,0,0,13,4.53,120.59,120.59,0,0,0,14.88,2.48c3.92.43,7.85.71,11.79.87,3.61.14,7.21.22,10.82.15,5.07-.09,10.13-.35,15.18-.84a131,131,0,0,0,21.07-3.63,59.16,59.16,0,0,0,11.6-4.21A21.31,21.31,0,0,0,204.12,93Z" transform="translate(-84.07 -21.87)"/><path class="cls-3" d="M169.09,79.7a2.51,2.51,0,0,0-.3,1.34c0,.26.17.45.4.58a3.07,3.07,0,0,0,1.45.32c3,0,6-.17,9-.31,2.79-.13,5.59-.23,8.39-.35,1.49-.06,3,0,4.48-.22a7.63,7.63,0,0,1,4.8,1.26,18.17,18.17,0,0,1,3.77,2.62,5.94,5.94,0,0,1,2.1,3.8A4.93,4.93,0,0,1,202,92.29a15.72,15.72,0,0,1-5.3,4,53.46,53.46,0,0,1-10.94,4,117.89,117.89,0,0,1-13.43,2.6c-3.16.44-6.32.82-9.5,1.07-2.14.17-4.27.3-6.4.43-5.07.3-10.14.26-15.21.16-3.33-.06-6.66-.28-10-.58-2.75-.25-5.5-.54-8.23-.93a101.62,101.62,0,0,1-10.08-1.89,50,50,0,0,1-11.4-4,16.11,16.11,0,0,1-4.35-3.07,4.13,4.13,0,0,1-1.28-2.74c0-.09,0-.2,0-.26-.74-.86-.22-1.71.12-2.48a8.77,8.77,0,0,1,3.18-3.47,30.73,30.73,0,0,1,7.07-3.64.46.46,0,0,1,.62.21c2,2.67,4,5.36,6.1,8a6.85,6.85,0,0,0,2.35,1.84c2,1,4.09,2,6.2,2.9a25.57,25.57,0,0,0,3.9,1.32c.1,0,.23.09.3.06.88-.4,1.9-.48,2.63-1.23a1.23,1.23,0,0,0,.35-1.11c-.31-2.71-.67-5.41-1-8.11a18.37,18.37,0,0,0-.59-2.86,11.05,11.05,0,0,0-1.93-3.3c-.48-.65-.84-1.36-1.36-2.06,1-.25,1.91-.31,2.82-.47.46-.08.92-.14,1.38-.2a2.48,2.48,0,0,1,1.2.12,2.2,2.2,0,0,0,2.48-.4,1.12,1.12,0,0,1,.75-.25c1.61-.16,3.22-.3,4.84-.45.34,0,.48.06.46.43,0,.87,0,1.75,0,2.63a.7.7,0,0,0,.56.78,4.2,4.2,0,0,0,1.21.2c1.68.06,3.35.17,5,.15a8.56,8.56,0,0,0,1.6,0c.7-.13.94-.36.93-1,0-1-.06-2.07-.11-3.11,0-.31,0-.47.42-.49a45.4,45.4,0,0,1,6.8,0c1.18.1,2.33-.06,3.49,0,3.71.16,7.41.33,11.1.68.16,0,.32,0,.49,0a.67.67,0,0,1,.27.6c.07.59.17,1.17.26,1.75h0c.14.16,0,.38.11.54a.54.54,0,0,0,.12.41c.12.27-.05.35-.26.38A1.17,1.17,0,0,0,169.09,79.7Z" transform="translate(-84.07 -21.87)"/><path class="cls-4" d="M121.7,56.15c0-.86,0-1.72,0-2.57,0-.38.09-.52.48-.47a21.09,21.09,0,0,0,3.37.1c.55,0,1.07,0,1.42-.72a9.9,9.9,0,0,1,1.16-1.36,15.25,15.25,0,0,0,1.09-1.45c.28-.48.56-.94,1.2-1a.62.62,0,0,0,.53-.54c0-.31-.25-.39-.48-.5a1.4,1.4,0,0,1-.32-.28c-1.29-1.31-2.56-2.64-3.86-3.94-.26-.27-.29-.39.06-.62,1.24-.8,2.48-1.62,3.69-2.47.33-.24.46-.15.65.13a21.61,21.61,0,0,0,2.89,3.37,2.82,2.82,0,0,0,1,.67c.38.13.74.15,1-.25s.52-.31.8-.37a9,9,0,0,0,2.73-1.19,1.46,1.46,0,0,1,.69-.26,1,1,0,0,0,1.15-1,8.28,8.28,0,0,0,.22-1.85c0-1.06,0-2.11,0-3.16,0-.31.06-.36.33-.37,1,0,2.07-.11,3.1-.19.35,0,.47.08.47.44q0,2.36.09,4.71c.05,1,.54,1.41,1.5,1.18a1.31,1.31,0,0,1,1.09.19,26.38,26.38,0,0,1,2.73,1.69c.13.1.28.14.21.36-.13.44.17.58.51.63a1.77,1.77,0,0,0,1.48-.48,27.61,27.61,0,0,0,3-3.1c.29-.33.42-.39.75,0,.86.95,1.77,1.86,2.7,2.75.33.32.29.5,0,.81-1.1,1.34-2.18,2.69-3.26,4a12.39,12.39,0,0,0-.71,1.07c-.23.38-.16.62.22.76a.94.94,0,0,1,.63.72,3.39,3.39,0,0,0,.18.39,3.22,3.22,0,0,0,3.33,2.29c1.23,0,2.46.14,3.69.19.33,0,.4.09.38.43-.09,1.64-.29,3.27-.28,4.92,0,.82,0,.81-.82.8l-1.61,0a3.51,3.51,0,0,1-1.2-.16,1.91,1.91,0,0,0-1.27,0c-.4.13-.72.34-.56.86a.48.48,0,0,1-.19.52,4.32,4.32,0,0,0-.83,1c-.15.25-.28.29-.56.16a1.89,1.89,0,0,0-1.51,0c-.48.17-.56.41-.31.85a29.1,29.1,0,0,0,2.66,3.48c.44.55.89,1.08,1.35,1.6.22.25.22.41,0,.65-.95,1-1.87,1.92-2.78,2.91-.27.29-.43.31-.71,0A28.55,28.55,0,0,0,152,69.52a1.87,1.87,0,0,0-1.6-.59c-.55.11-.68.31-.48.81.11.27,0,.37-.18.5-1,.54-2,1.1-3.05,1.67a.66.66,0,0,1-.55,0c-1.17-.29-1.85.07-1.84,1.3,0,1.52-.06,3-.08,4.55,0,.36-.09.46-.46.43-.87,0-1.75,0-2.63,0s-.79.11-.78-.8a24.67,24.67,0,0,0-.11-4.12,2.93,2.93,0,0,0-.22-.87.76.76,0,0,0-.74-.54c-1.26.09-2.34-.53-3.51-.81a4.42,4.42,0,0,0-.52-.14c-.33-.07-.53-.18-.48-.6s-.32-.64-.77-.53a2.3,2.3,0,0,0-1,.57A21.17,21.17,0,0,0,130,73.9c-.24.34-.39.43-.78.17-1.22-.85-2.47-1.64-3.71-2.44-.23-.14-.27-.23-.07-.43l4.12-4.29a1.82,1.82,0,0,1,.36-.22c.3-.19.38-.36.15-.73-.35-.55-.34-1.26-.64-1.86-.4-.81-.69-1.69-1.14-2.47s-.83-1.43-1.71-1.22c-1.47.35-2.9,0-4.35,0-.36,0-.45-.13-.45-.47,0-1.27,0-2.54,0-3.8Z" transform="translate(-84.07 -21.87)"/><path class="cls-5" d="M171.29,79.17a6.85,6.85,0,0,0,.56-2.59,55.15,55.15,0,0,0,.4-8.12c-.05-2.82-.06-5.64-.26-8.46,0-.44.09-.57.54-.58,3.11,0,6.22,0,9.32-.12,3.91-.11,7.81-.28,11.72-.43,1.81-.08,3.63-.18,5.45-.29.43,0,.59.09.59.55q.12,9.85.13,19.71c0,.51-.13.66-.65.67-4.49.09-9,.21-13.48.31-3.13.08-6.25.14-9.37.2l-3.27.1a.62.62,0,0,1-.63-.27,1.46,1.46,0,0,0-1-.5A.19.19,0,0,1,171.29,79.17Z" transform="translate(-84.07 -21.87)"/><path class="cls-6" d="M117.05,84.87c-.56-.27-1.11-.55-1.68-.81a1.88,1.88,0,0,0-2.5,1,2.64,2.64,0,0,0-.1.27,3,3,0,0,1-.69-.82c-3.32-4.57-6.76-9-10.22-13.49-1.94-2.5-3.87-5-5.94-7.38-.23-.27-.73-.49-.64-.82s.55-.4.85-.59c2.85-1.88,5.7-3.75,8.54-5.64.32-.22.45-.21.68.13,3.74,5.5,7.54,10.94,11.52,16.25,1.65,2.21,3.27,4.43,5,6.55.18.22.26.38,0,.61a1.59,1.59,0,0,0-.47,1.28c0,.56-.19.52-.57.27s-.81-.46-1.22-.67a1.73,1.73,0,0,0-2.31,1.34c-.06.8-.14,1.6-.22,2.4C117.1,84.79,117.07,84.82,117.05,84.87Z" transform="translate(-84.07 -21.87)"/><path class="cls-3" d="M212.71,123.91a17.54,17.54,0,0,1-4.22,10.31,12.55,12.55,0,0,1-4.7,3.62c-2.18.94-3.67.49-5.43-1.42-.06-.06-.09-.16-.16-.2-.84-.55-.66-1.2-.37-2a129,129,0,0,0,4.57-16.14c.15-.68.29-1.36.43-2,0-.19.11-.3.32-.22a3.36,3.36,0,0,0,2.1-.13,9.32,9.32,0,0,1,2.09-.41A4.34,4.34,0,0,1,211,117.2C212.33,118.92,212.74,120.94,212.71,123.91Z" transform="translate(-84.07 -21.87)"/><path class="cls-3" d="M93.58,109.69c1.58,0,1.58,0,1.89,1.51a164.83,164.83,0,0,0,4.47,16.9,8.28,8.28,0,0,0,.34,1c.12.28,0,.35-.25.44-2.76,1.09-5.06.16-7.09-1.7a14.35,14.35,0,0,1-4.69-9.24,9.86,9.86,0,0,1,.68-5.29,5.53,5.53,0,0,1,3.78-3.49A4.47,4.47,0,0,1,93.58,109.69Z" transform="translate(-84.07 -21.87)"/><path class="cls-7" d="M123.78,81.94a3.44,3.44,0,0,1,1,1.13,3.23,3.23,0,0,1,.82,2c0,1.19.14,2.38.24,3.58a.82.82,0,0,1-.38.9q-1.53,1-3,2c-.25.17-.43,0-.65,0q-2.34-1-4.71-1.91a5.31,5.31,0,0,0-.87-.23c-.78-.17-.78-.16-.77-.93,0-.36,0-.71,0-1.07s.1-.33.34-.2.73.37,1.11.54a1.81,1.81,0,0,0,2.38-1.48c0-.64.09-1.28.11-1.92,0-.36.08-.47.42-.24s.91.56,1.35.86a1,1,0,0,0,.92.11,2.08,2.08,0,0,0,1.61-2C123.7,82.69,123.74,82.35,123.78,81.94Z" transform="translate(-84.07 -21.87)"/><path class="cls-8" d="M104.45,55.37c0,.24-.22.29-.36.38L98.9,58.94c-1.12.7-2.24,1.4-3.34,2.12-.29.19-.44.19-.62-.13a10.23,10.23,0,0,0-.82-1.24c-.19-.25-.15-.38.09-.56,2.23-1.56,4.46-3.14,6.68-4.72.51-.36,1-.73,1.51-1.1.21-.17.36-.17.52.06s.58.59.72,1c.09.28.56.4.68.76A1.07,1.07,0,0,0,104.45,55.37Z" transform="translate(-84.07 -21.87)"/><path class="cls-5" d="M97.63,48.71a2.76,2.76,0,0,1,1.66.45c.21.15.26.24,0,.42l-8.17,6.07c-.26.2-.39.1-.55-.12a2.11,2.11,0,0,1,.07-2.46,11.32,11.32,0,0,1,5-3.94A6.51,6.51,0,0,1,97.63,48.71Z" transform="translate(-84.07 -21.87)"/><path class="cls-8" d="M100.47,50.54c.23.16.46.3.66.47s.87.3.84.68-.56.43-.86.65c-2.62,1.89-5.23,3.77-7.83,5.68-.4.3-.57.35-.84-.16-.57-1.13-.6-1.11.43-1.85l7.27-5.27Z" transform="translate(-84.07 -21.87)"/><path class="cls-9" d="M133,74.23c.37-.67.71-1.27,1-1.88.13-.23.3-.11.47-.06a24.87,24.87,0,0,0,2.95.72c.19,0,.5-.05.47.35s-.14.5-.51.52c-1,.06-2.1.15-3.14.24Z" transform="translate(-84.07 -21.87)"/><path class="cls-10" d="M152.73,73.4h-5.62c.85-.42,1.69-.87,2.53-1.31.46-.24,1-.68,1.38-.63s.66.73,1,1.11S152.44,73.05,152.73,73.4Z" transform="translate(-84.07 -21.87)"/><path class="cls-11" d="M171.29,79.17c0,.06,0,.12,0,.18a5.08,5.08,0,0,0-2.22.35c.07-.23.28-.29.48-.32s.35-.12.37-.35A1.64,1.64,0,0,0,171.29,79.17Z" transform="translate(-84.07 -21.87)"/><path class="cls-12" d="M169.71,78.08a6.19,6.19,0,0,1-.31-1.54,2.08,2.08,0,0,0-.22-.81.23.23,0,0,1,.26.2A9.18,9.18,0,0,1,169.71,78.08Z" transform="translate(-84.07 -21.87)"/><path class="cls-12" d="M169.82,78.62c-.15-.15-.1-.35-.11-.54C169.9,78.23,169.81,78.44,169.82,78.62Z" transform="translate(-84.07 -21.87)"/><path class="cls-13" d="M118.61,30.08c.26-.6.51-1.12.73-1.67q.94-2.36,1.85-4.73a.47.47,0,0,1,.64-.35,30.7,30.7,0,0,0,4.28.65c.43,0,.53.14.31.57a63.06,63.06,0,0,1-3.1,5.5,1,1,0,0,1-1.09.48A32,32,0,0,0,118.61,30.08Z" transform="translate(-84.07 -21.87)"/><path class="cls-14" d="M106.67,41.3a4.61,4.61,0,0,1,2.78-3.7,2.19,2.19,0,0,1,2.06,1.25.48.48,0,0,1-.09.35,18.29,18.29,0,0,1-2,3.27c-.32.41-.65,1-1.32.79a1.91,1.91,0,0,1-1.4-1.65C106.68,41.48,106.68,41.36,106.67,41.3Z" transform="translate(-84.07 -21.87)"/><path class="cls-1" d="M151.18,156.46c-3-.08-6-.36-9-.63a25.34,25.34,0,0,1-2.61-.26,2.51,2.51,0,0,1-.6-.21.57.57,0,0,1-.34-.86c2.38-5.78,4.7-11.58,7.46-17.19a30.65,30.65,0,0,1,2.6-4.42,1.31,1.31,0,0,1,.84-.54c.95-.18,1.34.21,1.15,1.15a48.35,48.35,0,0,1-2.81,8.47c-1.56,3.86-3.23,7.66-4.93,11.46-.05.11-.08.23-.14.34s0,.32.21.33.78.05,1.18.06c2.81.08,5.63.16,8.44.45.61.07,1.23.19,1.84.29a1.57,1.57,0,0,1,.31.08c.32.13.67.3.67.68s-.38.5-.69.56A14.74,14.74,0,0,1,151.18,156.46Z" transform="translate(-84.07 -21.87)"/><path class="cls-1" d="M168.87,130.27a17.57,17.57,0,0,1-12.47-5.36,12.88,12.88,0,0,1-2.61-3.76,2.07,2.07,0,0,1-.17-1.55.94.94,0,0,1,.67-.67,2.87,2.87,0,0,1,3.12,1c.92,1.15,1.73,2.37,2.67,3.49a13.45,13.45,0,0,0,7.42,4.88,12.65,12.65,0,0,0,7.39-.77,24.17,24.17,0,0,0,7.67-5c1-.93,2.1-1.82,3.2-2.69a1.86,1.86,0,0,1,1.11-.47c.68,0,.9.27.64.89a9.48,9.48,0,0,1-2,3,22.3,22.3,0,0,1-16.63,7.07Z" transform="translate(-84.07 -21.87)"/><path class="cls-1" d="M125.88,128.48c-3.43,0-6.26-.63-8.72-2.42a11.47,11.47,0,0,1-4.59-7c-.27-1.22-.21-1.5,1.18-1.82a5,5,0,0,1,1.54,0c1,.11,1.37.82,1.65,1.61a15.39,15.39,0,0,0,2.44,4.79,7.83,7.83,0,0,0,7.69,3,25,25,0,0,0,9.48-3.92c1.85-1.18,3.65-2.43,5.48-3.64a3.67,3.67,0,0,1,1.75-.76c.28,0,.61-.06.78.22s-.06.55-.23.77a15,15,0,0,1-2.62,2.66,29.77,29.77,0,0,1-12.39,6.16A15.34,15.34,0,0,1,125.88,128.48Z" transform="translate(-84.07 -21.87)"/><path class="cls-1" d="M159.36,77.33c1.47.07,2.93-.15,4.39-.1.87,0,1,.12,1.21.94a29.89,29.89,0,0,1,.8,5.8,24,24,0,0,0,.41,3.39,4.5,4.5,0,0,0,1,1.83c1.34,1.71,2.92,3.23,4.11,5.06a25.45,25.45,0,0,0,1.94,2.88c.43.51.3.84-.34,1.07a6.55,6.55,0,0,1-2.31.42c-2.64,0-5.26.52-7.9.35-3.09-.2-6.18.14-9.26,0a8.35,8.35,0,0,1-1.43-.16c-.72-.17-.83-.42-.52-1.07a20.72,20.72,0,0,1,1.75-2.94l2.24-3.33a3.45,3.45,0,0,0,.61-2.12c-.07-2.17-.09-4.35-.16-6.53,0-.71,0-1.43-.06-2.12,0-.48-.3-1-.39-1.51s-.11-.74-.17-1.11.14-.66.58-.66C157,77.41,158.18,77.26,159.36,77.33Z" transform="translate(-84.07 -21.87)"/><path class="cls-1" d="M129.18,57.25a12.1,12.1,0,0,1,3.43-8.46,13.84,13.84,0,0,1,12-4.65,10,10,0,0,1,5.67,2.15c.24.2.48.39.44.74,0,.19.13.23.23.32a11.9,11.9,0,0,1,4.34,11.17,12.79,12.79,0,0,1-11.4,11.32c-4.49.56-8.49-.57-11.6-4A11.88,11.88,0,0,1,129.18,57.25Z" transform="translate(-84.07 -21.87)"/><path class="cls-1" d="M197.3,68.49a7.15,7.15,0,0,1-2,4.81,12.89,12.89,0,0,1-7.3,4,13.84,13.84,0,0,1-9.28-1,6.17,6.17,0,0,1-3.61-4.57,6.3,6.3,0,0,1,1.51-5A12.8,12.8,0,0,1,185,62a13.78,13.78,0,0,1,8.79,1.24,6.18,6.18,0,0,1,3.42,4.29C197.27,67.9,197.27,68.26,197.3,68.49Z" transform="translate(-84.07 -21.87)"/><path class="cls-15" d="M104.39,61.9c.26,0,.34.2.45.35,1.15,1.61,2.32,3.21,3.46,4.83,2.6,3.7,5.16,7.41,7.67,11.17.11.16.33.31.17.56s-.48.29-.72,0c-.8-1.09-1.6-2.19-2.37-3.31-2.93-4.24-5.9-8.46-8.74-12.77a1.73,1.73,0,0,1-.2-.32C104,62.09,104.19,62,104.39,61.9Z" transform="translate(-84.07 -21.87)"/><path class="cls-15" d="M99.87,64c.25,0,.32.15.41.27.86,1.12,1.71,2.24,2.55,3.37,3.2,4.29,6.43,8.57,9.55,12.91.1.13.22.24.32.37s.22.37,0,.55-.41.09-.58-.14c-1.17-1.59-2.35-3.18-3.52-4.78L99.91,64.8a2.82,2.82,0,0,1-.24-.36C99.53,64.18,99.74,64.1,99.87,64Z" transform="translate(-84.07 -21.87)"/><path class="cls-16" d="M153.24,98.13a8.59,8.59,0,0,1,1.08-2c.67-1,1.38-2.08,2.07-3.12.13-.2.2-.32.47-.12a1.91,1.91,0,0,0,1.65.19,1.83,1.83,0,0,1,.93,0,2.28,2.28,0,0,0,1.9-.26.53.53,0,0,1,.79.09c1.07,1.25,2.48,1.08,3.68,0,.28-.24.55-.5.84-.74a.63.63,0,0,1,1,.08,21.73,21.73,0,0,1,2.54,3.43,7.52,7.52,0,0,0,1.21,1.43c.1.09.25.2.21.35s-.22.15-.35.16a12.58,12.58,0,0,1-1.5.09c-2-.08-3.94.28-5.92.22q-1.84-.06-3.69-.09c-2.09,0-4.17.29-6.26.22Z" transform="translate(-84.07 -21.87)"/><path class="cls-7" d="M166.8,91.51a3.62,3.62,0,0,0-2.29,1.28c-.33.3-.56.36-.9-.05a2.62,2.62,0,0,0-3.27-.5,1.22,1.22,0,0,1-.8.12,2.66,2.66,0,0,0-1.48.07,1.68,1.68,0,0,1-1.21,0c1.52-2,1.14-4.3,1-6.54a28.24,28.24,0,0,0-.59-4.93c-.07-.27.05-.29.26-.29,1.84,0,3.68,0,5.52,0,.34,0,.36.14.36.41a35,35,0,0,0,.51,6,4.83,4.83,0,0,0,1.14,2.32C165.62,90.1,166.18,90.77,166.8,91.51Z" transform="translate(-84.07 -21.87)"/><path class="cls-5" d="M163.68,80.19l-6-.29c-.11,0-.23,0-.26-.13-.11-.47-.23-.93-.31-1.41-.05-.28.2-.24.36-.25,1.81,0,3.61,0,5.41,0,.27,0,.34.14.39.34C163.38,79,163.53,79.58,163.68,80.19Z" transform="translate(-84.07 -21.87)"/><path class="cls-7" d="M152.78,56.15a12.4,12.4,0,0,1-5,9.95,8.09,8.09,0,0,1-11.66-1.28,11.6,11.6,0,0,1-2.36-10.7,10.76,10.76,0,0,1,5.42-7.41,7.79,7.79,0,0,1,6.77-.46,13.93,13.93,0,0,1,2,1,1.35,1.35,0,0,0,.53.25,2.18,2.18,0,0,1,1.56,1.08A11.77,11.77,0,0,1,152.78,56.15Z" transform="translate(-84.07 -21.87)"/><path class="cls-17" d="M185.15,76.17A7.78,7.78,0,0,1,181,75a5.23,5.23,0,0,1-2-6.88,8.86,8.86,0,0,1,5.91-4.59,8.47,8.47,0,0,1,5.91.08,5.47,5.47,0,0,1,3.63,5.29,6.24,6.24,0,0,1-1.9,4A10.58,10.58,0,0,1,185.15,76.17Z" transform="translate(-84.07 -21.87)"/><path class="cls-18" d="M162.88,84.93a.73.73,0,0,1-.19,1.09,1.75,1.75,0,0,1-1.85-.12.93.93,0,0,1,.32-1.64c.47-.14,1-.31,1.39.24,0,.27-.22.24-.37.31s-.31,0-.31.2,0,.27.18.22A.6.6,0,0,1,162.88,84.93Z" transform="translate(-84.07 -21.87)"/><path class="cls-19" d="M160.18,82.16a.71.71,0,0,1-.37,1.11,1.57,1.57,0,0,1-1.84-.39.91.91,0,0,1,.66-1.44,1.23,1.23,0,0,1,1.13.27c.06.17-.09.21-.18.29l-.2.08c-.14.12-.21.24,0,.38.08-.1.07-.25.17-.33A1.3,1.3,0,0,1,160.18,82.16Z" transform="translate(-84.07 -21.87)"/><path class="cls-18" d="M160.81,89a.74.74,0,0,1-.78.85c-.71.07-1.24-.19-1.35-.68s.09-.86.7-1.06a1.46,1.46,0,0,1,1,0c.27.1.43.25.34.56a.75.75,0,0,1-.61.17s-.12,0-.13,0,.09,0,.14.06A1.28,1.28,0,0,1,160.81,89Z" transform="translate(-84.07 -21.87)"/><path class="cls-20" d="M162.88,84.93c-.32,0-.64.06-.76.44a.44.44,0,0,1,0-.63l.45-.24Z" transform="translate(-84.07 -21.87)"/><path class="cls-21" d="M159.53,81.93l.23-.22c.18.11.42.17.42.45a.57.57,0,0,1-.64,0A.17.17,0,0,1,159.53,81.93Z" transform="translate(-84.07 -21.87)"/><path class="cls-22" d="M160.09,88.8l.62-.11c.06.1.15.19.1.33-.24.12-.48,0-.72,0A.14.14,0,0,1,160.09,88.8Z" transform="translate(-84.07 -21.87)"/><path class="cls-1" d="M180.24,72c.16-1.75.31-3.57.59-5.37,0-.3.26-.41.5-.5a3.3,3.3,0,0,1,1.59-.08c3,.49,5.89,1.11,8.82,1.73a2.53,2.53,0,0,1,.36.12c.19.07.37.17.39.39s-.17.34-.34.43c-2.78,1.42-5.52,2.92-8.35,4.25a9.37,9.37,0,0,1-2.71.53c-.55.08-.75-.16-.8-.75C180.27,72.5,180.26,72.27,180.24,72Z" transform="translate(-84.07 -21.87)"/><path class="cls-23" d="M162.1,84.74l0,.63c-.07.07-.13.24-.23.12a.68.68,0,0,1-.17-.64C161.78,84.59,162,84.73,162.1,84.74Z" transform="translate(-84.07 -21.87)"/><path class="cls-24" d="M159.44,82.58c-.07.08-.17.24-.23.12s-.34-.57.11-.76C159.57,82.12,159.5,82.35,159.44,82.58Z" transform="translate(-84.07 -21.87)"/><path class="cls-25" d="M159.44,82.58a1,1,0,0,0-.12-.64h.21v.23C159.54,82.31,159.59,82.47,159.44,82.58Z" transform="translate(-84.07 -21.87)"/><path class="cls-26" d="M160.09,88.8V89c-.06.06-.09.23-.21.12a.31.31,0,0,1-.07-.42C160,88.55,160,88.73,160.09,88.8Z" transform="translate(-84.07 -21.87)"/><path class="cls-27" d="M188.62,68.63l-3.8,1.72-1.89.87c-.29.14-.4.1-.33-.24.21-1,.43-2.1.62-3.15.08-.42.37-.26.58-.23l3.63.68,1.19.21Z" transform="translate(-84.07 -21.87)"/></svg>