<svg id="Layer_1" data-name="Layer 1" xmlns="http://www.w3.org/2000/svg" viewBox="0 0 225.66 173.05"><defs><style>.cls-1{fill:#2e282a;}.cls-2{fill:#5c5759;}.cls-3{fill:#5b5758;}.cls-4{fill:#6b6668;}.cls-5{fill:#e3572e;}.cls-6{fill:#17bdba;}.cls-7{fill:#76b941;}.cls-8{fill:#7367ef;}.cls-9{fill:#554f50;}.cls-10{fill:#3e3536;}.cls-11{fill:#484565;}.cls-12{fill:#504b4c;}.cls-13{fill:#585455;}.cls-14{fill:#555051;}.cls-15{fill:#656062;}.cls-16{fill:#433c68;}.cls-17{fill:#544f51;}.cls-18{fill:#463939;}.cls-19{fill:#bf4d2d;}.cls-20{fill:#423d43;}.cls-21{fill:#4c4c5b;}.cls-22{fill:#464460;}.cls-23{fill:#494965;}.cls-24{fill:#393335;}.cls-25{fill:#514c4d;}.cls-26{fill:#fdc714;}</style></defs><path class="cls-1" d="M202,57.18l19.27,6.14,44,13.92c.17.06.35.11.51.18.73.3.84.54.52,1.24-3.2,7-6.74,13.9-10.2,20.81-13.73,27.4-27.75,54.65-41.7,81.94-1,2-2.08,4-3.08,6a1.7,1.7,0,0,1-1.37,1,4,4,0,0,1-2.53-.35q-15.51-8-31-16-17.29-8.94-34.57-17.93c-.36-.19-.74-.35-1.11-.54-.72-.38-.75-.52-.38-1.22,2.4-4.6,5-9.08,7.6-13.58q5.22-9.18,10.46-18.35c.07-.12.12-.24.22-.44h-1l-19.88.8q-14,.58-28,1.17c-6.19.26-12.39.49-18.58.75-9.37.38-18.74.79-28.11,1.17-5.3.22-10.6.42-15.91.63a3.64,3.64,0,0,1-.81-.06.68.68,0,0,1-.59-.71c-.52-7.66-1-15.33-1.38-23-.39-8.23-.8-16.45-1.18-24.67-.31-6.58-.58-13.16-.87-19.73s-.63-13.11-.9-19.67c-.15-3.79-.21-7.59-.31-11.38-.06-2-.1-4-.2-6a.77.77,0,0,1,.73-.93,4.3,4.3,0,0,1,.62,0l32-.59,41.85-.8Q139,16.42,161.9,16c12.79-.2,25.57-.58,38.36-.63,2.26,0,2.2,0,2.72,2.14a20.79,20.79,0,0,1,.54,3.83,1,1,0,0,1-1.12.52,1.68,1.68,0,0,1-1-.56,28.19,28.19,0,0,1-.89-3.51c-.26-1-.26-1-1.28-1-5,.12-10,.25-14.94.31-1.67,0-3.34.08-5,.09-4.2,0-8.41.14-12.62.18-2.3,0-4.62,0-6.92.12-2.58.16-5.17,0-7.75.14s-5.08,0-7.61.14-5.3,0-7.95.14c-2.81.16-5.63,0-8.43.13s-5.31,0-8,.14c-2.37.14-4.75,0-7.13.13-3,.17-5.94,0-8.91.15-2.58.14-5.17,0-7.75.13-2.85.16-5.72,0-8.57.14-2.63.15-5.26,0-7.88.13s-5.54,0-8.3.15c-2.44.13-4.89,0-7.33.13-2.81.16-5.63,0-8.43.14-3.09.17-6.18.06-9.26.1-.74,0-1.46.17-2.19.15-.5,0-.7.22-.69.7,0,1.15.12,2.29.18,3.43.1,1.87.26,3.73.37,5.6.06,1.11.2,1.31,1.31,1.2,2.08-.21,4.16-.05,6.24-.13,5-.19,10-.21,14.94-.31,2.65-.05,5.31,0,8-.1,3.93-.14,7.86,0,11.79-.17,3-.1,6,0,9-.12,3.43-.17,6.86,0,10.29-.15,2.9-.13,5.81,0,8.71-.12,4.16-.2,8.32,0,12.48-.15s8.19,0,12.27-.13c4.83-.18,9.66,0,14.48-.14s9.6,0,14.4-.13c5-.17,10-.08,15-.11,3.76.05,7.52,0,11.29,0,1,0,2,0,3,0a1.77,1.77,0,0,1,1.67.85c-.29.33-.71.26-1.08.35a1.47,1.47,0,0,1-.47,0c-3.57-.08-7.13.14-10.7.17-3.22,0-6.45,0-9.67.14-2.79.12-5.58,0-8.36.13-2.93.15-5.86,0-8.78.14-2.54.14-5.08,0-7.61.13-3,.18-6.09,0-9.12.15-2.88.15-5.76,0-8.64.13-3.2.17-6.4,0-9.6.14s-6.54,0-9.8.13c-4.35.21-8.7,0-13,.15-3.79.15-7.59,0-11.38.13-4.35.19-8.69,0-13,.14-3.68.15-7.36,0-11,.12-7.11.26-14.23.05-21.34.13h-.48c-.4,0-.54.19-.54.6,0,1.4.13,2.79.22,4.18.08,1.13.12,2.28.18,3.42q.18,3.56.34,7.11c.12,2.54.16,5.07.36,7.6.08,1.09.11,2.19.14,3.29.06,2.48.2,5,.33,7.46l.48,9.78q.18,3.66.34,7.33c.1,2.46.17,4.93.36,7.39.08,1.11.1,2.23.13,3.35.07,2.76.22,5.52.34,8.29.12,3,.19,5.93.34,8.9.1,1.8.16,3.6.16,5.41,0,2.17.18,4.34.15,6.51,0,.45.13.65.62.64,2,0,4-.13,6-.25,1.23-.08,2.47-.09,3.7-.13l5.2-.2c2.83-.12,5.67-.15,8.49-.37,1.26-.09,2.52-.09,3.77-.12,2.92-.08,5.85-.21,8.77-.34,3.83-.16,7.67-.25,11.5-.5,1.18-.08,2.37-.08,3.56-.12,1.69,0,3.38-.13,5.07-.2,2.78-.12,5.57-.16,8.35-.36,1.23-.09,2.47-.09,3.7-.13,1.78,0,3.56-.12,5.34-.2,2.72-.12,5.44-.14,8.15-.36,1.2-.09,2.42-.1,3.63-.13,2.88-.07,5.75-.23,8.63-.33,3.47-.11,6.94-.28,10.41-.42,1.75-.07,3.51-.12,5.27-.23a1.26,1.26,0,0,0,1.11-.75c2.06-3.62,4.09-7.26,6.17-10.86,5.69-9.84,11.43-19.65,17.58-29.21.31-.48.6-1,.92-1.45a.89.89,0,0,0,.23-.49,5.16,5.16,0,0,1,1.1-2.83C188.31,68,191.34,63,194.38,58c.2-.34.43-.65.61-1a2.46,2.46,0,0,1,2.7-1.3,15.2,15.2,0,0,1,2.39.6l.22.06A6.57,6.57,0,0,1,202,57.18Z" transform="translate(-40.82 -15.38)"/><path class="cls-2" d="M202,57.18a7.07,7.07,0,0,1-1.66-.68,2.06,2.06,0,0,1-.16-1.52,24.69,24.69,0,0,0,.11-2.85c0-.27,0-.56.25-.73.39.2.23.6.33.91s.08.43.34.45.38-.21.41-.45a7.86,7.86,0,0,0,.16-1.28c0-2.16.32-4.31.29-6.47a9.37,9.37,0,0,0,.13-1.49c0-1.16.17-2.31.14-3.47a15.67,15.67,0,0,1,.28-2.82.15.15,0,0,1,.22,0c-.12,2.65-.22,5.29-.35,7.94-.17,3.56-.36,7.12-.51,10.68C202,56,201.74,56.58,202,57.18Z" transform="translate(-40.82 -15.38)"/><path class="cls-3" d="M202.87,36.74h-.16c-.27-.32-.16-.7-.14-1.05.08-1.29.12-2.58.21-3.87,0-.73,0-1.46,0-2.19s0-.87-.87-.89a.62.62,0,0,1-.33-.08,1.07,1.07,0,0,1-.11-.84,7.26,7.26,0,0,0,.09-1.68,1.37,1.37,0,0,1,.29-1c1-.5,1.4-.25,1.41.82,0,.27,0,.54,0,.81-.14,1,0,2.11-.07,3.17a2,2,0,0,1-.05.8Q203.13,33.75,202.87,36.74Z" transform="translate(-40.82 -15.38)"/><path class="cls-4" d="M203.13,30.73v-4a11,11,0,0,0-.1-2.81c0-.24-.16-.36-.39-.4s-.5,0-.68-.25a1.91,1.91,0,0,1-.09-1.11c0-.35.2-.53.58-.39a1.77,1.77,0,0,0,1.08-.4q-.14,4.11-.28,8.22A3.46,3.46,0,0,1,203.13,30.73Z" transform="translate(-40.82 -15.38)"/><path class="cls-5" d="M200.24,56.48c-.86,0-1.59-.52-2.45-.58a2.5,2.5,0,0,0-2.69,1.26C191.59,63.05,188,68.89,184.78,75c-.08.16-.23.4-.17.5.34.55-.08.89-.32,1.26-5.92,9.16-11.49,18.53-16.94,28-2.64,4.57-5.23,9.17-7.84,13.76a.86.86,0,0,1-.8.5q-5.6.19-11.17.42l-13.57.56-10.07.4-14,.56-10,.4-13.7.56-10.07.4-14.25.56c-4.43.18-8.86.35-13.29.56-.48,0-.6-.09-.61-.58-.08-4-.16-8-.29-12.06-.16-4.75-.36-9.5-.55-14.25q-.25-6.14-.54-12.26c-.22-4.91-.46-9.81-.69-14.72q-.28-5.74-.55-11.5c-.19-4.15-.36-8.31-.56-12.46-.16-3.54-.35-7.08-.54-10.61a20.06,20.06,0,0,0-.16-2.46c-.14-.72.15-.79.74-.79,2,0,3.93,0,5.9,0,4.74,0,9.47,0,14.21-.06,3.75-.07,7.5,0,11.25-.12,4.3-.13,8.6,0,12.9-.15,3.84-.11,7.68,0,11.52-.13,4.09-.13,8.19,0,12.28-.13,3.57-.11,7.14-.08,10.7-.13,5.83-.1,11.67-.18,17.5-.27l17.49-.28,16.94-.27c5.35-.09,10.7-.14,16-.3,2.47-.08,4.94,0,7.4-.23a2.14,2.14,0,0,1,1.43-.14.46.46,0,0,1,.19.08c.22.33-.14.53-.18.83.27-.28.39-.7.8-.83a.27.27,0,0,1,.3.37c0,2.74-.23,5.48-.33,8.22a2.44,2.44,0,0,0-.09.54,47.37,47.37,0,0,1-.15,4.91c-.07,2.32-.09,4.65-.32,7C200.44,52.51,200.48,54.5,200.24,56.48Z" transform="translate(-40.82 -15.38)"/><path class="cls-6" d="M261.93,78.5c-2.3,4.22-4.49,8.47-6.65,12.73-4,7.89-7.95,15.81-12,23.69-8.73,17.16-17.16,34.47-25.78,51.68q-1.5,3-2.94,6c-.2.41-.37.46-.77.23-6.67-3.9-13.45-7.61-20.2-11.37-9.95-5.54-19.83-11.19-29.72-16.82-3.6-2-7.15-4.18-10.87-6-.39-.19-.43-.34-.21-.71q5.85-10,11.7-20.08c5.06-8.65,10.07-17.31,14.89-26.09,2.75-5,5.46-10,8-15.14.07-.14.15-.36.26-.39.78-.2,1-.89,1.36-1.46,3.2-5.14,6.1-10.47,9-15.79.36-.66.68-.81,1.4-.57,5,1.65,10.1,3.24,15.15,4.87l46.33,14.93C261.27,78.26,261.59,78.38,261.93,78.5Z" transform="translate(-40.82 -15.38)"/><path class="cls-7" d="M183.06,28.9c-4.26,0-8.51,0-12.76.06-4.85.12-9.7,0-14.54.13s-9.66,0-14.48.14c-4.2.12-8.41,0-12.62.13s-8.14,0-12.21.14c-3.08.11-6.17,0-9.25.13-3.3.15-6.59,0-9.88.15s-6.31,0-9.46.13-6.36,0-9.53.14c-3.41.14-6.82,0-10.22.14-3,.12-6,0-8.92.13-4.18.14-8.36.25-12.54.27-.69,0-1.37,0-2,.09-.39,0-.58-.05-.61-.5-.1-1.5-.26-3-.35-4.5-.12-1.91-.19-3.83-.31-5.74,0-.52.13-.64.64-.66,3.36-.15,6.72-.08,10.08-.14,5.35-.09,10.7-.14,16-.29,2.52-.07,5-.05,7.55-.11,5.62-.16,11.24-.19,16.87-.31,2.62-.05,5.26,0,7.88-.12,2.9-.14,5.81,0,8.71-.13,5.07-.14,10.15-.18,15.22-.29,2.79-.07,5.58-.06,8.37-.11l15.84-.29c4.82-.08,9.64-.13,14.46-.28,3.07-.1,6.13,0,9.19-.14,2.88-.12,5.76-.06,8.64-.12,4.53-.09,9.05-.16,13.58-.29l3.42-.11c.44,0,.64.1.74.57.29,1.42.66,2.83,1,4.25.47.33.36.82.39,1.29.09,1.34-.3,2.65-.28,4-.12.39,0,.81-.11,1.21s.08.67-.1,1a9.16,9.16,0,0,1-2.22.16c-5.14-.33-10.29-.06-15.44-.14A1.55,1.55,0,0,0,183.06,28.9Z" transform="translate(-40.82 -15.38)"/><path class="cls-8" d="M213.6,174.53l-.18.37c-1.68,3.4-3.37,6.8-5,10.22-.23.45-.39.53-.86.29q-14.07-7.29-28.15-14.55l-17.69-9.11q-8.47-4.37-17-8.71c-.55-.29-.58-.48-.26-1,2.28-3.57,4.35-7.26,6.47-10.91.24-.42.42-.46.83-.23q17,9.18,34,18.36c7.72,4.19,15.39,8.46,23.09,12.68,1.42.78,2.85,1.54,4.34,2.2C213.34,174.23,213.6,174.24,213.6,174.53Z" transform="translate(-40.82 -15.38)"/><path class="cls-9" d="M200.24,56.48c.06-3,.21-5.92.38-8.88.07-1.23.07-2.47.15-3.7.1-1.78.12-3.56.18-5.34a.6.6,0,0,1,.1-.45c.22.17.21.43.25.67.09.51.3.84.9.73a.38.38,0,0,1,.37.11c0,1.14-.09,2.28-.14,3.43-.11.2-.07.45-.17.65a.68.68,0,0,1-.65.43.59.59,0,0,1-.56-.51,6,6,0,0,1-.06-1.18,3.21,3.21,0,0,0,0,.44c.29,2.6-.2,5.18-.14,7.77a.93.93,0,0,1-.2.77c-.15.11-.14.28-.14.44.1,1.55-.17,3.09-.14,4.64Z" transform="translate(-40.82 -15.38)"/><path class="cls-10" d="M183.06,28.9a.67.67,0,0,1,.46-.1h15.76c.13.1.3,0,.44.09.46,0,.57.51.92.68l-1.64,0c-.91-.95-2.09-.67-3.19-.67C191.56,28.9,187.31,28.91,183.06,28.9Z" transform="translate(-40.82 -15.38)"/><path class="cls-11" d="M201.6,26.7a30.92,30.92,0,0,1,.27-4.19,1.75,1.75,0,0,0-.31-1.14l.88.39c-.31,0-.44.14-.42.45s0,.72,0,1.07a3.15,3.15,0,0,1-.14,1.92,6.47,6.47,0,0,0-.15,1.86c0,.25.11.54-.13.75l-.06-.09A3.48,3.48,0,0,1,201.6,26.7Z" transform="translate(-40.82 -15.38)"/><path class="cls-12" d="M202.57,39.62c-1.34.3-1.37,0-1.52-1.52.1-2.7.21-5.41.32-8.11a.84.84,0,0,1,.09-.25.66.66,0,0,1,.2.51c0,.36,0,.73,0,1.14a.85.85,0,0,1,.78-.23c.34.08.42.38.56.64l-.27,4.94C202.8,37.7,202.55,38.65,202.57,39.62Z" transform="translate(-40.82 -15.38)"/><path class="cls-13" d="M200.65,51.42c-.1-1.91.1-3.81.18-5.72a25.14,25.14,0,0,1,.23-3.46c0,.28,0,.55,0,.83s.09.82.53.91.54-.33.69-.64a2.64,2.64,0,0,1,.15-.29c-.19,2.15-.15,4.31-.39,6.46-.1.92,0,1.86-.14,2.79-.07.4-.13.69-.6.77s-.54-.32-.6-.63A6.9,6.9,0,0,1,200.65,51.42Z" transform="translate(-40.82 -15.38)"/><path class="cls-14" d="M203,31.8c-.4-.52-.85-.75-1.5-.13V30.28c.16-.33-.07-.76.27-1.06.1-.09-.13-.2-.19-.32a.25.25,0,0,1,.05-.26,4.48,4.48,0,0,1,.46-.12c.73-.12.91,0,.91.75S203,31,203,31.8Z" transform="translate(-40.82 -15.38)"/><path class="cls-15" d="M201.89,25.2a5.41,5.41,0,0,1,.14-1.92c1.23,0,1.25,0,1.22,1.22a6.15,6.15,0,0,1-.13,2.22v-.55C203.12,25,203,24.91,201.89,25.2Z" transform="translate(-40.82 -15.38)"/><path class="cls-16" d="M201.61,28.64v.27a.15.15,0,0,1-.16,0,.11.11,0,0,1,0-.16l0-.94q.06-.11.12,0h0Z" transform="translate(-40.82 -15.38)"/><path class="cls-1" d="M116.7,84.88a33.47,33.47,0,0,1,17.94,4.92,22,22,0,0,1,7.45,7.33c.22.37.65.78.37,1.24s-.89.51-1.43.5a2.29,2.29,0,0,1-1.91-1.25,23.68,23.68,0,0,0-5.76-6,27.45,27.45,0,0,0-12.58-5.07A26.59,26.59,0,0,0,104.3,89.3a26.9,26.9,0,0,0-9.66,8.85c-.43.64-.91,1.25-1.39,1.87a1,1,0,0,1-1.22.31c-.4-.2-.32-.64-.27-1a11.51,11.51,0,0,1,3.17-6A23.55,23.55,0,0,1,105,86.84,34,34,0,0,1,116.7,84.88Z" transform="translate(-40.82 -15.38)"/><path class="cls-1" d="M139.41,66c-1.39.15-2.35-.68-3-2.15a6.26,6.26,0,0,1-.7-4A3.12,3.12,0,0,1,140.07,58a4.18,4.18,0,0,1,2.05,4.88,5.17,5.17,0,0,0-.07,1C142,65.45,141.32,66.06,139.41,66Z" transform="translate(-40.82 -15.38)"/><path class="cls-1" d="M91.79,61.81a8.56,8.56,0,0,1,.12-1.55c.36-1.89,1.65-2.41,3.32-2.22a2.06,2.06,0,0,1,1.63,1.42A7.34,7.34,0,0,1,97,64.74a2.08,2.08,0,0,1-1.76,1.36,2.34,2.34,0,0,1-2.45-.84A6.11,6.11,0,0,1,91.79,61.81Z" transform="translate(-40.82 -15.38)"/><path class="cls-17" d="M200.64,29.56c-.41-.07-.59-.48-.95-.65a5.12,5.12,0,0,1,1.61,0c.49.19.12.4,0,.6l-.1.06a.41.41,0,0,1-.55,0Z" transform="translate(-40.82 -15.38)"/><path class="cls-18" d="M201.3,29.53c-.37-.31.41-.22.17-.48a.09.09,0,0,1,0-.09s0-.05,0-.05h.14c.2,0,.44,0,.5.25s-.14.25-.3.31c-.4.15,0,.61-.33.81,0-.18,0-.36,0-.54Z" transform="translate(-40.82 -15.38)"/><path class="cls-19" d="M200.65,29.61l.55,0c-.17.26-.36.51-.52.78s-.23.41-.45.27,0-.31.07-.46S200.53,29.8,200.65,29.61Z" transform="translate(-40.82 -15.38)"/><path class="cls-1" d="M185.27,127a35.17,35.17,0,0,1,11.58,2.23,23.55,23.55,0,0,1,12.08,10.19,28,28,0,0,1,1.41,2.58c.32.64.17.9-.51,1.12a2.68,2.68,0,0,1-2.83-.72c-1.23-1.17-2.37-2.42-3.48-3.7a29.34,29.34,0,0,0-7.72-6.8,29.36,29.36,0,0,0-8.3-2.75,12.9,12.9,0,0,0-5.7-.22c-.54.12-1.33.12-1.47-.51s.62-.75,1.09-.94A10.68,10.68,0,0,1,185.27,127Z" transform="translate(-40.82 -15.38)"/><path class="cls-1" d="M205.2,88.22a6.69,6.69,0,0,1-1.2,4.07c-.61,1.07-1.06,2.22-1.76,3.25A4.39,4.39,0,0,1,197.7,97a1.76,1.76,0,0,1-1.44-1.83A11.76,11.76,0,0,1,198,89.48a10.08,10.08,0,0,1,2.92-3.41,3.43,3.43,0,0,1,2.87-.55,1.68,1.68,0,0,1,1.43,1.75C205.22,87.58,205.2,87.9,205.2,88.22Z" transform="translate(-40.82 -15.38)"/><path class="cls-1" d="M225.25,96.8h.15c2,0,2.73.89,2.62,2.83a10.86,10.86,0,0,1-2.9,6.87,3.85,3.85,0,0,1-4.21,1,1.9,1.9,0,0,1-1.33-1.59,6.75,6.75,0,0,1,.21-3.25,11.23,11.23,0,0,1,2.35-4.43A3.82,3.82,0,0,1,225.25,96.8Z" transform="translate(-40.82 -15.38)"/><path class="cls-1" d="M67.36,26.44a27.21,27.21,0,0,1-5.15.67c-3.35.22-6.71.32-10.06.28a10.47,10.47,0,0,1-3.43-.53c-.76-.27-1.63-.6-1.63-1.54s.86-1.23,1.59-1.49a15.76,15.76,0,0,1,5.76-.51c1.71.05,3.42.14,5.13.23a52.45,52.45,0,0,1,7.6.85,1.75,1.75,0,0,1,.32.12,1.07,1.07,0,0,0,.38.13c.39.11.69.33.69.75a.85.85,0,0,1-.63.86C67.74,26.33,67.52,26.31,67.36,26.44Z" transform="translate(-40.82 -15.38)"/><path class="cls-1" d="M79.46,23.84a23,23,0,0,1,5.86.4,2.74,2.74,0,0,1,1.23.58c.51.47.49.8-.07,1.2a4.32,4.32,0,0,1-2.13.68c-1.32.13-2.64.2-4,.28-1.78.1-3.56.2-5.34.27a5.66,5.66,0,0,1-2.52-.53c-.47-.22-.92-.47-.93-1.07s.46-.86.9-1.09a9.54,9.54,0,0,1,4-.7C77.45,23.78,78.46,23.84,79.46,23.84Z" transform="translate(-40.82 -15.38)"/><path class="cls-1" d="M98.52,25.76c-1.27.13-2.53.31-3.81.39-.71,0-1.38.26-2.08.34A7.07,7.07,0,0,1,89.28,26c-.43-.15-.84-.41-.87-.88s.41-.77.83-1a8.49,8.49,0,0,1,3.39-.72c1.87-.06,3.75,0,5.62,0,.36.13.76.08,1.13.18L100,24c.63.38.66.81.09,1.28a2,2,0,0,1-.65.35A3.91,3.91,0,0,0,98.52,25.76Z" transform="translate(-40.82 -15.38)"/><path class="cls-20" d="M98.52,25.76a1.32,1.32,0,0,1,.83-.28A3.46,3.46,0,0,0,100.6,25c.45-.22.42-.54,0-.81a4.58,4.58,0,0,0-1.24-.49,2.21,2.21,0,0,1-1.1-.27,7.51,7.51,0,0,1,2.75.24c.19.2.48.22.66.44a.8.8,0,0,1,0,1c-.08.18-.3.16-.42.28A6.55,6.55,0,0,1,98.52,25.76Z" transform="translate(-40.82 -15.38)"/><path class="cls-21" d="M67.36,26.44c.21-.11.43-.22.64-.35a.7.7,0,0,0,0-1.27c-.18-.1-.4-.13-.53-.3a1.7,1.7,0,0,1,1,.29c.27.14.62.27.61.65s-.34.53-.61.67A2.07,2.07,0,0,1,67.36,26.44Z" transform="translate(-40.82 -15.38)"/><path class="cls-22" d="M101.26,25.36l.29-.29c.45-.32.49-.64,0-1a.62.62,0,0,1-.55-.44,1.15,1.15,0,0,1,.33,0c.44.19,1.07.26,1,.89S101.75,25.27,101.26,25.36Z" transform="translate(-40.82 -15.38)"/><path class="cls-23" d="M201.47,28.91v.14c-.6.06-1.17-.22-1.78-.14-.15,0-.31,0-.41-.12l2.19,0Z" transform="translate(-40.82 -15.38)"/><path class="cls-3" d="M201.61,27.82h-.12a2.14,2.14,0,0,1,.11-1.12C201.6,27.07,201.61,27.44,201.61,27.82Z" transform="translate(-40.82 -15.38)"/><path class="cls-1" d="M175.19,158.81a5,5,0,0,1,3.66,1.1,4.19,4.19,0,0,1,1.75,3.65,3.22,3.22,0,0,1-2.21,2.8,7.17,7.17,0,0,1-6.56-.63,3.47,3.47,0,0,1-1.8-3.51,3.66,3.66,0,0,1,2.31-2.84A6.52,6.52,0,0,1,175.19,158.81Z" transform="translate(-40.82 -15.38)"/><path class="cls-24" d="M99.35,23.7c.65-.25,1.09.25,1.59.48a.45.45,0,0,1,.06.76,2.18,2.18,0,0,1-1.65.54l.35-.18c.82-.5.82-.83,0-1.29A.68.68,0,0,1,99.35,23.7Z" transform="translate(-40.82 -15.38)"/><path class="cls-25" d="M101.55,24.11c.28,0,.58.13.58.43s-.26.49-.58.53A.92.92,0,0,0,101.55,24.11Z" transform="translate(-40.82 -15.38)"/><path class="cls-26" d="M177.32,162.67c0,1-.62,2.2-1.07,2.13-.72-.12-1-.8-1.24-1.41a2.68,2.68,0,0,1-.06-1.93c.13-.39.31-.91.73-.89a1.64,1.64,0,0,1,1.12.66A2.79,2.79,0,0,1,177.32,162.67Z" transform="translate(-40.82 -15.38)"/></svg>