<svg id="Layer_1" data-name="Layer 1" xmlns="http://www.w3.org/2000/svg" viewBox="0 0 152.36 154.94"><defs><style>.cls-1{fill:#2e282a;}.cls-2{fill:#3d3939;}.cls-3{fill:#353030;}.cls-4{fill:#44423f;}.cls-5{fill:#75b940;}.cls-6{fill:#9b9b9b;}.cls-7{fill:#3b3b38;}.cls-8{fill:#4a4b4d;}.cls-9{fill:#413c3d;}.cls-10{fill:#383435;}.cls-11{fill:#332e2f;}.cls-12{fill:#404d30;}.cls-13{fill:#485e32;}.cls-14{fill:#495858;}.cls-15{fill:#787475;}.cls-16{fill:#494446;}.cls-17{fill:#394a4b;}.cls-18{fill:#514c4e;}.cls-19{fill:#5c5759;}.cls-20{fill:#696566;}</style></defs><path class="cls-1" d="M123.64,15.45a53.41,53.41,0,0,1,8.73,3.92c18.22,10.07,30.3,25.18,36.68,44.92a75.69,75.69,0,0,1,3.47,27.84,77,77,0,0,1-11.08,36A75.08,75.08,0,0,1,126,159a70.34,70.34,0,0,1-23,5.67c-24,1.63-44.46-6.15-61.18-23.42a75.19,75.19,0,0,1-19.64-36.95,77.31,77.31,0,0,1-1.62-22.55,79.14,79.14,0,0,1,14.82-41A74.15,74.15,0,0,1,63.87,17.24a73.51,73.51,0,0,1,26.23-7,75.18,75.18,0,0,1,25,2.05c1.26.32,2.49.8,3.73,1.22.18.06.38.11.47.31.16.43-.17.55-.45.68a3.11,3.11,0,0,1-1.32.14c-2.17-.42-4.32-.95-6.48-1.41a64.79,64.79,0,0,0-9.31-1.31c-1.95-.13-3.9-.3-5.85-.24A72.21,72.21,0,0,0,79.16,14a73.93,73.93,0,0,0-14.65,5.64,71.91,71.91,0,0,0-12.75,8.48c-1.62,1.34-3.2,2.73-4.69,4.21a79.91,79.91,0,0,0-11.34,14,78.28,78.28,0,0,0-6.42,12.4,78.09,78.09,0,0,0-5.48,32.35,78,78,0,0,0,5.32,25,76.22,76.22,0,0,0,11.24,19.75c.48.61.54.63,1.21.22a62.63,62.63,0,0,1,12.51-5.74,146.78,146.78,0,0,1,25.4-6.17c4.49-.73,9-1.29,13.55-1.71,2.54-.23,5.09-.38,7.63-.56,6.8-.5,13.61-.39,20.42-.33,2.78,0,5.56.23,8.35.45,3.7.29,7.39.66,11.07,1.2a93.16,93.16,0,0,1,16.39,3.69c.32.11.68.16.87.49a.38.38,0,0,1-.3.52,3.89,3.89,0,0,1-.74.15,13.55,13.55,0,0,1-2.8-.72,116.46,116.46,0,0,0-15.49-3c-2.66-.35-5.33-.62-8-.84-1.67-.14-3.34-.21-5-.32-5.64-.38-11.29-.23-16.94-.21-2.4,0-4.8.16-7.2.33-1.84.13-3.68.25-5.52.4-2.29.2-4.57.42-6.85.68q-8.11.93-16.11,2.54a137.81,137.81,0,0,0-16.57,4.35A79.13,79.13,0,0,0,45,136c-.86.45-1.67,1-2.51,1.45-.42.23-.41.45-.11.79,1.55,1.76,3.15,3.46,4.83,5.09a72.62,72.62,0,0,0,7.22,6.13,74.93,74.93,0,0,0,9.43,5.92,70.46,70.46,0,0,0,28.81,8.1,65.65,65.65,0,0,0,7.15.07,70.95,70.95,0,0,0,29.06-7.68,73.25,73.25,0,0,0,14.88-10,76.66,76.66,0,0,0,12.68-14.18c.65-.94,1.18-1.95,1.9-2.84a3.32,3.32,0,0,0,.46-.71,3.36,3.36,0,0,0,.26-.5c1.16-2,2.27-4.09,3.29-6.2a78.13,78.13,0,0,0,7.44-27.52,68.45,68.45,0,0,0,.28-8.1,82,82,0,0,0-2.87-19.39A79.56,79.56,0,0,0,162.55,54a76.6,76.6,0,0,0-11.21-17.23,74.05,74.05,0,0,0-14.9-13.21A73,73,0,0,0,123,16.35c-.3-.12-.7-.14-.78-.58C122.55,15.23,122.66,15.2,123.64,15.45Z" transform="translate(-20.29 -9.92)"/><path class="cls-2" d="M120.75,14.4a4.11,4.11,0,0,1,1.48.53c-.41.3-1,.06-1.38.45a1.55,1.55,0,0,1-1.47-.67.5.5,0,0,1,.64-.43A4.63,4.63,0,0,1,120.75,14.4Z" transform="translate(-20.29 -9.92)"/><path class="cls-3" d="M120.85,15.31c.3-.69.92-.26,1.38-.38.46.19,1,.16,1.41.52-.48.07-1.08-.25-1.39.41A1.5,1.5,0,0,1,120.85,15.31Z" transform="translate(-20.29 -9.92)"/><path class="cls-4" d="M120.75,14.4c-.44.13-1-.29-1.32.4a2.72,2.72,0,0,1-2-.38,4.68,4.68,0,0,0,1.34-.12.65.65,0,0,0,.48-.53C119.71,14.15,120.31,14.09,120.75,14.4Z" transform="translate(-20.29 -9.92)"/><path class="cls-5" d="M117.48,14.42a16.37,16.37,0,0,1,2,.38l1.42.51,1.4.55A75.17,75.17,0,0,1,145.5,30.47a75.88,75.88,0,0,1,14.44,18.11A75,75,0,0,1,167,65.13a77.41,77.41,0,0,1,2.56,12.13c.3,2.26.46,4.52.58,6.79a70.23,70.23,0,0,1,0,7.54,79.44,79.44,0,0,1-1.35,11,77.9,77.9,0,0,1-7.66,21.71c-.62,1.18-1.29,2.33-1.94,3.49-.58.29-1-.07-1.42-.38a63.28,63.28,0,0,0-8.66-2.45,119.44,119.44,0,0,0-12.18-2c-3.06-.37-6.14-.62-9.22-.84-6.24-.44-12.49-.44-18.74-.34-4.5.07-9,.35-13.49.72s-8.76.84-13.1,1.47a150.21,150.21,0,0,0-28.76,6.8,58.5,58.5,0,0,0-12.27,5.77c-.38.25-.56.12-.79-.17A77.66,77.66,0,0,1,34,126.67a80.36,80.36,0,0,1-9.73-28.92,78.28,78.28,0,0,1,2.83-33.27,76.17,76.17,0,0,1,10.19-20.8,78.07,78.07,0,0,1,9.8-11.59A71.54,71.54,0,0,1,86.2,12.33a68.42,68.42,0,0,1,11.34-.86,72.4,72.4,0,0,1,16,2.07C114.84,13.86,116.16,14.13,117.48,14.42Z" transform="translate(-20.29 -9.92)"/><path class="cls-6" d="M158.5,128.79A78.31,78.31,0,0,1,150.88,139a73.8,73.8,0,0,1-18,14.82,71.54,71.54,0,0,1-22.33,8.56A70.25,70.25,0,0,1,69,158a71.69,71.69,0,0,1-17.89-11,78.25,78.25,0,0,1-9-8.89c-.34-.4-.22-.51.14-.74a67,67,0,0,1,12.73-5.87A139.76,139.76,0,0,1,76.78,126c5.85-1.06,11.74-1.83,17.66-2.36q6.11-.54,12.21-.78c4.77-.19,9.54-.2,14.31-.06a151.28,151.28,0,0,1,29.3,3.46,55.85,55.85,0,0,1,6,1.63,2.12,2.12,0,0,0,.44.05c.28.1.59,0,.86.14s.48.14.71.24S158.66,128.48,158.5,128.79Z" transform="translate(-20.29 -9.92)"/><path class="cls-7" d="M157.44,128.16a1.85,1.85,0,0,1-.78-.26c.34-.21,1,.14,1.06-.53.5,0,.89.46,1.42.38l-.26.39C158.4,128.06,157.92,128.25,157.44,128.16Z" transform="translate(-20.29 -9.92)"/><path class="cls-8" d="M157.44,128.16c.33-.08.66-.15,1-.24a.36.36,0,0,1,.46.22c-.14.2-.08.53-.38.65C158.38,128.19,157.73,128.47,157.44,128.16Z" transform="translate(-20.29 -9.92)"/><path class="cls-1" d="M128.09,49.74a32,32,0,0,1,3.56,9.13,36.31,36.31,0,0,1,.9,10.49,38,38,0,0,1-8.81,22.3,37.13,37.13,0,0,1-26.86,13.7,34.86,34.86,0,0,1-18.4-3.94A34.26,34.26,0,0,1,60.8,76.92,37.56,37.56,0,0,1,60.59,66a39.22,39.22,0,0,1,4-13.16A36.88,36.88,0,0,1,73,42.13a40.71,40.71,0,0,1,9.77-6.51A37.36,37.36,0,0,1,95,32.18a35.63,35.63,0,0,1,17.53,2.49,26,26,0,0,1,3.89,2c.34.21.75.43.42,1-.06.07-.08.16-.16.21a1.61,1.61,0,0,1-.6.22,2.22,2.22,0,0,1-.37.09,3.57,3.57,0,0,1-2.17-.44A31.2,31.2,0,0,0,104,34.42,28.78,28.78,0,0,0,89.53,35.9a31.39,31.39,0,0,0-10.66,6.39,38.08,38.08,0,0,0-7.76,9.82,37.73,37.73,0,0,0-5.17,18.34,37.55,37.55,0,0,0,2.08,13,31,31,0,0,0,8.37,12.83,28.12,28.12,0,0,0,15.08,7.17,29,29,0,0,0,14.5-1.67,35,35,0,0,0,10.49-6.2A37.8,37.8,0,0,0,125.09,85a39.79,39.79,0,0,0,4.83-15.53,35.26,35.26,0,0,0-1.46-14.06c-.45-1.48-1.1-2.89-1.59-4.35a2.5,2.5,0,0,0-.31-.84c-.13-.3-.29-.63.06-.86a1,1,0,0,1,1.13,0C127.89,49.45,128,49.62,128.09,49.74Z" transform="translate(-20.29 -9.92)"/><path class="cls-9" d="M125,45.2l.1,0a5.08,5.08,0,0,0,.41.51,5,5,0,0,1,.91,1.28c-.46.39-1,.14-1.51.24a2.8,2.8,0,0,1-1-1.2.67.67,0,0,1,0-.46c.27-.29.67-.24,1-.39Z" transform="translate(-20.29 -9.92)"/><path class="cls-10" d="M124.85,47.16a9.08,9.08,0,0,1,1.57-.14,7,7,0,0,1,1,1.56.47.47,0,0,1-.37,0c-.77-.14-.77-.14-.91.63-.06,0-.14.05-.18,0A4.56,4.56,0,0,1,124.85,47.16Z" transform="translate(-20.29 -9.92)"/><path class="cls-11" d="M126.11,49.26c0-.28-.3-.62,0-.83s.86,0,1.28.15a4.05,4.05,0,0,1,.66,1.16c-.31-.17-.55-.44-1-.4-.59.07-.69.17-.45.71.14.32.4.61.35,1A2.32,2.32,0,0,1,126.11,49.26Z" transform="translate(-20.29 -9.92)"/><path class="cls-12" d="M121,40.84a27.71,27.71,0,0,1,3.86,3.95.59.59,0,0,1,.16.41l0,0c-.49-.05-.61-.53-.9-.8s-.45-.55-.71-.8c-.51-.53-1-1-1.56-1.56-.3-.43-.9-.64-1-1.25A.1.1,0,0,1,121,40.84Z" transform="translate(-20.29 -9.92)"/><path class="cls-13" d="M121,40.84h-.14c-.43.18-.57-.26-.84-.41-.63-.51-1.27-1-2-1.46-.34-.26-.74-.43-1.07-.7-.17-.14-.44-.24-.26-.55l.14-.1a14.71,14.71,0,0,0,1.9,1.39A18.53,18.53,0,0,1,121,40.84Z" transform="translate(-20.29 -9.92)"/><path class="cls-12" d="M125.51,45.74a.57.57,0,0,1-.41-.51A.73.73,0,0,1,125.51,45.74Z" transform="translate(-20.29 -9.92)"/><path class="cls-6" d="M126.11,49.26a14.32,14.32,0,0,0,.91,1.79,41.46,41.46,0,0,1,2.2,6.38A36.92,36.92,0,0,1,128,78.9a37.52,37.52,0,0,1-18.55,21.51,29.41,29.41,0,0,1-11.87,3.36c-9.94.61-18-3.09-24.36-10.68a32.79,32.79,0,0,1-7-16.49,36.32,36.32,0,0,1,2.32-19.45c3-7.29,7.44-13.49,14.08-17.92A31,31,0,0,1,97.65,34a28.17,28.17,0,0,1,15.18,3.19,5.15,5.15,0,0,0,3,.85,1.55,1.55,0,0,1,.77.4,33.14,33.14,0,0,1,2.8,2.21,27.08,27.08,0,0,1,3.94,4.21,5.26,5.26,0,0,1,.74,1.19l.79,1.13Z" transform="translate(-20.29 -9.92)"/><path class="cls-14" d="M119.3,40.72,115.81,38l.28-.12A6.16,6.16,0,0,1,117.7,39c.43.35.87.67,1.28,1a1,1,0,0,1,.39.56A.29.29,0,0,1,119.3,40.72Z" transform="translate(-20.29 -9.92)"/><path class="cls-15" d="M117.62,39a14.13,14.13,0,0,1-1.53-1.14l.63-.17c.15.45.61.55.93.8.16.13.4.16.49.38A.52.52,0,0,1,117.62,39Z" transform="translate(-20.29 -9.92)"/><path class="cls-16" d="M123.42,43.55c.65.44,1,1.18,1.55,1.69-.24.39-.7.2-1,.37a4.75,4.75,0,0,1-1.34-1.91A.53.53,0,0,1,123.42,43.55Z" transform="translate(-20.29 -9.92)"/><path class="cls-17" d="M122.65,43.81l1.29,1.8.12.42a38.67,38.67,0,0,0-4.76-5.31v-.14a.23.23,0,0,1,.16-.06,9.3,9.3,0,0,1,1.72,1.54A10.26,10.26,0,0,1,122.65,43.81Z" transform="translate(-20.29 -9.92)"/><path class="cls-18" d="M122.65,43.81a11.23,11.23,0,0,1-1.55-1.68c.19-.44.49-.26.78-.12a10.68,10.68,0,0,1,1.54,1.54C123.15,43.58,122.82,43.45,122.65,43.81Z" transform="translate(-20.29 -9.92)"/><path class="cls-19" d="M121.88,42c-.26,0-.55-.11-.78.12l-1.68-1.55c0-.59.39-.29.65-.25s.41.51.77.52Z" transform="translate(-20.29 -9.92)"/><path class="cls-20" d="M120.07,40.33c-.22.05-.55-.15-.65.25h-.12c-.42-.66-1.17-1-1.68-1.54.14-.19.34-.11.52-.13A10.79,10.79,0,0,1,120.07,40.33Z" transform="translate(-20.29 -9.92)"/></svg>